SplineFontDB: 3.0
FontName: Spiral
FullName: Spiral
FamilyName: Spiral
Weight: Book
Copyright: Digitized data copyright (c) 2014, Santhosh Thottingal, Kavya Manohar,\nSwathanthra Malayalam Computing(http://smc.org.in) with reserved font name "Chilanka".
Version: 1.0.0-beta.20141116
ItalicAngle: 0
UnderlinePosition: -600
UnderlineWidth: 100
Ascent: 1434
Descent: 614
InvalidEm: 0
sfntRevision: 0x00060000
LayerCount: 2
Layer: 0 1 "Back" 1
Layer: 1 1 "Fore" 0
XUID: [1021 393 960756424 15359094]
FSType: 0
OS2Version: 1
OS2_WeightWidthSlopeOnly: 0
OS2_UseTypoMetrics: 1
CreationTime: 1201144287
ModificationTime: 1417022160
PfmFamily: 65
TTFWeight: 400
TTFWidth: 5
LineGap: 0
VLineGap: 0
OS2TypoAscent: 0
OS2TypoAOffset: 1
OS2TypoDescent: 0
OS2TypoDOffset: 1
OS2TypoLinegap: 0
OS2WinAscent: 0
OS2WinAOffset: 1
OS2WinDescent: 0
OS2WinDOffset: 1
HheadAscent: 0
HheadAOffset: 1
HheadDescent: 0
HheadDOffset: 1
OS2SubXSize: 1327
OS2SubYSize: 1225
OS2SubXOff: 0
OS2SubYOff: 150
OS2SupXSize: 1327
OS2SupYSize: 1427
OS2SupXOff: 0
OS2SupYOff: 977
OS2StrikeYSize: 98
OS2StrikeYPos: 512
OS2CapHeight: 0
OS2XHeight: 0
OS2Vendor: 'PfEd'
OS2CodePages: 00000001.00000000
OS2UnicodeRanges: 80800003.00002000.00000000.00000000
Lookup: 4 0 0 "'akhn' Akhand in Malay+AQEA-lam lookup 0" { "'akhn' Akhand in Malay+AQEA-lam lookup 0 subtable"  } ['akhn' ('mlym' <'dflt' > ) ]
Lookup: 4 0 0 "'akhn' Akhand in Malay+AQEA-lam2 lookup 0" { "'akhn' Akhand in Malay+AQEA-lam2 lookup 0 subtable"  } ['akhn' ('mlm2' <'dflt' > ) ]
Lookup: 4 0 0 "'pref' Pre Base Forms in Malay+AQEA-lam2 lookup 1" { "'pref' Pre Base Forms in Malay+AQEA-lam2 lookup 1 subtable"  } ['pref' ('mlm2' <'dflt' > ) ]
Lookup: 4 0 0 "'half' Half Forms in Malay+AQEA-lam lookup 1" { "'half' Half Forms in Malay+AQEA-lam lookup 1 subtable"  } ['half' ('mlym' <'dflt' > ) ]
Lookup: 4 0 0 "'blwf' Below Base Forms in Malay+AQEA-lam lookup 2" { "'blwf' Below Base Forms in Malay+AQEA-lam lookup 2 subtable"  } ['blwf' ('mlym' <'dflt' > ) ]

StartChar: .notdef
Encoding: 0 -1 0
Width: 692
GlyphClass: 2
Flags: MW
LayerCount: 2
Back
Fore
SplineSet
45 1 m 1,0,-1
 45 1119 l 1,1,-1
 606 1119 l 1,2,-1
 606 1 l 1,3,-1
 45 1 l 1,0,-1
102 55 m 1,4,-1
 552 55 l 1,5,-1
 552 1063 l 1,6,-1
 102 1063 l 1,7,-1
 102 55 l 1,4,-1
EndSplineSet
EndChar

StartChar: exclam
Encoding: 2 33 2
Width: 409
GlyphClass: 2
Flags: MW
LayerCount: 2
Back
Fore
SplineSet
128 1163 m 0,0,1
 131 1192 131 1192 148 1208 c 128,-1,2
 165 1224 165 1224 188.5 1227.5 c 128,-1,3
 212 1231 212 1231 233.5 1214.5 c 128,-1,4
 255 1198 255 1198 259 1171 c 0,5,6
 311.208 828 311.208 828 292 434 c 1,7,8
 290 421 290 421 292 399 c 128,-1,9
 294 377 294 377 289.5 351 c 128,-1,10
 285 325 285 325 278 302 c 0,11,12
 260 249 260 249 195 253 c 0,13,14
 112.595 258.886 112.595 258.886 106 371 c 0,15,16
 105 388 105 388 105 411 c 128,-1,17
 105 434 105 434 105 442 c 0,18,19
 79.0288 683.171 79.0288 683.171 128 1163 c 0,0,1
125 11 m 0,20,21
 147 66 147 66 170 80 c 128,-1,22
 193 94 193 94 219.5 87 c 128,-1,23
 246 80 246 80 260 58 c 0,24,25
 341 -77 341 -77 303 -171 c 0,26,27
 288 -208 288 -208 250.5 -224 c 128,-1,28
 213 -240 213 -240 178 -225.5 c 128,-1,29
 143 -211 143 -211 124 -182 c 0,30,31
 77 -109 77 -109 125 11 c 0,20,21
EndSplineSet
EndChar

StartChar: numbersign
Encoding: 4 35 4
Width: 1590
GlyphClass: 2
Flags: MW
LayerCount: 2
Back
Fore
SplineSet
100 376.585 m 128,-1,1
 100 403.141 100 403.141 119.219 422.363 c 128,-1,2
 138.438 441.585 138.438 441.585 165 441.585 c 2,3,-1
 421.589 441.585 l 1,4,-1
 566.003 843.121 l 1,5,-1
 311.629 843.121 l 2,6,7
 285.067 843.119 285.067 843.119 265.848 862.34 c 128,-1,8
 246.629 881.563 246.629 881.563 246.629 908.121 c 128,-1,9
 246.629 934.677 246.629 934.677 265.848 953.899 c 128,-1,10
 285.067 973.121 285.067 973.121 311.629 973.121 c 2,11,-1
 612.758 973.121 l 1,12,-1
 720.099 1271.58 l 2,13,14
 742.095 1332.74 742.095 1332.74 785.172 1317.25 c 0,15,16
 864.426 1288.75 864.426 1288.75 842.427 1227.58 c 2,17,-1
 750.91 973.121 l 1,18,-1
 1149.32 973.121 l 1,19,-1
 1259.1 1270.72 l 2,20,21
 1281.59 1331.7 1281.59 1331.7 1324.54 1315.86 c 0,22,23
 1403.56 1286.71 1403.56 1286.71 1381.07 1225.73 c 2,24,-1
 1287.89 973.121 l 1,25,-1
 1425.38 973.121 l 2,26,27
 1451.93 973.119 1451.93 973.119 1471.15 953.899 c 128,-1,28
 1490.38 934.682 1490.38 934.682 1490.38 908.121 c 128,-1,29
 1490.38 881.56 1490.38 881.56 1471.15 862.34 c 128,-1,30
 1451.93 843.121 1451.93 843.121 1425.38 843.121 c 2,31,-1
 1239.93 843.121 l 1,32,-1
 1091.81 441.585 l 1,33,-1
 1397.58 441.585 l 2,34,35
 1424.13 441.583 1424.13 441.583 1443.36 422.363 c 128,-1,36
 1462.58 403.146 1462.58 403.146 1462.58 376.585 c 128,-1,37
 1462.58 350.023 1462.58 350.023 1443.36 330.804 c 128,-1,38
 1424.13 311.585 1424.13 311.585 1397.58 311.585 c 2,39,-1
 1043.86 311.585 l 1,40,-1
 928.594 -0.878906 l 2,41,42
 906.099 -61.8613 906.099 -61.8613 863.146 -46.0176 c 0,43,44
 784.133 -16.8711 784.133 -16.8711 806.627 44.1133 c 2,45,-1
 905.293 311.585 l 1,46,-1
 512.986 311.585 l 1,47,-1
 406.51 15.5342 l 2,48,49
 384.512 -45.6299 384.512 -45.6299 341.433 -30.1367 c 0,50,51
 262.184 -1.63477 262.184 -1.63477 284.182 59.5303 c 2,52,-1
 374.834 311.585 l 1,53,-1
 165 311.585 l 2,54,55
 138.438 311.583 138.438 311.583 119.219 330.804 c 128,-1,0
 100 350.027 100 350.027 100 376.585 c 128,-1,1
953.248 441.585 m 1,56,-1
 1101.37 843.121 l 1,57,-1
 704.154 843.121 l 1,58,-1
 559.741 441.585 l 1,59,-1
 953.248 441.585 l 1,56,-1
EndSplineSet
EndChar

StartChar: dollar
Encoding: 5 36 5
Width: 1316
GlyphClass: 2
Flags: MW
LayerCount: 2
Back
Fore
SplineSet
1032.77 996.094 m 128,-1,1
 993.587 944.234 993.587 944.234 941.721 983.418 c 0,2,3
 810.045 1082.91 810.045 1082.91 655.887 1134.64 c 1,4,5
 655.06 963.674 655.06 963.674 654.232 792.711 c 1,6,7
 659.239 792.423 659.239 792.423 711.451 789.499 c 0,8,9
 1116.64 766.811 1116.64 766.811 1198.7 489.164 c 0,10,11
 1248.68 320.071 1248.68 320.071 1157.86 154.74 c 0,12,13
 1045.8 -49.2725 1045.8 -49.2725 811.588 -114.812 c 0,14,15
 730.269 -137.568 730.269 -137.568 649.735 -137.224 c 1,16,-1
 649.04 -280.983 l 2,17,18
 648.912 -307.539 648.912 -307.539 629.6 -326.668 c 128,-1,19
 610.288 -345.796 610.288 -345.796 583.727 -345.668 c 128,-1,20
 557.165 -345.54 557.165 -345.54 538.039 -326.226 c 128,-1,21
 518.913 -306.91 518.913 -306.91 519.81 -121.511 c 1,22,23
 391.177 -90.7861 391.177 -90.7861 282.333 -0.972656 c 128,-1,24
 173.49 88.8408 173.49 88.8408 118.881 218.174 c 0,25,26
 93.5898 278.053 93.5898 278.053 153.478 303.339 c 128,-1,27
 213.36 328.616 213.36 328.616 238.643 268.742 c 0,28,29
 319.971 76.1357 319.971 76.1357 520.461 13.1006 c 1,30,31
 522.055 342.567 522.055 342.567 523.647 672.033 c 1,32,33
 328.467 692.936 328.467 692.936 237.613 770.595 c 0,34,35
 50.6445 930.411 50.6445 930.411 117.701 1114.12 c 0,36,37
 169.277 1255.45 169.277 1255.45 335.274 1295.92 c 0,38,39
 418.94 1316.31 418.94 1316.31 526.687 1300.27 c 1,40,41
 526.829 1329.83 526.829 1329.83 526.965 1357.89 c 128,-1,42
 527.101 1385.95 527.101 1385.95 546.415 1405.08 c 128,-1,43
 565.73 1424.2 565.73 1424.2 592.286 1424.07 c 128,-1,44
 618.842 1423.94 618.842 1423.94 637.971 1404.63 c 128,-1,45
 657.099 1385.32 657.099 1385.32 656.971 1358.76 c 2,46,-1
 656.545 1270.71 l 1,47,48
 854.116 1212.53 854.116 1212.53 1020.09 1087.14 c 0,49,0
 1071.96 1047.95 1071.96 1047.95 1032.77 996.094 c 128,-1,1
526.05 1168.66 m 1,50,51
 368.982 1196.97 368.982 1196.97 286.991 1132.53 c 0,52,53
 207.308 1069.9 207.308 1069.9 232.645 997.054 c 128,-1,54
 257.981 924.205 257.981 924.205 318.155 872.77 c 128,-1,55
 378.329 821.334 378.329 821.334 524.28 802.847 c 1,56,-1
 526.05 1168.66 l 1,50,51
650.364 -7.17285 m 1,57,58
 833.618 -7.87305 833.618 -7.87305 964.557 115.145 c 0,59,60
 1128.24 268.925 1128.24 268.925 1074.04 452.312 c 0,61,62
 1025.85 615.339 1025.85 615.339 798.38 649.826 c 0,63,64
 750.256 657.123 750.256 657.123 702.811 659.779 c 128,-1,65
 655.365 662.437 655.365 662.437 653.604 662.536 c 1,66,67
 651.983 327.682 651.983 327.682 650.364 -7.17285 c 1,57,58
EndSplineSet
EndChar

StartChar: percent
Encoding: 6 37 6
Width: 1237
GlyphClass: 2
Flags: MW
LayerCount: 2
Back
Fore
SplineSet
437.629 1266.42 m 1,0,1
 523.614 1328.3 523.614 1328.3 596.903 1115.31 c 1,2,-1
 941.922 1280.14 l 2,3,4
 1000.57 1308.16 1000.57 1308.16 1022.24 1262.81 c 128,-1,5
 1043.91 1217.45 1043.91 1217.45 1025.19 1187.25 c 2,6,-1
 464.149 282.059 l 1,7,-1
 669.141 440.827 l 2,8,9
 716.795 477.455 716.795 477.455 758.371 431.696 c 1,10,11
 781.059 441.3 781.059 441.3 856.761 415.833 c 0,12,13
 1066.05 345.429 1066.05 345.429 1118.47 217.581 c 128,-1,14
 1170.89 89.7339 1170.89 89.7339 1079.7 5.64528 c 128,-1,15
 988.507 -78.4434 988.507 -78.4434 857.762 -90.1678 c 128,-1,16
 727.017 -101.892 727.017 -101.892 653.33 -11.2464 c 128,-1,17
 579.644 79.3994 579.644 79.3994 595.744 219.549 c 1,18,-1
 258.87 -41.3662 l 2,19,20
 223.521 -68.7463 223.521 -68.7463 176.493 -39.9541 c 128,-1,21
 129.464 -11.162 129.464 -11.162 163.82 44.2656 c 2,22,-1
 797.868 1067.25 l 1,23,-1
 651.539 997.342 l 2,24,25
 633.594 988.62 633.594 988.62 616.737 983.108 c 1,26,27
 609.431 882.166 609.431 882.166 550.731 833.16 c 0,28,29
 393.888 702.22 393.888 702.22 218.158 786.895 c 0,30,31
 100.919 843.384 100.919 843.384 100.134 945.839 c 0,32,33
 98.798 1120.15 98.798 1120.15 335.65 1300.57 c 0,34,35
 387.36 1339.95 387.36 1339.95 426.745 1288.25 c 0,36,37
 433.963 1278.78 433.963 1278.78 437.629 1266.42 c 1,0,1
487.222 994.972 m 1,38,39
 411.494 1046.31 411.494 1046.31 410.021 1193.79 c 1,40,41
 126.354 975.435 126.354 975.435 274.589 904.008 c 0,42,43
 331.459 876.605 331.459 876.605 382.483 889.921 c 0,44,45
 483.083 916.174 483.083 916.174 487.222 994.972 c 1,38,39
751.139 315.573 m 1,46,47
 694.425 144.293 694.425 144.293 739.35 89.0288 c 128,-1,48
 784.275 33.7646 784.275 33.7646 858.575 40.4272 c 128,-1,49
 932.874 47.0898 932.874 47.0898 976.768 87.5631 c 128,-1,50
 1020.66 128.036 1020.66 128.036 1004.75 161.349 c 0,51,52
 966.309 241.823 966.309 241.823 762.972 310.226 c 0,53,54
 756.998 312.235 756.998 312.235 751.139 315.573 c 1,46,47
EndSplineSet
EndChar

StartChar: ampersand
Encoding: 7 38 7
Width: 1289
GlyphClass: 2
Flags: MW
LayerCount: 2
Back
Fore
SplineSet
1144.93 628.762 m 128,-1,1
 1206.03 606.555 1206.03 606.555 1183.82 545.465 c 0,2,3
 1128.21 392.497 1128.21 392.497 993.903 266.866 c 1,4,5
 1100.31 150.396 1100.31 150.396 1091.49 113.338 c 128,-1,6
 1082.66 76.2783 1082.66 76.2783 1043.67 52.293 c 128,-1,7
 1004.67 28.3066 1004.67 28.3066 971.82 81.71 c 128,-1,8
 938.967 135.113 938.967 135.113 893.111 184.401 c 1,9,10
 714.711 55.8047 714.711 55.8047 516.854 16.9775 c 128,-1,11
 318.998 -21.8496 318.998 -21.8496 208.194 76.7881 c 128,-1,12
 97.3906 175.426 97.3906 175.426 177.086 393.025 c 0,13,14
 210.414 481.219 210.414 481.219 267.97 543.373 c 128,-1,15
 325.524 605.526 325.524 605.526 327.319 607.464 c 1,16,17
 177.188 736.341 177.188 736.341 139.447 842.268 c 0,18,19
 63.9121 1054.27 63.9121 1054.27 133.015 1180.44 c 128,-1,20
 202.116 1306.61 202.116 1306.61 357.177 1324.58 c 128,-1,21
 512.237 1342.55 512.237 1342.55 646.283 1273.58 c 128,-1,22
 780.33 1204.61 780.33 1204.61 810.224 1081.94 c 0,23,24
 853.778 903.205 853.778 903.205 638.861 723.843 c 0,25,26
 579.732 674.496 579.732 674.496 524.125 621.663 c 1,27,28
 566.122 592.647 566.122 592.647 690.812 511.342 c 128,-1,29
 815.503 430.036 815.503 430.036 900.329 357.383 c 1,30,31
 1015.83 463.861 1015.83 463.861 1061.64 589.879 c 0,32,0
 1083.85 650.966 1083.85 650.966 1144.93 628.762 c 128,-1,1
796.035 275.068 m 1,33,34
 715.941 339.759 715.941 339.759 599.882 415.438 c 128,-1,35
 483.823 491.117 483.823 491.117 431.037 528.052 c 1,36,37
 324.419 414.535 324.419 414.535 287.255 314.038 c 128,-1,38
 250.091 213.54 250.091 213.54 303.675 165.839 c 128,-1,39
 357.258 118.139 357.258 118.139 503.938 146.922 c 128,-1,40
 650.617 175.706 650.617 175.706 796.035 275.068 c 1,33,34
418.554 700.536 m 1,41,42
 484.479 764.326 484.479 764.326 555.565 823.651 c 0,43,44
 708.299 951.117 708.299 951.117 688.188 1033.64 c 128,-1,45
 668.078 1116.17 668.078 1116.17 578 1162.51 c 128,-1,46
 487.923 1208.86 487.923 1208.86 385.886 1197.04 c 0,47,48
 226.27 1178.54 226.27 1178.54 229.729 1033 c 0,49,50
 232.58 912.979 232.58 912.979 290.881 835.971 c 128,-1,51
 349.181 758.961 349.181 758.961 418.554 700.536 c 1,41,42
EndSplineSet
EndChar

StartChar: quotesingle
Encoding: 8 39 8
Width: 368
GlyphClass: 2
Flags: MW
LayerCount: 2
Back
Fore
SplineSet
203.5 954 m 128,-1,1
 180 941 180 941 148.5 949.5 c 128,-1,2
 117 958 117 958 105 1006 c 0,3,4
 50 1234 50 1234 101 1335 c 0,5,6
 142 1416 142 1416 215 1375 c 0,7,8
 325 1315 325 1315 234 993 c 0,9,0
 227 967 227 967 203.5 954 c 128,-1,1
EndSplineSet
EndChar

StartChar: parenleft
Encoding: 9 40 9
Width: 721
GlyphClass: 2
Flags: MW
LayerCount: 2
Back
Fore
SplineSet
569.494 1369.3 m 0,0,1
 618.424 1326.52 618.424 1326.52 562.196 1262.21 c 0,2,3
 331.106 997.91 331.106 997.91 263.99 768.871 c 128,-1,4
 196.872 539.833 196.872 539.833 244.658 368.03 c 0,5,6
 336.265 38.6797 336.265 38.6797 600.939 -251.495 c 0,7,8
 644.748 -299.515 644.748 -299.515 596.723 -343.319 c 128,-1,9
 548.696 -387.123 548.696 -387.123 504.894 -339.104 c 0,10,11
 -218.983 454.463 -218.983 454.463 351.301 1208.88 c 0,12,13
 482.387 1382.29 482.387 1382.29 515.946 1384.53 c 128,-1,14
 549.506 1386.78 549.506 1386.78 569.494 1369.3 c 0,0,1
EndSplineSet
EndChar

StartChar: asterisk
Encoding: 11 42 11
Width: 1182
GlyphClass: 2
Flags: MW
LayerCount: 2
Back
Fore
SplineSet
258 598.5 m 128,-1,1
 239 617 239 617 239 644.5 c 128,-1,2
 239 672 239 672 258 691 c 2,3,-1
 486 919 l 1,4,-1
 137 1035 l 2,5,6
 112 1043 112 1043 99.5 1067.5 c 128,-1,7
 87 1092 87 1092 95.5 1117 c 128,-1,8
 104 1142 104 1142 128.5 1154.5 c 128,-1,9
 153 1167 153 1167 178 1158 c 2,10,-1
 524 1043 l 1,11,-1
 524 1353 l 2,12,13
 524 1386 524 1386 544.5 1406 c 128,-1,14
 565 1426 565 1426 592 1426 c 128,-1,15
 619 1426 619 1426 638 1407 c 128,-1,16
 657 1388 657 1388 657 1361 c 2,17,-1
 657 1051 l 1,18,-1
 1003 1166 l 2,19,20
 1028 1174 1028 1174 1052.5 1162 c 128,-1,21
 1077 1150 1077 1150 1085.5 1125 c 128,-1,22
 1094 1100 1094 1100 1081.5 1075.5 c 128,-1,23
 1069 1051 1069 1051 1044 1043 c 2,24,-1
 691 925 l 1,25,-1
 926 691 l 2,26,27
 945 672 945 672 944.5 644.5 c 128,-1,28
 944 617 944 617 925.5 598.5 c 128,-1,29
 907 580 907 580 880 580 c 128,-1,30
 853 580 853 580 834 599 c 2,31,-1
 592 841 l 1,32,-1
 350 599 l 2,33,34
 331 580 331 580 304 580 c 128,-1,0
 277 580 277 580 258 598.5 c 128,-1,1
EndSplineSet
EndChar

StartChar: plus
Encoding: 12 43 12
Width: 1408
GlyphClass: 2
Flags: MW
LayerCount: 2
Back
Fore
SplineSet
1308.01 636.405 m 128,-1,1
 1308.01 609.848 1308.01 609.848 1288.8 590.624 c 128,-1,2
 1269.58 571.404 1269.58 571.404 1243.01 571.405 c 2,3,-1
 805.04 571.405 l 1,4,-1
 805.04 -8.32324 l 2,5,6
 805.039 -34.8789 805.039 -34.8789 785.818 -54.1016 c 128,-1,7
 766.601 -73.3232 766.601 -73.3232 740.04 -73.3232 c 128,-1,8
 713.479 -73.3232 713.479 -73.3232 694.259 -54.1016 c 128,-1,9
 675.04 -34.8789 675.04 -34.8789 675.04 -8.32324 c 2,10,-1
 675.04 571.405 l 1,11,-1
 165 571.405 l 2,12,13
 138.444 571.405 138.444 571.405 119.222 590.624 c 128,-1,14
 100 609.844 100 609.844 100 636.405 c 128,-1,15
 100 662.966 100 662.966 119.222 682.184 c 128,-1,16
 138.444 701.404 138.444 701.404 165 701.405 c 2,17,-1
 675.04 701.405 l 1,18,-1
 675.04 1203.68 l 2,19,20
 675.039 1230.25 675.039 1230.25 694.259 1249.46 c 128,-1,21
 713.482 1268.68 713.482 1268.68 740.04 1268.68 c 128,-1,22
 766.596 1268.68 766.596 1268.68 785.818 1249.46 c 128,-1,23
 805.04 1230.25 805.04 1230.25 805.04 1203.68 c 2,24,-1
 805.04 701.405 l 1,25,-1
 1243.01 701.405 l 2,26,27
 1269.58 701.405 1269.58 701.405 1288.8 682.184 c 128,-1,0
 1308.01 662.961 1308.01 662.961 1308.01 636.405 c 128,-1,1
EndSplineSet
EndChar

StartChar: comma
Encoding: 13 44 13
Width: 445
GlyphClass: 2
Flags: MW
LayerCount: 2
Back
Fore
SplineSet
234 -364 m 1,0,1
 222 -384 222 -384 200 -392 c 128,-1,2
 178 -400 178 -400 154.5 -392 c 128,-1,3
 131 -384 131 -384 119 -359.5 c 128,-1,4
 107 -335 107 -335 119 -303 c 0,5,6
 143 -233 143 -233 136 -188 c 0,7,8
 123 -105 123 -105 111 -67 c 0,9,10
 85 18 85 18 118 82 c 0,11,12
 136 117 136 117 168.5 140.5 c 128,-1,13
 201 164 201 164 243 157 c 0,14,15
 321 144 321 144 338 54.5 c 128,-1,16
 355 -35 355 -35 323 -148.5 c 128,-1,17
 291 -262 291 -262 267 -309 c 128,-1,18
 243 -356 243 -356 234 -364 c 1,0,1
EndSplineSet
EndChar

StartChar: hyphen
Encoding: 14 45 14
Width: 783
GlyphClass: 2
Flags: MW
LayerCount: 2
Back
Fore
SplineSet
107 490 m 128,-1,1
 107 517 107 517 126 536 c 128,-1,2
 145 555 145 555 172 555 c 2,3,-1
 613 555 l 2,4,5
 640 555 640 555 659 536 c 128,-1,6
 678 517 678 517 678 490 c 128,-1,7
 678 463 678 463 659 444 c 128,-1,8
 640 425 640 425 613 425 c 2,9,-1
 172 425 l 2,10,11
 145 425 145 425 126 444 c 128,-1,0
 107 463 107 463 107 490 c 128,-1,1
EndSplineSet
EndChar

StartChar: period
Encoding: 15 46 15
Width: 422
GlyphClass: 2
Flags: MW
LayerCount: 2
Back
Fore
SplineSet
100 89 m 128,-1,1
 99 115 99 115 107.5 150.5 c 128,-1,2
 116 186 116 186 145.5 228.5 c 128,-1,3
 175 271 175 271 207 266 c 0,4,5
 258 258 258 258 294 184 c 0,6,7
 330 110 330 110 319 66.5 c 128,-1,8
 308 23 308 23 281 1.5 c 128,-1,9
 254 -20 254 -20 218 -21.5 c 128,-1,10
 182 -23 182 -23 155 -6 c 128,-1,11
 128 11 128 11 114.5 37 c 128,-1,0
 101 63 101 63 100 89 c 128,-1,1
EndSplineSet
EndChar

StartChar: slash
Encoding: 16 47 16
Width: 1039
GlyphClass: 2
Flags: MW
LayerCount: 2
Back
Fore
SplineSet
901.24 1398 m 128,-1,1
 925.24 1387 925.24 1387 934.74 1361.5 c 0,2,3
 944.56 1335.16 944.56 1335.16 933.24 1312 c 2,4,-1
 223.638 -140 l 2,5,6
 211.757 -164.312 211.757 -164.312 187.138 -173 c 0,7,8
 161.638 -182 161.638 -182 137.638 -170.5 c 128,-1,9
 113.638 -159 113.638 -159 104.138 -133.5 c 0,10,11
 94.7588 -108.325 94.7588 -108.325 106.638 -84 c 2,12,-1
 815.24 1367 l 2,13,14
 827.108 1391.3 827.108 1391.3 851.74 1400 c 0,15,0
 877.24 1409 877.24 1409 901.24 1398 c 128,-1,1
EndSplineSet
EndChar

StartChar: zero
Encoding: 17 48 17
Width: 1144
GlyphClass: 2
Flags: MW
LayerCount: 2
Back
Fore
SplineSet
656 1225 m 1,0,1
 838 1192 838 1192 951.5 954.5 c 128,-1,2
 1065 717 1065 717 1044.5 496 c 128,-1,3
 1024 275 1024 275 947 183 c 0,4,5
 811 19 811 19 609 18 c 0,6,7
 319 16 319 16 178 325 c 0,8,9
 87 527 87 527 102 775 c 128,-1,10
 117 1023 117 1023 214 1151 c 0,11,12
 387 1380 387 1380 632 1345 c 0,13,14
 658 1341 658 1341 675 1320 c 0,15,16
 717 1263 717 1263 656 1225 c 1,0,1
585 1220 m 1,17,18
 436 1230 436 1230 340.5 1103 c 128,-1,19
 245 976 245 976 232 763.5 c 128,-1,20
 219 551 219 551 296 382 c 0,21,22
 403 146 403 146 605 147.5 c 128,-1,23
 807 149 807 149 879 333 c 128,-1,24
 951 517 951 517 887 755.5 c 128,-1,25
 823 994 823 994 692 1074 c 0,26,27
 654 1097 654 1097 622 1099 c 0,28,29
 551 1103 551 1103 554 1167 c 0,30,31
 556 1202 556 1202 585 1220 c 1,17,18
EndSplineSet
EndChar

StartChar: one
Encoding: 18 49 18
Width: 476
GlyphClass: 2
Flags: MW
LayerCount: 2
Back
Fore
SplineSet
102.45 1288.66 m 128,-1,1
 95.3662 1314.25 95.3662 1314.25 108.762 1337.91 c 0,2,3
 126.629 1369.46 126.629 1369.46 160.81 1372.28 c 128,-1,4
 194.99 1375.1 194.99 1375.1 221.692 1368.38 c 128,-1,5
 248.394 1361.66 248.394 1361.66 273.597 1338.61 c 128,-1,6
 298.801 1315.57 298.801 1315.57 314.178 1286.08 c 128,-1,7
 329.555 1256.59 329.555 1256.59 340.406 1211.73 c 0,8,9
 357.288 1141.96 357.288 1141.96 365.903 1029.99 c 0,10,11
 390.34 712.406 390.34 712.406 357.787 379.179 c 2,12,-1
 325.787 51.6787 l 2,13,14
 323.205 25.249 323.205 25.249 302.207 7.9873 c 128,-1,15
 281.21 -9.27539 281.21 -9.27539 254.774 -6.69238 c 128,-1,16
 228.338 -4.10938 228.338 -4.10938 211.079 16.8916 c 128,-1,17
 193.82 37.8916 193.82 37.8916 196.403 64.3213 c 2,18,-1
 228.403 391.821 l 2,19,20
 259.852 713.639 259.852 713.639 236.286 1020.01 c 0,21,22
 226.573 1146.31 226.573 1146.31 208.499 1191.52 c 0,23,24
 187.243 1244.69 187.243 1244.69 182.435 1243.36 c 0,25,26
 156.834 1236.27 156.834 1236.27 133.185 1249.67 c 128,-1,0
 109.534 1263.07 109.534 1263.07 102.45 1288.66 c 128,-1,1
EndSplineSet
EndChar

StartChar: two
Encoding: 19 50 19
Width: 1331
GlyphClass: 2
Flags: MW
LayerCount: 2
Back
Fore
SplineSet
122.5 1032 m 128,-1,1
 73 1074 73 1074 115 1123 c 0,2,3
 314 1358 314 1358 514.5 1374 c 128,-1,4
 715 1390 715 1390 834.5 1282 c 128,-1,5
 954 1174 954 1174 965.5 1034.5 c 128,-1,6
 977 895 977 895 906 779 c 0,7,8
 744 516 744 516 439 185 c 1,9,10
 596 216 596 216 811.5 182.5 c 128,-1,11
 1027 149 1027 149 1117.5 179 c 128,-1,12
 1208 209 1208 209 1228 147 c 128,-1,13
 1248 85 1248 85 1183 64 c 0,14,15
 1058 23 1058 23 957 33.5 c 128,-1,16
 856 44 856 44 673.5 72.5 c 128,-1,17
 491 101 491 101 270 -3 c 0,18,19
 193 -40 193 -40 167 -14 c 0,20,21
 115 40 115 40 161 85 c 2,22,-1
 203 126 l 2,23,24
 559 474 559 474 798 849 c 1,25,26
 844 927 844 927 836.5 1019.5 c 128,-1,27
 829 1112 829 1112 749 1184 c 128,-1,28
 669 1256 669 1256 524 1244.5 c 128,-1,29
 379 1233 379 1233 214 1039 c 0,30,0
 172 990 172 990 122.5 1032 c 128,-1,1
EndSplineSet
EndChar

StartChar: three
Encoding: 20 51 20
Width: 1181
GlyphClass: 2
Flags: MW
LayerCount: 2
Back
Fore
SplineSet
147.5 1021.5 m 132,-1,1
 129 1041 129 1041 129.5 1068 c 132,-1,2
 130 1095 130 1095 149 1114 c 4,3,4
 403 1358 403 1358 629 1377 c 4,5,6
 805 1392 805 1392 902 1275 c 132,-1,7
 999 1158 999 1158 971 985 c 132,-1,8
 943 812 943 812 795 656 c 5,9,10
 852 645 852 645 903 613 c 4,11,12
 1017 543 1017 543 1062.5 404 c 132,-1,13
 1108 265 1108 265 1047 146 c 4,14,15
 971 -2 971 -2 775 -15 c 4,16,17
 523 -33 523 -33 132 193 c 4,18,19
 109 206 109 206 102 232.5 c 132,-1,20
 95 259 95 259 108.5 282 c 132,-1,21
 122 305 122 305 148.5 312 c 132,-1,22
 175 319 175 319 198 305 c 4,23,24
 554 99 554 99 766 114 c 4,25,26
 889 123 889 123 928.5 199.5 c 132,-1,27
 968 276 968 276 938.5 366.5 c 132,-1,28
 909 457 909 457 835 502 c 4,29,30
 737 562 737 562 603 499 c 4,31,32
 581 488 581 488 557.5 495 c 132,-1,33
 534 502 534 502 520 523 c 132,-1,34
 506 544 506 544 511.5 570.5 c 132,-1,35
 517 597 517 597 539 612 c 4,36,37
 611 659 611 659 667 712 c 4,38,39
 818 854 818 854 843 1008 c 4,40,41
 861 1120 861 1120 805 1189 c 4,42,43
 748 1256 748 1256 640 1247 c 4,44,45
 460 1231 460 1231 239 1020 c 4,46,47
 220 1002 220 1002 193 1002 c 132,-1,0
 166 1002 166 1002 147.5 1021.5 c 132,-1,1
EndSplineSet
EndChar

StartChar: four
Encoding: 21 52 21
Width: 1496
GlyphClass: 2
Flags: MW
LayerCount: 2
Back
Fore
SplineSet
757.5 1104 m 128,-1,1
 784 1104 784 1104 803 1085 c 128,-1,2
 822 1066 822 1066 822 1039 c 2,3,-1
 822 723 l 1,4,5
 1213 771 1213 771 1282 744 c 0,6,7
 1393 701 1393 701 1396 624 c 0,8,9
 1397 597 1397 597 1378.5 577 c 128,-1,10
 1360 557 1360 557 1335 556 c 0,11,12
 1280 554 1280 554 1268 608 c 1,13,14
 1200 639 1200 639 822 592 c 1,15,-1
 822 89 l 2,16,17
 822 62 822 62 803 43 c 128,-1,18
 784 24 784 24 757.5 24 c 128,-1,19
 731 24 731 24 711.5 43.5 c 128,-1,20
 692 63 692 63 692 89 c 2,21,-1
 692 575 l 1,22,23
 685 574 685 574 519 552.5 c 128,-1,24
 353 531 353 531 287 538 c 0,25,26
 200 548 200 548 166 561 c 0,27,28
 91 592 91 592 98.5 655.5 c 128,-1,29
 106 719 106 719 152 773 c 0,30,31
 348 1003 348 1003 399.5 1070.5 c 128,-1,32
 451 1138 451 1138 572 1317 c 0,33,34
 608 1371 608 1371 646 1346 c 0,35,36
 716 1299 716 1299 680 1245 c 0,37,38
 557 1062 557 1062 502.5 991.5 c 128,-1,39
 448 921 448 921 346 801.5 c 128,-1,40
 244 682 244 682 240 675 c 1,41,42
 324 658 324 658 501 681.5 c 128,-1,43
 678 705 678 705 692 706 c 1,44,-1
 692 1039 l 2,45,46
 692 1066 692 1066 711.5 1085 c 128,-1,0
 731 1104 731 1104 757.5 1104 c 128,-1,1
EndSplineSet
EndChar

StartChar: five
Encoding: 22 53 22
Width: 1306
GlyphClass: 2
Flags: MW
LayerCount: 2
Back
Fore
SplineSet
1203 1381.5 m 132,-1,1
 1212 1356 1212 1356 1200 1331.5 c 132,-1,2
 1188 1307 1188 1307 1163 1299 c 4,3,4
 975 1234 975 1234 703 1248 c 4,5,6
 596 1254 596 1254 450.5 1264.5 c 132,-1,7
 305 1275 305 1275 255 1253 c 5,8,9
 241 1226 241 1226 231 1096 c 132,-1,10
 221 966 221 966 246 763 c 5,11,12
 633 932 633 932 870 864 c 4,13,14
 1044 814 1044 814 1095.5 661.5 c 132,-1,15
 1147 509 1147 509 1074 344.5 c 132,-1,16
 1001 180 1001 180 845 86 c 4,17,18
 625 -48 625 -48 347 26 c 4,19,20
 254 50 254 50 160 98 c 4,21,22
 136 110 136 110 127.5 136 c 132,-1,23
 119 162 119 162 131 185.5 c 132,-1,24
 143 209 143 209 169 217.5 c 132,-1,25
 195 226 195 226 219 214 c 4,26,27
 538 52 538 52 778 197 c 4,28,29
 899 270 899 270 953.5 393 c 132,-1,30
 1008 516 1008 516 975.5 612 c 132,-1,31
 943 708 943 708 834 739 c 4,32,33
 621 800 621 800 224 610 c 4,34,35
 191 594 191 594 164 611.5 c 132,-1,36
 137 629 137 629 132 655 c 4,37,38
 115 738 115 738 104 893 c 132,-1,39
 93 1048 93 1048 104.5 1158 c 132,-1,40
 116 1268 116 1268 132.5 1304.5 c 132,-1,41
 149 1341 149 1341 190 1366 c 4,42,43
 259 1408 259 1408 521.5 1388.5 c 132,-1,44
 784 1369 784 1369 909.5 1380.5 c 132,-1,45
 1035 1392 1035 1392 1120 1421 c 4,46,47
 1145 1430 1145 1430 1169.5 1418.5 c 132,-1,0
 1194 1407 1194 1407 1203 1381.5 c 132,-1,1
EndSplineSet
EndChar

StartChar: six
Encoding: 23 54 23
Width: 1177
GlyphClass: 2
Flags: MW
LayerCount: 2
Back
Fore
SplineSet
663 1314 m 0,0,1
 697 1259 697 1259 635 1221 c 0,2,3
 435 1098 435 1098 305 817 c 0,4,5
 234 664 234 664 231 540 c 0,6,7
 224 150 224 150 618 156 c 0,8,9
 828 159 828 159 894.5 243 c 128,-1,10
 961 327 961 327 942 412 c 128,-1,11
 923 497 923 497 844 552.5 c 128,-1,12
 765 608 765 608 655.5 574.5 c 128,-1,13
 546 541 546 541 472 470.5 c 128,-1,14
 398 400 398 400 353 447 c 128,-1,15
 308 494 308 494 355 539 c 0,16,17
 479 657 479 657 633 704.5 c 128,-1,18
 787 752 787 752 913 663 c 128,-1,19
 1039 574 1039 574 1070.5 434.5 c 128,-1,20
 1102 295 1102 295 997 162 c 128,-1,21
 892 29 892 29 620 26 c 0,22,23
 245 21 245 21 132 308 c 0,24,25
 75 452 75 452 108 613 c 0,26,27
 184 977 184 977 396.5 1189.5 c 128,-1,28
 609 1402 609 1402 663 1314 c 0,0,1
EndSplineSet
EndChar

StartChar: seven
Encoding: 24 55 24
Width: 1200
GlyphClass: 2
Flags: MW
LayerCount: 2
Back
Fore
SplineSet
102.5 1205 m 128,-1,1
 93 1230 93 1230 104 1255 c 128,-1,2
 115 1280 115 1280 140 1289 c 0,3,4
 631 1474 631 1474 857 1416 c 0,5,6
 1148 1342 1148 1342 1088 911 c 0,7,8
 1070 785 1070 785 993.5 490 c 128,-1,9
 917 195 917 195 904 65 c 0,10,11
 901 39 901 39 880.5 21.5 c 128,-1,12
 860 4 860 4 833.5 6.5 c 128,-1,13
 807 9 807 9 789.5 30 c 128,-1,14
 772 51 772 51 775 77 c 0,15,16
 789 217 789 217 865.5 513.5 c 128,-1,17
 942 810 942 810 957 913 c 0,18,19
 994 1168 994 1168 910 1247 c 0,20,21
 847 1306 847 1306 667 1293.5 c 128,-1,22
 487 1281 487 1281 186 1167 c 0,23,24
 161 1158 161 1158 136.5 1169 c 128,-1,0
 112 1180 112 1180 102.5 1205 c 128,-1,1
EndSplineSet
EndChar

StartChar: eight
Encoding: 25 56 25
Width: 1189
GlyphClass: 2
Flags: MW
LayerCount: 2
Back
Fore
SplineSet
820.5 1001.5 m 128,-1,1
 759 1023 759 1023 775 1070.5 c 128,-1,2
 791 1118 791 1118 718.5 1157 c 128,-1,3
 646 1196 646 1196 466 1193.5 c 128,-1,4
 286 1191 286 1191 243 1106.5 c 128,-1,5
 200 1022 200 1022 307 883 c 1,6,7
 417 795 417 795 528 729 c 1,8,9
 590 776 590 776 729.5 873 c 128,-1,10
 869 970 869 970 918 1022 c 128,-1,11
 967 1074 967 1074 1014.5 1029.5 c 128,-1,12
 1062 985 1062 985 1008 928 c 128,-1,13
 954 871 954 871 822.5 779.5 c 128,-1,14
 691 688 691 688 656 662 c 1,15,16
 679 651 679 651 787 602.5 c 128,-1,17
 895 554 895 554 967 472.5 c 128,-1,18
 1039 391 1039 391 1071.5 325 c 128,-1,19
 1104 259 1104 259 1081 185.5 c 128,-1,20
 1058 112 1058 112 959.5 51 c 128,-1,21
 861 -10 861 -10 657 -12 c 128,-1,22
 453 -14 453 -14 344 44 c 0,23,24
 -32 246 -32 246 420 643 c 1,25,26
 243 755 243 755 206 802 c 0,27,28
 114 918 114 918 100.5 1036.5 c 128,-1,29
 87 1155 87 1155 196.5 1238.5 c 128,-1,30
 306 1322 306 1322 492 1324 c 128,-1,31
 678 1326 678 1326 771 1276 c 0,32,33
 951 1179 951 1179 903 1042 c 0,34,0
 882 980 882 980 820.5 1001.5 c 128,-1,1
540 574 m 1,35,36
 343 414 343 414 310 292 c 0,37,38
 291 221 291 221 388 168.5 c 128,-1,39
 485 116 485 116 654 117.5 c 128,-1,40
 823 119 823 119 888.5 159.5 c 128,-1,41
 954 200 954 200 961 221.5 c 128,-1,42
 968 243 968 243 941 290 c 0,43,44
 867 418 867 418 741 480 c 0,45,46
 701 500 701 500 648.5 523 c 128,-1,47
 596 546 596 546 540 574 c 1,35,36
EndSplineSet
EndChar

StartChar: nine
Encoding: 26 57 26
Width: 1114
GlyphClass: 2
Flags: MW
LayerCount: 2
Back
Fore
SplineSet
1008 1175 m 128,-1,1
 996 1151 996 1151 970.5 1142.5 c 128,-1,2
 945 1134 945 1134 921 1145 c 0,3,4
 606 1299 606 1299 413 1215 c 0,5,6
 302 1167 302 1167 258 1056.5 c 128,-1,7
 214 946 214 946 238.5 853.5 c 128,-1,8
 263 761 263 761 321 736 c 0,9,10
 411 697 411 697 557 810 c 0,11,12
 669 897 669 897 793 1065 c 0,13,14
 809 1086 809 1086 836 1090 c 128,-1,15
 863 1094 863 1094 883.5 1079 c 128,-1,16
 904 1064 904 1064 909 1040 c 0,17,18
 979 725 979 725 897 29 c 0,19,20
 894 3 894 3 872.5 -14 c 128,-1,21
 851 -31 851 -31 824.5 -28 c 128,-1,22
 798 -25 798 -25 781 -3.5 c 128,-1,23
 764 18 764 18 767 44 c 0,24,25
 827 550 827 550 802 868 c 1,26,27
 717 771 717 771 637 708 c 0,28,29
 430 547 430 547 269 617 c 0,30,31
 154 667 154 667 115.5 810.5 c 128,-1,32
 77 954 77 954 139.5 1109.5 c 128,-1,33
 202 1265 202 1265 362 1335 c 0,34,35
 610 1443 610 1443 978 1262 c 0,36,37
 1002 1250 1002 1250 1011 1224.5 c 128,-1,0
 1020 1199 1020 1199 1008 1175 c 128,-1,1
EndSplineSet
EndChar

StartChar: less
Encoding: 29 60 29
Width: 1250
GlyphClass: 2
Flags: MW
LayerCount: 2
Back
Fore
SplineSet
1143.61 929.681 m 128,-1,1
 1153.19 904.913 1153.19 904.913 1142.2 880.053 c 128,-1,2
 1131.2 855.192 1131.2 855.192 1106.43 845.61 c 0,3,4
 972.966 793.99 972.966 793.99 748.777 709.946 c 0,5,6
 396.357 577.832 396.357 577.832 306.587 532.578 c 0,7,8
 260.781 509.487 260.781 509.487 238.35 490.406 c 1,9,10
 264.058 469.09 264.058 469.09 320.443 442.796 c 0,11,12
 422.212 395.338 422.212 395.338 820.276 256.479 c 2,13,-1
 824.433 255.028 l 2,14,15
 1004.48 192.221 1004.48 192.221 1107.56 155.676 c 0,16,17
 1132.59 146.801 1132.59 146.801 1144.28 122.265 c 128,-1,18
 1155.97 97.7275 1155.97 97.7275 1147.1 72.6914 c 128,-1,19
 1138.22 47.6562 1138.22 47.6562 1113.68 35.9658 c 128,-1,20
 1089.14 24.2744 1089.14 24.2744 1064.11 33.1484 c 0,21,22
 961.275 69.6104 961.275 69.6104 781.614 132.282 c 2,23,-1
 777.46 133.731 l 2,24,25
 373.2 274.752 373.2 274.752 265.501 324.977 c 0,26,27
 234.357 339.499 234.357 339.499 216.972 348.322 c 128,-1,28
 199.585 357.146 199.585 357.146 174.09 373.525 c 128,-1,29
 148.595 389.906 148.595 389.906 135.057 404.842 c 128,-1,30
 121.518 419.778 121.518 419.778 110.965 441.729 c 128,-1,31
 100.411 463.682 100.411 463.682 100.016 488.445 c 0,32,33
 99.6328 512.361 99.6328 512.361 108.771 533.791 c 128,-1,34
 117.91 555.221 117.91 555.221 130.319 570.058 c 128,-1,35
 142.729 584.895 142.729 584.895 165.491 600.913 c 128,-1,36
 188.254 616.931 188.254 616.931 204.463 625.892 c 128,-1,37
 220.673 634.853 220.673 634.853 248.066 648.661 c 0,38,39
 344.13 697.087 344.13 697.087 703.144 831.673 c 0,40,41
 926.705 915.481 926.705 915.481 1059.54 966.858 c 0,42,43
 1084.31 976.44 1084.31 976.44 1109.17 965.444 c 128,-1,0
 1134.03 954.448 1134.03 954.448 1143.61 929.681 c 128,-1,1
EndSplineSet
EndChar

StartChar: question
Encoding: 32 63 32
Width: 984
GlyphClass: 2
Flags: MW
LayerCount: 2
Back
Fore
SplineSet
189.457 971.331 m 132,-1,1
 163.481 965.809 163.481 965.809 140.684 980.611 c 132,-1,2
 117.885 995.413 117.885 995.413 112.361 1021.39 c 4,3,4
 71.3398 1214.37 71.3398 1214.37 166.445 1315.48 c 4,5,6
 303.65 1461.35 303.65 1461.35 573.631 1374.45 c 132,-1,7
 843.61 1287.55 843.61 1287.55 879.561 1142.34 c 4,8,9
 911.987 1011.37 911.987 1011.37 687.318 827.07 c 4,10,11
 588.19 745.754 588.19 745.754 546.836 684.523 c 132,-1,12
 505.481 623.292 505.481 623.292 506.507 555.063 c 4,13,14
 508.188 443.062 508.188 443.062 576.859 352.64 c 4,15,16
 592.922 331.495 592.922 331.495 589.242 304.562 c 132,-1,17
 585.562 277.627 585.562 277.627 564.41 261.562 c 132,-1,18
 543.254 245.498 543.254 245.498 516.324 249.182 c 132,-1,19
 489.394 252.864 489.394 252.864 473.333 274.013 c 4,20,21
 378.849 398.424 378.849 398.424 376.521 553.108 c 4,22,23
 374.88 662.188 374.88 662.188 450.375 773.969 c 4,24,25
 491.076 834.233 491.076 834.233 591.074 916.264 c 132,-1,26
 691.072 998.294 691.072 998.294 740.601 1066.51 c 5,27,28
 763.39 1092.7 763.39 1092.7 758.199 1113.85 c 4,29,30
 750.111 1146.79 750.111 1146.79 678.086 1187.11 c 132,-1,31
 606.06 1227.44 606.06 1227.44 528.646 1252.36 c 4,32,33
 342.04 1312.42 342.04 1312.42 261.141 1226.41 c 4,34,35
 212.644 1174.85 212.644 1174.85 239.521 1048.43 c 4,36,37
 245.044 1022.44 245.044 1022.44 230.238 999.648 c 132,-1,0
 215.433 976.854 215.433 976.854 189.457 971.331 c 132,-1,1
412.214 1.85547 m 132,-1,39
 412.214 56.9854 412.214 56.9854 443.065 96 c 132,-1,40
 473.917 135.016 473.917 135.016 517.509 135.016 c 132,-1,41
 561.101 135.016 561.101 135.016 591.953 96 c 132,-1,42
 622.805 56.9854 622.805 56.9854 622.805 1.85547 c 132,-1,43
 622.805 -53.2734 622.805 -53.2734 591.952 -92.2881 c 132,-1,44
 561.101 -131.304 561.101 -131.304 517.509 -131.304 c 132,-1,45
 473.917 -131.304 473.917 -131.304 443.065 -92.2881 c 132,-1,38
 412.214 -53.2734 412.214 -53.2734 412.214 1.85547 c 132,-1,39
EndSplineSet
EndChar

StartChar: at
Encoding: 33 64 33
Width: 1555
GlyphClass: 2
Flags: MW
LayerCount: 2
Back
Fore
SplineSet
987.229 581.285 m 0,0,1
 1012.78 553.33 1012.78 553.33 1043.53 486.083 c 128,-1,2
 1074.27 418.836 1074.27 418.836 1052.64 330.003 c 0,3,4
 1050.95 323.04 1050.95 323.04 1054.44 272.545 c 128,-1,5
 1057.93 222.051 1057.93 222.051 1080.39 166.157 c 128,-1,6
 1102.86 110.265 1102.86 110.265 1130.69 93.8438 c 1,7,8
 1157.45 70.916 1157.45 70.916 1216.33 115.328 c 128,-1,9
 1275.21 159.74 1275.21 159.74 1302.79 253.622 c 0,10,11
 1352.89 424.174 1352.89 424.174 1289.81 586.895 c 0,12,13
 1212.56 786.189 1212.56 786.189 956.877 844.817 c 0,14,15
 451.107 960.793 451.107 960.793 287.322 572.228 c 0,16,17
 250.593 485.09 250.593 485.09 234.312 375.877 c 0,18,19
 234.03 373.99 234.03 373.99 230.211 355.771 c 128,-1,20
 226.392 337.554 226.392 337.554 233.187 267.869 c 0,21,22
 253.438 60.1748 253.438 60.1748 382.959 -78.4238 c 0,23,24
 531.847 -237.745 531.847 -237.745 802.705 -217.462 c 0,25,26
 829.187 -215.479 829.187 -215.479 849.791 -233.209 c 128,-1,27
 870.395 -250.939 870.395 -250.939 872.378 -277.427 c 128,-1,28
 874.36 -303.915 874.36 -303.915 856.627 -324.516 c 128,-1,29
 838.895 -345.115 838.895 -345.115 812.412 -347.099 c 0,30,31
 640.39 -359.981 640.39 -359.981 507.818 -310.274 c 128,-1,32
 375.246 -260.567 375.246 -260.567 287.979 -167.186 c 0,33,34
 128.335 3.64258 128.335 3.64258 103.801 255.253 c 0,35,36
 95.2266 343.183 95.2266 343.183 105.996 396.806 c 1,37,38
 124.818 521.393 124.818 521.393 167.529 622.723 c 0,39,40
 269.552 864.762 269.552 864.762 482.923 951.353 c 128,-1,41
 696.294 1037.94 696.294 1037.94 1002.57 967.715 c 128,-1,42
 1308.84 897.484 1308.84 897.484 1411.02 633.879 c 0,43,44
 1490.08 429.944 1490.08 429.944 1427.52 216.987 c 0,45,46
 1387.82 81.8467 1387.82 81.8467 1282.05 2.06738 c 128,-1,47
 1176.29 -77.7119 1176.29 -77.7119 1064.64 -18.123 c 1,48,49
 998.084 21.1406 998.084 21.1406 961.688 111.028 c 1,50,51
 876.807 -19.249 876.807 -19.249 763.511 -35.7061 c 128,-1,52
 650.215 -52.1631 650.215 -52.1631 549.069 -2.51172 c 128,-1,53
 447.924 47.1396 447.924 47.1396 416.087 162.265 c 128,-1,54
 384.249 277.39 384.249 277.39 415.447 397.891 c 128,-1,55
 446.646 518.392 446.646 518.392 550.615 599.569 c 128,-1,56
 654.586 680.746 654.586 680.746 826.934 659.657 c 0,57,58
 926.755 647.443 926.755 647.443 987.229 581.285 c 0,0,1
925.979 340.608 m 128,-1,60
 926.968 343.151 926.968 343.151 926.245 348.822 c 128,-1,61
 925.522 354.494 925.522 354.494 929.562 384.179 c 128,-1,62
 933.601 413.863 933.601 413.863 918.323 447.281 c 128,-1,63
 903.046 480.699 903.046 480.699 883.144 502.472 c 128,-1,64
 863.241 524.245 863.241 524.245 811.145 530.62 c 0,65,66
 692.193 545.175 692.193 545.175 626.814 494.132 c 128,-1,67
 561.436 443.088 561.436 443.088 540.129 360.792 c 128,-1,68
 518.822 278.497 518.822 278.497 538.151 208.604 c 128,-1,69
 557.48 138.71 557.48 138.71 600.306 117.589 c 1,70,71
 682.471 80.7939 682.471 80.7939 732.489 88.168 c 0,72,73
 844.053 104.615 844.053 104.615 924.841 337.629 c 0,74,59
 924.992 338.066 924.992 338.066 925.979 340.608 c 128,-1,60
EndSplineSet
EndChar

StartChar: braceleft
Encoding: 34 123 34
Width: 1096
GlyphClass: 2
Flags: MW
LayerCount: 2
Back
Fore
SplineSet
408.721 501.744 m 1,0,1
 544.085 415.084 544.085 415.084 557.882 218.822 c 1,2,3
 563.919 170.203 563.919 170.203 554.931 82.9686 c 128,-1,4
 545.943 -4.26562 545.943 -4.26562 544.391 -22.6025 c 0,5,6
 532.008 -168.765 532.008 -168.765 554.408 -244.003 c 0,7,8
 595.876 -383.29 595.876 -383.29 685.352 -432.426 c 0,9,10
 735.076 -459.732 735.076 -459.732 791.773 -457.821 c 128,-1,11
 848.472 -455.91 848.472 -455.91 883.538 -433.453 c 128,-1,12
 918.604 -410.995 918.604 -410.995 945.158 -416.813 c 128,-1,13
 971.711 -422.633 971.711 -422.633 986.036 -445.001 c 128,-1,14
 1000.36 -467.374 1000.36 -467.374 994.537 -493.922 c 128,-1,15
 988.715 -520.471 988.715 -520.471 966.352 -534.793 c 0,16,17
 888.527 -584.634 888.527 -584.634 796.153 -587.747 c 128,-1,18
 703.779 -590.861 703.779 -590.861 628.75 -549.658 c 0,19,20
 380.81 -413.497 380.81 -413.497 414.854 -11.6279 c 0,21,22
 416.507 7.88477 416.507 7.88477 424.934 89.6819 c 128,-1,23
 433.361 171.479 433.361 171.479 430.922 188.492 c 128,-1,24
 428.482 205.506 428.482 205.506 426.659 233.164 c 128,-1,25
 424.835 260.822 424.835 260.822 408.745 302.987 c 0,26,27
 371.97 399.359 371.97 399.359 280.051 413.768 c 1,28,29
 222.98 393.276 222.98 393.276 179.412 395.041 c 128,-1,30
 135.844 396.806 135.844 396.806 117.414 416.791 c 128,-1,31
 98.9844 436.776 98.9844 436.776 100.33 469.997 c 128,-1,32
 101.675 503.219 101.675 503.219 138.015 519.809 c 0,33,34
 195.781 546.18 195.781 546.18 257.853 545.698 c 1,35,36
 336.136 586.378 336.136 586.378 353.197 676.327 c 0,37,38
 361.186 718.447 361.186 718.447 353.542 759.622 c 128,-1,39
 345.899 800.797 345.899 800.797 304.068 894.469 c 128,-1,40
 262.236 988.141 262.236 988.141 252.176 1057.25 c 128,-1,41
 242.115 1126.36 242.115 1126.36 266.059 1202.49 c 128,-1,42
 290.002 1278.62 290.002 1278.62 345.778 1334.96 c 128,-1,43
 401.554 1391.3 401.554 1391.3 479.175 1414.25 c 128,-1,44
 556.797 1437.21 556.797 1437.21 636.743 1417.45 c 128,-1,45
 716.688 1397.7 716.688 1397.7 775.273 1337.85 c 0,46,47
 793.854 1318.87 793.854 1318.87 793.561 1291.69 c 128,-1,48
 793.268 1264.51 793.268 1264.51 774.29 1245.93 c 128,-1,49
 755.314 1227.36 755.314 1227.36 728.134 1227.65 c 128,-1,50
 700.952 1227.94 700.952 1227.94 675.294 1254.15 c 128,-1,51
 649.637 1280.36 649.637 1280.36 604.741 1291.45 c 0,52,53
 509.041 1315.09 509.041 1315.09 437.976 1243.31 c 128,-1,54
 366.91 1171.52 366.91 1171.52 381.964 1068.12 c 0,55,56
 388.284 1024.7 388.284 1024.7 429.591 932.203 c 128,-1,57
 470.897 839.706 470.897 839.706 482.176 778.948 c 0,58,59
 511.589 620.494 511.589 620.494 408.721 501.744 c 1,0,1
EndSplineSet
EndChar

StartChar: asciitilde
Encoding: 37 126 37
Width: 1531
GlyphClass: 2
Flags: MW
LayerCount: 2
Back
Fore
SplineSet
141.384 573.475 m 128,-1,1
 116.656 583.157 116.656 583.157 105.765 608.062 c 128,-1,2
 94.874 632.967 94.874 632.967 104.559 657.7 c 0,3,4
 146.689 765.296 146.689 765.296 242.827 829.385 c 0,5,6
 401.827 935.382 401.827 935.382 593.232 863.843 c 0,7,8
 659.445 839.096 659.445 839.096 751.735 787.213 c 128,-1,9
 844.024 735.33 844.024 735.33 877.336 721.361 c 0,10,11
 1023.96 659.875 1023.96 659.875 1139.1 706.851 c 128,-1,12
 1254.25 753.827 1254.25 753.827 1311.88 845.57 c 0,13,14
 1326.01 868.057 1326.01 868.057 1352.51 874.107 c 128,-1,15
 1379.01 880.158 1379.01 880.158 1401.5 866.028 c 128,-1,16
 1424 851.899 1424 851.899 1430.04 825.396 c 128,-1,17
 1436.09 798.892 1436.09 798.892 1421.96 776.41 c 0,18,19
 1342.08 649.257 1342.08 649.257 1203.03 592.527 c 0,20,21
 1023.27 519.193 1023.27 519.193 827.064 601.474 c 0,22,23
 786.846 618.34 786.846 618.34 695.677 669.593 c 128,-1,24
 604.509 720.846 604.509 720.846 547.722 742.069 c 0,25,26
 418.605 790.327 418.605 790.327 314.938 721.219 c 0,27,28
 252.83 679.814 252.83 679.814 225.609 610.3 c 0,29,30
 215.924 585.567 215.924 585.567 191.018 574.68 c 128,-1,0
 166.111 563.792 166.111 563.792 141.384 573.475 c 128,-1,1
EndSplineSet
EndChar

StartChar: anuswara
Encoding: 39 3330 39
Width: 852
GlyphClass: 2
Flags: MW
LayerCount: 2
Back
Fore
SplineSet
614.813 224.629 m 0,0,1
 631.72 266.328 631.72 266.328 618.026 310.794 c 0,2,3
 570.609 464.771 570.609 464.771 384.752 443.863 c 0,4,5
 327.574 437.432 327.574 437.432 291.083 410.079 c 128,-1,6
 254.591 382.728 254.591 382.728 241.862 355.89 c 128,-1,7
 229.134 329.051 229.134 329.051 230.318 290.166 c 0,8,9
 232.525 217.722 232.525 217.722 292.421 158.966 c 128,-1,10
 352.315 100.21 352.315 100.21 464.86 116.287 c 128,-1,11
 577.405 132.364 577.405 132.364 614.813 224.629 c 0,0,1
195.539 71.8965 m 0,12,13
 104.178 161.52 104.178 161.52 100.143 293.961 c 128,-1,14
 96.1064 426.401 96.1064 426.401 206.49 509.139 c 0,15,16
 277.906 562.668 277.906 562.668 363.214 572.262 c 0,17,18
 570.173 595.536 570.173 595.536 685.106 460.871 c 0,19,20
 745.685 389.894 745.685 389.894 752.167 284.517 c 128,-1,21
 758.649 179.14 758.649 179.14 685.293 92.5596 c 128,-1,22
 611.937 5.97949 611.937 5.97949 459.531 -15.7939 c 128,-1,23
 307.125 -37.5664 307.125 -37.5664 195.539 71.8965 c 0,12,13
EndSplineSet
EndChar

StartChar: ml_a
Encoding: 41 3333 41
Width: 2819
GlyphClass: 2
Flags: MW
LayerCount: 2
Back
Fore
SplineSet
646.579101562 983.251953125 m 128,-1,1
 818.638671875 1005.79882812 818.638671875 1005.79882812 947.077148438 949.3359375 c 1,2,3
 1160.859375 1021.95996094 1160.859375 1021.95996094 1366.77441406 927.392578125 c 0,4,5
 1511.73339844 860.8203125 1511.73339844 860.8203125 1575.99707031 734.431640625 c 1,6,7
 1606.77832031 776.21875 1606.77832031 776.21875 1650.87792969 814.3828125 c 0,8,9
 1753.99121094 903.620117188 1753.99121094 903.620117188 1885.28320312 946.677734375 c 128,-1,10
 2016.57421875 989.734375 2016.57421875 989.734375 2152.46777344 977.2890625 c 128,-1,11
 2288.36132812 964.84375 2288.36132812 964.84375 2409.85449219 896.5859375 c 128,-1,12
 2531.34765625 828.328125 2531.34765625 828.328125 2604.29394531 727.58203125 c 0,13,14
 2754.78515625 519.73828125 2754.78515625 519.73828125 2708.46777344 303.349609375 c 0,15,16
 2683.65820312 187.44140625 2683.65820312 187.44140625 2603.88964844 100.576171875 c 128,-1,17
 2524.12109375 13.7099609375 2524.12109375 13.7099609375 2428.05957031 -7.7373046875 c 0,18,19
 2247.85644531 -47.9697265625 2247.85644531 -47.9697265625 2114.26269531 48.23046875 c 128,-1,20
 1980.66796875 144.431640625 1980.66796875 144.431640625 1960.82324219 300.793945312 c 128,-1,21
 1940.97851562 457.157226562 1940.97851562 457.157226562 2029.06738281 579.2578125 c 128,-1,22
 2117.15527344 701.356445312 2117.15527344 701.356445312 2264.87011719 730.470703125 c 0,23,24
 2334.13085938 744.12109375 2334.13085938 744.12109375 2404.47753906 731.80859375 c 1,25,26
 2285.38183594 824.529296875 2285.38183594 824.529296875 2159.51855469 836.055664062 c 0,27,28
 1915.6640625 858.388671875 1915.6640625 858.388671875 1742.49316406 708.521484375 c 0,29,30
 1685.55273438 659.244140625 1685.55273438 659.244140625 1664.54589844 611.204101562 c 128,-1,31
 1643.53808594 563.1640625 1643.53808594 563.1640625 1641.40527344 476.86328125 c 2,32,-1
 1630.98339844 55.150390625 l 2,33,34
 1630.16015625 27.0146484375 1630.16015625 27.0146484375 1609.65722656 7.1025390625 c 128,-1,35
 1589.15332031 -12.8095703125 1589.15332031 -12.8095703125 1560.86914062 -12.8095703125 c 128,-1,36
 1532.58398438 -12.8095703125 1532.58398438 -12.8095703125 1512.07617188 7.3017578125 c 128,-1,37
 1491.56738281 27.4140625 1491.56738281 27.4140625 1491.01269531 55.830078125 c 2,38,-1
 1484.58300781 484.7578125 l 2,39,40
 1482.63964844 614.268554688 1482.63964844 614.268554688 1443.69042969 685.083984375 c 128,-1,41
 1404.74121094 755.8984375 1404.74121094 755.8984375 1305.4609375 801.493164062 c 128,-1,42
 1206.18066406 847.088867188 1206.18066406 847.088867188 1094.00292969 837.990234375 c 1,43,44
 1166.96484375 745.83984375 1166.96484375 745.83984375 1164.06933594 645.268554688 c 128,-1,45
 1161.17480469 544.697265625 1161.17480469 544.697265625 1107.03222656 471.796875 c 1,46,47
 1211.87109375 409.416015625 1211.87109375 409.416015625 1232.77050781 289.435546875 c 0,48,49
 1246.41210938 211.123046875 1246.41210938 211.123046875 1218.75292969 147.45703125 c 0,50,51
 1166.13867188 26.349609375 1166.13867188 26.349609375 1051.99511719 -12.4326171875 c 128,-1,52
 937.8515625 -51.21484375 937.8515625 -51.21484375 832.020507812 -9.90625 c 128,-1,53
 726.189453125 31.40234375 726.189453125 31.40234375 662.838867188 117.791992188 c 128,-1,54
 599.48828125 204.181640625 599.48828125 204.181640625 577.733398438 311.1953125 c 0,55,56
 546.106445312 466.766601562 546.106445312 466.766601562 599.893554688 610.26171875 c 128,-1,57
 653.680664062 753.756835938 653.680664062 753.756835938 767.264648438 848.62109375 c 1,58,59
 575.572265625 859.57421875 575.572265625 859.57421875 416.778320312 754.809570312 c 0,60,61
 308.7265625 683.5234375 308.7265625 683.5234375 264.022460938 569.73828125 c 0,62,63
 235.939453125 498.258789062 235.939453125 498.258789062 241.456054688 417.407226562 c 128,-1,64
 246.973632812 336.556640625 246.973632812 336.556640625 284.506835938 269.5546875 c 128,-1,65
 322.040039062 202.552734375 322.040039062 202.552734375 388.10546875 155.620117188 c 128,-1,66
 454.170898438 108.6875 454.170898438 108.6875 508.948242188 99.25390625 c 128,-1,67
 563.725585938 89.8203125 563.725585938 89.8203125 576.1796875 66.09765625 c 128,-1,68
 588.634765625 42.375 588.634765625 42.375 588.634765625 19.7919921875 c 128,-1,69
 588.634765625 -2.791015625 588.634765625 -2.791015625 568.123046875 -23.302734375 c 128,-1,70
 547.610351562 -43.8154296875 547.610351562 -43.8154296875 529.779296875 -43.8154296875 c 128,-1,71
 511.947265625 -43.8154296875 511.947265625 -43.8154296875 505.393554688 -42.552734375 c 0,72,73
 397.431640625 -23.443359375 397.431640625 -23.443359375 306.690429688 41.0185546875 c 128,-1,74
 215.950195312 105.48046875 215.950195312 105.48046875 162.366210938 201.134765625 c 128,-1,75
 108.782226562 296.7890625 108.782226562 296.7890625 101.204101562 407.837890625 c 128,-1,76
 93.626953125 518.88671875 93.626953125 518.88671875 133.719726562 620.93359375 c 0,77,78
 194.6328125 775.974609375 194.6328125 775.974609375 334.647460938 868.348632812 c 128,-1,0
 474.661132812 960.721679688 474.661132812 960.721679688 646.579101562 983.251953125 c 128,-1,1
938.477539062 794.224609375 m 1,79,80
 790.717773438 720.473632812 790.717773438 720.473632812 733.086914062 566.724609375 c 0,81,82
 691.309570312 455.268554688 691.309570312 455.268554688 710.936523438 358.727539062 c 0,83,84
 748.713867188 172.899414062 748.713867188 172.899414062 876.948242188 122.845703125 c 0,85,86
 966.129882812 88.03515625 966.129882812 88.03515625 1037.48339844 136.560546875 c 128,-1,87
 1108.83691406 185.0859375 1108.83691406 185.0859375 1094.84667969 265.41015625 c 0,88,89
 1088.40527344 302.391601562 1088.40527344 302.391601562 1055.046875 337.861328125 c 128,-1,90
 1021.68945312 373.330078125 1021.68945312 373.330078125 961.522460938 368.60546875 c 1,91,92
 925.762695312 357.452148438 925.762695312 357.452148438 900.798828125 357.452148438 c 128,-1,93
 875.834960938 357.452148438 875.834960938 357.452148438 855.322265625 377.963867188 c 128,-1,94
 834.810546875 398.475585938 834.810546875 398.475585938 834.810546875 423.109375 c 0,95,96
 834.810546875 490.051757812 834.810546875 490.051757812 928.284179688 505.474609375 c 1,97,98
 962.6953125 518.78125 962.6953125 518.78125 992.484375 551.848632812 c 128,-1,99
 1022.2734375 584.915039062 1022.2734375 584.915039062 1023.796875 637.8515625 c 0,100,101
 1026.48144531 731.1875 1026.48144531 731.1875 938.477539062 794.224609375 c 1,79,80
2466.45214844 561.17578125 m 0,102,103
 2385.49414062 611.551757812 2385.49414062 611.551757812 2291.94433594 593.11328125 c 128,-1,104
 2198.39355469 574.673828125 2198.39355469 574.673828125 2142.60449219 497.345703125 c 128,-1,105
 2086.81640625 420.017578125 2086.81640625 420.017578125 2099.35253906 321.23828125 c 128,-1,106
 2111.88964844 222.458984375 2111.88964844 222.458984375 2195.35058594 162.359375 c 128,-1,107
 2278.81152344 102.259765625 2278.81152344 102.259765625 2364.74414062 121.489257812 c 128,-1,108
 2450.67773438 140.71875 2450.67773438 140.71875 2502.7109375 197.381835938 c 0,109,110
 2579.953125 281.49609375 2579.953125 281.49609375 2578.19433594 403.34765625 c 0,111,112
 2574.28125 410.68359375 2574.28125 410.68359375 2567.41210938 436.348632812 c 128,-1,113
 2560.54394531 462.013671875 2560.54394531 462.013671875 2532.52832031 499.752929688 c 128,-1,114
 2504.51367188 537.4921875 2504.51367188 537.4921875 2466.45214844 561.17578125 c 0,102,103
EndSplineSet
EndChar

StartChar: ml_aa
Encoding: 42 3334 42
Width: 3159
GlyphClass: 2
Flags: MW
LayerCount: 2
Back
Fore
SplineSet
997.141601562 828.951171875 m 1,0,1
 1071.62304688 714.55859375 1071.62304688 714.55859375 1049.48535156 580.435546875 c 1,2,3
 1183.00390625 584.208984375 1183.00390625 584.208984375 1268.52832031 479.875976562 c 128,-1,4
 1354.05175781 375.54296875 1354.05175781 375.54296875 1324.90722656 243.76953125 c 128,-1,5
 1295.76269531 111.99609375 1295.76269531 111.99609375 1187.16992188 43.314453125 c 128,-1,6
 1078.57714844 -25.3671875 1078.57714844 -25.3671875 956.829101562 -11.9111328125 c 0,7,8
 764.056640625 9.39453125 764.056640625 9.39453125 635.801757812 190.831054688 c 128,-1,9
 507.547851562 372.268554688 507.547851562 372.268554688 584.357421875 608.836914062 c 0,10,11
 630.178710938 749.96484375 630.178710938 749.96484375 743.377929688 847.642578125 c 1,12,13
 635.862304688 877.325195312 635.862304688 877.325195312 523.338867188 830.598632812 c 0,14,15
 296.154296875 736.258789062 296.154296875 736.258789062 253.323242188 534.1796875 c 0,16,17
 221.526367188 384.1640625 221.526367188 384.1640625 309.965820312 258.888671875 c 128,-1,18
 398.405273438 133.612304688 398.405273438 133.612304688 550.409179688 113.353515625 c 0,19,20
 612.127929688 105.994140625 612.127929688 105.994140625 612.127929688 43.8388671875 c 0,21,22
 612.127929688 14.8564453125 612.127929688 14.8564453125 591.615234375 -5.65625 c 128,-1,23
 571.103515625 -26.16796875 571.103515625 -26.16796875 554.044921875 -26.16796875 c 128,-1,24
 536.986328125 -26.16796875 536.986328125 -26.16796875 483.958007812 -19.064453125 c 128,-1,25
 430.930664062 -11.9609375 430.930664062 -11.9609375 342.639648438 41.4794921875 c 128,-1,26
 254.349609375 94.919921875 254.349609375 94.919921875 195.594726562 178.146484375 c 0,27,28
 71.890625 353.374023438 71.890625 353.374023438 108.265625 524.993164062 c 0,29,30
 174.463867188 837.315429688 174.463867188 837.315429688 456.125976562 954.279296875 c 0,31,32
 696.865234375 1054.24902344 696.865234375 1054.24902344 885.721679688 937.25390625 c 1,33,34
 1121.42480469 1040.86425781 1121.42480469 1040.86425781 1370.10253906 936.712890625 c 0,35,36
 1524.26269531 872.146484375 1524.26269531 872.146484375 1591.90332031 747.95703125 c 1,37,38
 1697.41796875 898.719726562 1697.41796875 898.719726562 1902.74414062 963.282226562 c 128,-1,39
 2108.0703125 1027.84472656 2108.0703125 1027.84472656 2313.44628906 947.384765625 c 1,40,41
 2496.79003906 992.803710938 2496.79003906 992.803710938 2636.43652344 936.430664062 c 0,42,43
 3008.65527344 786.172851562 3008.65527344 786.172851562 3054.4765625 416.5703125 c 0,44,45
 3087.2421875 152.275390625 3087.2421875 152.275390625 2914.93847656 -80.6123046875 c 128,-1,46
 2742.63574219 -313.5 2742.63574219 -313.5 2433.91503906 -336.440429688 c 0,47,48
 2285.49414062 -347.469726562 2285.49414062 -347.469726562 2207.36914062 -318.603515625 c 128,-1,49
 2129.24414062 -289.737304688 2129.24414062 -289.737304688 2115.60449219 -270.41015625 c 128,-1,50
 2101.96386719 -251.083984375 2101.96386719 -251.083984375 2101.96386719 -226.364257812 c 128,-1,51
 2101.96386719 -201.645507812 2101.96386719 -201.645507812 2122.47558594 -181.1328125 c 128,-1,52
 2142.98828125 -160.62109375 2142.98828125 -160.62109375 2164.02539062 -160.62109375 c 128,-1,53
 2185.06152344 -160.62109375 2185.06152344 -160.62109375 2244.74511719 -182.888671875 c 128,-1,54
 2304.42773438 -205.15625 2304.42773438 -205.15625 2423.50292969 -196.307617188 c 128,-1,55
 2542.578125 -187.458984375 2542.578125 -187.458984375 2642.67871094 -132.25390625 c 0,56,57
 2857.79785156 -13.615234375 2857.79785156 -13.615234375 2913.09570312 247.690429688 c 128,-1,58
 2968.39355469 508.995117188 2968.39355469 508.995117188 2763.24902344 700.259765625 c 0,59,60
 2656.6015625 799.692382812 2656.6015625 799.692382812 2516.87792969 819.451171875 c 1,61,62
 2648.60351562 696.723632812 2648.60351562 696.723632812 2683.01367188 562.629882812 c 0,63,64
 2748.42871094 307.717773438 2748.42871094 307.717773438 2620.68652344 137.314453125 c 0,65,66
 2553.53515625 47.7392578125 2553.53515625 47.7392578125 2441.38476562 3.2294921875 c 128,-1,67
 2329.23339844 -41.2802734375 2329.23339844 -41.2802734375 2201.93554688 -2.74609375 c 128,-1,68
 2074.63769531 35.787109375 2074.63769531 35.787109375 1994.28125 137.814453125 c 0,69,70
 1828.609375 348.166015625 1828.609375 348.166015625 1929.47558594 611.091796875 c 0,71,72
 1984.45605469 754.41015625 1984.45605469 754.41015625 2109.90332031 849.87890625 c 1,73,74
 1906.51269531 859.188476562 1906.51269531 859.188476562 1758.12207031 725.234375 c 0,75,76
 1663.77539062 640.067382812 1663.77539062 640.067382812 1660.20996094 488.353515625 c 2,77,-1
 1650.14355469 60.173828125 l 2,78,79
 1649.35742188 31.9990234375 1649.35742188 31.9990234375 1628.85351562 12.0595703125 c 128,-1,80
 1608.34863281 -7.880859375 1608.34863281 -7.880859375 1580.03222656 -7.880859375 c 128,-1,81
 1551.71582031 -7.880859375 1551.71582031 -7.880859375 1531.20703125 12.2490234375 c 128,-1,82
 1510.69921875 32.37890625 1510.69921875 32.37890625 1510.16894531 60.822265625 c 2,83,-1
 1503.95800781 496.326171875 l 2,84,85
 1502.10253906 626.416992188 1502.10253906 626.416992188 1460.58496094 695.418945312 c 128,-1,86
 1419.06738281 764.421875 1419.06738281 764.421875 1287.15039062 819.670898438 c 128,-1,87
 1155.234375 874.919921875 1155.234375 874.919921875 997.141601562 828.951171875 c 1,0,1
2303.68457031 798.185546875 m 1,88,89
 2126.43652344 733.640625 2126.43652344 733.640625 2057.12597656 552.967773438 c 128,-1,90
 1987.81542969 372.294921875 1987.81542969 372.294921875 2102.14355469 227.1328125 c 0,91,92
 2157.36425781 157.01953125 2157.36425781 157.01953125 2240.19042969 131.947265625 c 0,93,94
 2404.421875 82.234375 2404.421875 82.234375 2500.18066406 209.969726562 c 128,-1,95
 2595.93847656 337.706054688 2595.93847656 337.706054688 2549.59472656 517.73828125 c 128,-1,96
 2503.25 697.770507812 2503.25 697.770507812 2303.68457031 798.185546875 c 1,88,89
868.903320312 767.751953125 m 1,97,98
 685.08203125 639.852539062 685.08203125 639.852539062 700.497070312 427.599609375 c 0,99,100
 711.375976562 277.8046875 711.375976562 277.8046875 800.883789062 207.043945312 c 0,101,102
 971.21875 72.3837890625 971.21875 72.3837890625 1091.17285156 148.250976562 c 128,-1,103
 1211.12597656 224.1171875 1211.12597656 224.1171875 1187.44726562 330.157226562 c 128,-1,104
 1163.76757812 436.197265625 1163.76757812 436.197265625 1062.74707031 440.509765625 c 0,105,106
 1003.65722656 443.032226562 1003.65722656 443.032226562 972.780273438 411.359375 c 128,-1,107
 941.90234375 379.6875 941.90234375 379.6875 912.680664062 379.6875 c 128,-1,108
 883.458984375 379.6875 883.458984375 379.6875 862.947265625 400.19921875 c 128,-1,109
 842.435546875 420.711914062 842.435546875 420.711914062 842.435546875 448.536132812 c 128,-1,110
 842.435546875 476.361328125 842.435546875 476.361328125 878.8203125 516.931640625 c 128,-1,111
 915.206054688 557.501953125 915.206054688 557.501953125 914.279296875 634.0625 c 128,-1,112
 913.352539062 710.623046875 913.352539062 710.623046875 868.903320312 767.751953125 c 1,97,98
EndSplineSet
EndChar

StartChar: ml_i
Encoding: 43 3335 43
Width: 2064
GlyphClass: 2
Flags: MW
LayerCount: 2
Back
Fore
SplineSet
595.315429688 985.39453125 m 0,0,1
 703.334960938 1007.04980469 703.334960938 1007.04980469 807.444335938 983.254882812 c 128,-1,2
 911.553710938 959.459960938 911.553710938 959.459960938 989.583984375 882 c 0,3,4
 1032.6484375 839.25 1032.6484375 839.25 1061.74804688 781.802734375 c 1,5,6
 1149.36523438 905.475585938 1149.36523438 905.475585938 1292.31738281 959.163085938 c 128,-1,7
 1435.26855469 1012.85058594 1435.26855469 1012.85058594 1584.7578125 975.3203125 c 128,-1,8
 1734.24511719 937.791015625 1734.24511719 937.791015625 1835.07226562 822.733398438 c 128,-1,9
 1935.90039062 707.67578125 1935.90039062 707.67578125 1956.40527344 556.768554688 c 128,-1,10
 1976.90917969 405.862304688 1976.90917969 405.862304688 1916.79492188 265.126953125 c 0,11,12
 1836.66699219 77.5390625 1836.66699219 77.5390625 1642.08984375 -37.73046875 c 0,13,14
 1366.7734375 -200.831054688 1366.7734375 -200.831054688 882.96875 -167.84765625 c 0,15,16
 606.076171875 -148.970703125 606.076171875 -148.970703125 490.900390625 -147.504882812 c 128,-1,17
 375.723632812 -146.0390625 375.723632812 -146.0390625 324.307617188 -174.1328125 c 0,18,19
 225.4296875 -228.159179688 225.4296875 -228.159179688 244.89453125 -299.314453125 c 0,20,21
 258.09375 -347.565429688 258.09375 -347.565429688 314.341796875 -366.240234375 c 128,-1,22
 370.58984375 -384.915039062 370.58984375 -384.915039062 478.583984375 -383.43359375 c 2,23,-1
 1892.29101562 -364.033203125 l 2,24,25
 1893.24121094 -364.005859375 1893.24121094 -364.005859375 1908.24121094 -364.005859375 c 128,-1,26
 1923.24121094 -364.005859375 1923.24121094 -364.005859375 1943.75292969 -384.517578125 c 128,-1,27
 1964.265625 -405.030273438 1964.265625 -405.030273438 1964.265625 -434.012695312 c 128,-1,28
 1964.265625 -462.995117188 1964.265625 -462.995117188 1943.75292969 -483.5078125 c 128,-1,29
 1923.24121094 -504.01953125 1923.24121094 -504.01953125 1894.25878906 -504.01953125 c 0,30,-1
 480.50390625 -523.419921875 l 2,31,32
 447.770507812 -523.4453125 447.770507812 -523.4453125 417.76953125 -523.596679688 c 0,33,34
 266.889648438 -524.356445312 266.889648438 -524.356445312 177.9453125 -444.38671875 c 0,35,36
 126.877929688 -398.471679688 126.877929688 -398.471679688 106.612304688 -324.392578125 c 128,-1,37
 86.345703125 -250.313476562 86.345703125 -250.313476562 128.198242188 -174.59765625 c 0,38,39
 206.290039062 -33.3232421875 206.290039062 -33.3232421875 399.279296875 -11.908203125 c 1,40,41
 295.7109375 13.5830078125 295.7109375 13.5830078125 212.634765625 108.44140625 c 128,-1,42
 129.55859375 203.298828125 129.55859375 203.298828125 115.716796875 360.38671875 c 0,43,44
 95.9697265625 584.486328125 95.9697265625 584.486328125 233.947265625 762.547851562 c 128,-1,45
 371.924804688 940.608398438 371.924804688 940.608398438 595.315429688 985.39453125 c 0,0,1
890.953125 782.642578125 m 0,46,47
 791.01953125 881.845703125 791.01953125 881.845703125 616.833007812 846.923828125 c 128,-1,48
 442.646484375 812.001953125 442.646484375 812.001953125 344.071289062 675.977539062 c 0,49,50
 342.7265625 674.12109375 342.7265625 674.12109375 342.224609375 673.451171875 c 1,51,52
 475.841796875 702.700195312 475.841796875 702.700195312 595.146484375 639.359375 c 0,53,54
 675.252929688 596.828125 675.252929688 596.828125 726.944335938 520.9609375 c 0,55,56
 805.87890625 405.107421875 805.87890625 405.107421875 788.357421875 267.900390625 c 0,57,58
 776.809570312 177.46875 776.809570312 177.46875 718.036132812 99.126953125 c 128,-1,59
 659.26171875 20.7861328125 659.26171875 20.7861328125 559.009765625 -8.744140625 c 1,60,61
 628.567382812 -10.7197265625 628.567382812 -10.7197265625 734.11328125 -17.3037109375 c 128,-1,62
 839.658203125 -23.888671875 839.658203125 -23.888671875 970.83984375 -31.9150390625 c 128,-1,63
 1102.02246094 -39.94140625 1102.02246094 -39.94140625 1268.94921875 -18.5556640625 c 0,64,65
 1542.29199219 16.462890625 1542.29199219 16.462890625 1700.7109375 187.24609375 c 0,66,67
 1757.39160156 248.349609375 1757.39160156 248.349609375 1795.18554688 336.828125 c 128,-1,68
 1832.97949219 425.306640625 1832.97949219 425.306640625 1817.91210938 536.198242188 c 128,-1,69
 1802.84472656 647.08984375 1802.84472656 647.08984375 1730.30175781 729.870117188 c 128,-1,70
 1657.75878906 812.650390625 1657.75878906 812.650390625 1550.66796875 839.53515625 c 128,-1,71
 1443.578125 866.421875 1443.578125 866.421875 1340.20507812 827.599609375 c 128,-1,72
 1236.83691406 788.779296875 1236.83691406 788.779296875 1179.11328125 705.534179688 c 128,-1,73
 1121.38964844 622.290039062 1121.38964844 622.290039062 1112.5 529.060546875 c 0,74,75
 1112.72070312 504.8046875 1112.72070312 504.8046875 1112.72070312 499.9296875 c 2,76,-1
 1112.72070312 115.26171875 l 2,77,78
 1112.36230469 86.3037109375 1112.36230469 86.3037109375 1091.8515625 66.048828125 c 128,-1,79
 1071.34082031 45.7939453125 1071.34082031 45.7939453125 1042.74609375 45.7939453125 c 128,-1,80
 1014.15039062 45.7939453125 1014.15039062 45.7939453125 993.68359375 65.908203125 c 128,-1,81
 973.217773438 86.0224609375 973.217773438 86.0224609375 972.72265625 114.587890625 c 0,82,83
 970.799804688 514.489257812 970.799804688 514.489257812 970.8984375 564.166015625 c 0,84,85
 971.174804688 703.004882812 971.174804688 703.004882812 890.953125 782.642578125 c 0,46,47
422.75 541.400390625 m 128,-1,87
 364.016601562 541.602539062 364.016601562 541.602539062 332.15625 524.844726562 c 128,-1,88
 300.294921875 508.0859375 300.294921875 508.0859375 287.21875 508.0859375 c 128,-1,89
 274.143554688 508.0859375 274.143554688 508.0859375 265.884765625 510.125 c 1,90,91
 249.19140625 440.583007812 249.19140625 440.583007812 257.09765625 350.861328125 c 128,-1,92
 265.00390625 261.139648438 265.00390625 261.139648438 329.655273438 187.319335938 c 128,-1,93
 394.307617188 113.5 394.307617188 113.5 478.063476562 118.84375 c 128,-1,94
 561.8203125 124.1875 561.8203125 124.1875 610.642578125 189.264648438 c 128,-1,95
 659.465820312 254.341796875 659.465820312 254.341796875 651.557617188 323.740234375 c 128,-1,96
 643.649414062 393.137695312 643.649414062 393.137695312 610.579101562 441.67578125 c 128,-1,97
 577.508789062 490.213867188 577.508789062 490.213867188 529.49609375 515.705078125 c 128,-1,86
 481.479492188 541.198242188 481.479492188 541.198242188 422.75 541.400390625 c 128,-1,87
EndSplineSet
EndChar

StartChar: ml_u
Encoding: 45 3337 45
Width: 1736
GlyphClass: 2
Flags: MW
LayerCount: 2
Back
Fore
SplineSet
388.30859375 871.372070312 m 0,0,1
 620.536132812 1027.10253906 620.536132812 1027.10253906 934.935546875 997.96875 c 128,-1,2
 1249.3359375 968.833984375 1249.3359375 968.833984375 1434.11132812 790.741210938 c 0,3,4
 1540.60351562 688.100585938 1540.60351562 688.100585938 1585.76171875 549.50390625 c 128,-1,5
 1630.91992188 410.907226562 1630.91992188 410.907226562 1588.65527344 261.055664062 c 128,-1,6
 1546.39160156 111.205078125 1546.39160156 111.205078125 1413.41113281 10.3583984375 c 0,7,8
 1188.66113281 -160.081054688 1188.66113281 -160.081054688 808.775390625 -156.46875 c 0,9,10
 749.278320312 -155.903320312 749.278320312 -155.903320312 653.797851562 -153.092773438 c 128,-1,11
 558.317382812 -150.283203125 558.317382812 -150.283203125 512.88671875 -150.129882812 c 0,12,13
 375.252929688 -149.666992188 375.252929688 -149.666992188 324.184570312 -177.48828125 c 0,14,15
 225.745117188 -231.1171875 225.745117188 -231.1171875 244.73828125 -302.018554688 c 0,16,17
 257.6953125 -350.389648438 257.6953125 -350.389648438 313.911132812 -369.05078125 c 128,-1,18
 370.126953125 -387.7109375 370.126953125 -387.7109375 478.0390625 -385.782226562 c 2,19,-1
 1563.74609375 -366.383789062 l 2,20,21
 1564.8828125 -366.346679688 1564.8828125 -366.346679688 1579.94433594 -366.346679688 c 128,-1,22
 1595.00585938 -366.346679688 1595.00585938 -366.346679688 1615.51757812 -386.858398438 c 128,-1,23
 1636.03027344 -407.37109375 1636.03027344 -407.37109375 1636.03027344 -436.353515625 c 128,-1,24
 1636.03027344 -465.244140625 1636.03027344 -465.244140625 1615.58398438 -485.755859375 c 128,-1,25
 1595.13769531 -506.267578125 1595.13769531 -506.267578125 1566.24804688 -506.360351562 c 2,26,-1
 480.5390625 -525.760742188 l 2,27,28
 447.748046875 -525.916015625 447.748046875 -525.916015625 417.673828125 -526.180664062 c 0,29,30
 266.432617188 -527.510742188 266.432617188 -527.510742188 177.27734375 -446.875976562 c 0,31,32
 126.239257812 -400.715820312 126.239257812 -400.715820312 106.374023438 -326.552734375 c 128,-1,33
 86.5087890625 -252.389648438 86.5087890625 -252.389648438 128.551757812 -177.0625 c 0,34,35
 206.452148438 -37.4853515625 206.452148438 -37.4853515625 397.83984375 -15.1083984375 c 1,36,37
 293.525390625 9.5263671875 293.525390625 9.5263671875 208.3828125 105.58984375 c 128,-1,38
 123.239257812 201.653320312 123.239257812 201.653320312 115.421875 357.842773438 c 128,-1,39
 107.604492188 514.032226562 107.604492188 514.032226562 182.8359375 649.032226562 c 128,-1,40
 258.068359375 784.032226562 258.068359375 784.032226562 388.30859375 871.372070312 c 0,0,1
466.283203125 755.096679688 m 0,41,42
 415.846679688 721.274414062 415.846679688 721.274414062 374.927734375 677.340820312 c 1,43,44
 492.256835938 692.489257812 492.256835938 692.489257812 598.28515625 636.196289062 c 128,-1,45
 704.314453125 579.903320312 704.314453125 579.903320312 758.181640625 463.859375 c 128,-1,46
 812.049804688 347.81640625 812.049804688 347.81640625 778.91796875 221.680664062 c 0,47,48
 761.98046875 157.197265625 761.98046875 157.197265625 722.1796875 104.305664062 c 0,49,50
 658.213867188 19.2998046875 658.213867188 19.2998046875 558.052734375 -10.7138671875 c 1,51,52
 590.985351562 -11.216796875 590.985351562 -11.216796875 686.57421875 -13.8056640625 c 128,-1,53
 782.1640625 -16.3935546875 782.1640625 -16.3935546875 875.389648438 -14.41796875 c 0,54,55
 1156.91894531 -8.4501953125 1156.91894531 -8.4501953125 1316.33789062 112.446289062 c 0,56,57
 1424.390625 194.389648438 1424.390625 194.389648438 1454.51074219 301.182617188 c 128,-1,58
 1484.63085938 407.9765625 1484.63085938 407.9765625 1451.47070312 509.751953125 c 128,-1,59
 1418.30957031 611.52734375 1418.30957031 611.52734375 1340.03027344 686.975585938 c 0,60,61
 1187.52929688 833.9609375 1187.52929688 833.9609375 922.348632812 858.532226562 c 128,-1,62
 657.16796875 883.103515625 657.16796875 883.103515625 466.283203125 755.096679688 c 0,41,42
422.798828125 539.672851562 m 128,-1,64
 363.982421875 539.712890625 363.982421875 539.712890625 332.122070312 522.731445312 c 128,-1,65
 300.260742188 505.75 300.260742188 505.75 289.142578125 505.75 c 128,-1,66
 278.024414062 505.75 278.024414062 505.75 273.658203125 506.301757812 c 1,67,68
 251.65625 436.555664062 251.65625 436.555664062 256.130859375 347.146484375 c 128,-1,69
 260.60546875 257.736328125 260.60546875 257.736328125 326.141601562 183.795898438 c 128,-1,70
 391.676757812 109.854492188 391.676757812 109.854492188 476.26953125 116.310546875 c 128,-1,71
 560.86328125 122.766601562 560.86328125 122.766601562 609.760742188 187.747070312 c 128,-1,72
 658.658203125 252.727539062 658.658203125 252.727539062 651.153320312 321.979492188 c 128,-1,73
 643.6484375 391.231445312 643.6484375 391.231445312 610.665039062 439.9296875 c 128,-1,74
 577.681640625 488.627929688 577.681640625 488.627929688 529.6484375 514.129882812 c 128,-1,63
 481.614257812 539.631835938 481.614257812 539.631835938 422.798828125 539.672851562 c 128,-1,64
EndSplineSet
EndChar

StartChar: ml_r
Encoding: 47 3339 47
Width: 1863
GlyphClass: 2
Flags: MW
LayerCount: 2
Back
Fore
SplineSet
760 539 m 5,0,1
 854 500 854 500 1028 433 c 5,2,3
 1162 490 1162 490 1279 542 c 5,4,5
 1053 722 1053 722 1071 843.5 c 132,-1,6
 1089 965 1089 965 1228 986 c 132,-1,7
 1367 1007 1367 1007 1509.5 957 c 132,-1,8
 1652 907 1652 907 1690 806 c 4,9,10
 1748 652 1748 652 1514 508 c 4,11,12
 1476 485 1476 485 1200 365 c 5,13,14
 1555 220 1555 220 1653 136.5 c 132,-1,15
 1751 53 1751 53 1761 -34 c 4,16,17
 1783 -215 1783 -215 1581.5 -313 c 132,-1,18
 1380 -411 1380 -411 1095.5 -411 c 132,-1,19
 811 -411 811 -411 580 -313.5 c 132,-1,20
 349 -216 349 -216 344 -23 c 4,21,22
 341 92 341 92 564 216 c 4,23,24
 674 277 674 277 857 359 c 5,25,26
 232 605 232 605 134 743 c 4,27,28
 74 828 74 828 121.5 888.5 c 132,-1,29
 169 949 169 949 234.5 966.5 c 132,-1,30
 300 984 300 984 446.5 987.5 c 132,-1,31
 593 991 593 991 714 952 c 4,32,33
 1010 856 1010 856 946 709 c 4,34,35
 906 616 906 616 760 539 c 5,0,1
1030 293 m 5,36,37
 498 67 498 67 474 -20 c 5,38,39
 478 -130 478 -130 657.5 -205.5 c 132,-1,40
 837 -281 837 -281 1094 -281 c 132,-1,41
 1351 -281 1351 -281 1467 -224 c 4,42,43
 1727 -98 1727 -98 1599.5 11 c 132,-1,44
 1472 120 1472 120 1030 293 c 5,36,37
239 826 m 5,45,46
 286 752 286 752 602 608 c 5,47,48
 607 611 607 611 634 622.5 c 132,-1,49
 661 634 661 634 712 662.5 c 132,-1,50
 763 691 763 691 794.5 721 c 132,-1,51
 826 751 826 751 815 762 c 4,52,53
 715 864 715 864 405 856 c 4,54,55
 278 854 278 854 239 826 c 5,45,46
1413 603 m 5,56,57
 1529 658 1529 658 1564 725 c 4,58,59
 1571 738 1571 738 1570 746 c 132,-1,60
 1569 754 1569 754 1568 761 c 5,61,62
 1552 805 1552 805 1453 839 c 132,-1,63
 1354 873 1354 873 1278.5 862 c 132,-1,64
 1203 851 1203 851 1202 839 c 4,65,66
 1191 766 1191 766 1413 603 c 5,56,57
EndSplineSet
EndChar

StartChar: ml_l
Encoding: 48 3340 48
Width: 1909
GlyphClass: 2
Flags: MW
LayerCount: 2
Back
Fore
SplineSet
898 71 m 1,0,1
 879 202 879 202 896 499 c 1,2,3
 895 517 895 517 878 577 c 0,4,5
 813 809 813 809 674 869 c 0,6,7
 588 905 588 905 491 857 c 0,8,9
 340 782 340 782 257 559 c 1,10,11
 371 631 371 631 472 599 c 0,12,13
 594 561 594 561 622 431 c 0,14,15
 635 369 635 369 623 295 c 0,16,17
 586 80 586 80 458 28 c 1,18,19
 344 -13 344 -13 243 73.5 c 128,-1,20
 142 160 142 160 113 300.5 c 128,-1,21
 84 441 84 441 116 546 c 0,22,23
 180 754 180 754 304.5 878.5 c 128,-1,24
 429 1003 429 1003 580 1014 c 128,-1,25
 731 1025 731 1025 854 897 c 0,26,27
 918 831 918 831 966 720 c 1,28,29
 1034 859 1034 859 1147 937 c 0,30,31
 1298 1042 1298 1042 1463 1006.5 c 128,-1,32
 1628 971 1628 971 1724.5 831.5 c 128,-1,33
 1821 692 1821 692 1809.5 510 c 128,-1,34
 1798 328 1798 328 1760 217 c 128,-1,35
 1722 106 1722 106 1646 51 c 0,36,37
 1596 14 1596 14 1536.5 13 c 128,-1,38
 1477 12 1477 12 1424 46 c 0,39,40
 1336 101 1336 101 1303 205 c 128,-1,41
 1270 309 1270 309 1302 388 c 0,42,43
 1363 537 1363 537 1460 583.5 c 128,-1,44
 1557 630 1557 630 1663 592 c 0,45,46
 1676 588 1676 588 1678 587 c 1,47,48
 1668 685 1668 685 1609 769.5 c 128,-1,49
 1550 854 1550 854 1438 878.5 c 128,-1,50
 1326 903 1326 903 1214 825 c 0,51,52
 1080 732 1080 732 1027 498 c 1,53,54
 1048 150 1048 150 1035 64 c 1,55,56
 1050 38 1050 38 1020 14 c 0,57,58
 1008 5 1008 5 987 -1 c 0,59,60
 905 -26 905 -26 897 41 c 1,61,-1
 898 71 l 1,0,1
1674 445 m 1,62,63
 1670 447 1670 447 1659 454 c 0,64,65
 1584 499 1584 499 1511 464 c 0,66,67
 1464 442 1464 442 1428 353 c 0,68,69
 1408 304 1408 304 1427 244.5 c 128,-1,70
 1446 185 1446 185 1482.5 162.5 c 128,-1,71
 1519 140 1519 140 1534 140.5 c 128,-1,72
 1549 141 1549 141 1577 161 c 128,-1,73
 1605 181 1605 181 1633.5 254 c 128,-1,74
 1662 327 1662 327 1674 445 c 1,62,63
231 437 m 1,75,76
 228 386 228 386 238 337 c 0,77,78
 260 230 260 230 318.5 180 c 128,-1,79
 377 130 377 130 409 149 c 1,80,81
 470 174 470 174 493.5 311.5 c 128,-1,82
 517 449 517 449 433 475 c 0,83,84
 382 491 382 491 309 437 c 0,85,86
 271 408 271 408 231 437 c 1,75,76
EndSplineSet
EndChar

StartChar: ml_e
Encoding: 49 3342 49
Width: 2843
GlyphClass: 2
Flags: MW
LayerCount: 2
Back
Fore
SplineSet
1507.29589844 843.9296875 m 0,0,1
 1717.70605469 983.18359375 1717.70605469 983.18359375 1956.33886719 974.478515625 c 128,-1,2
 2194.97265625 965.7734375 2194.97265625 965.7734375 2383.53808594 834.060546875 c 128,-1,3
 2572.10253906 702.34765625 2572.10253906 702.34765625 2666.94433594 491.408203125 c 0,4,5
 2787.64550781 222.951171875 2787.64550781 222.951171875 2717.58886719 -62.93359375 c 128,-1,6
 2647.53222656 -348.817382812 2647.53222656 -348.817382812 2416.38964844 -531.0546875 c 0,7,8
 2397.09960938 -546.7265625 2397.09960938 -546.7265625 2370.18066406 -546.7265625 c 128,-1,9
 2343.26269531 -546.7265625 2343.26269531 -546.7265625 2322.75097656 -526.21484375 c 128,-1,10
 2302.23925781 -505.702148438 2302.23925781 -505.702148438 2302.23925781 -473.916992188 c 128,-1,11
 2302.23925781 -442.130859375 2302.23925781 -442.130859375 2329.71191406 -421.115234375 c 0,12,13
 2523.02246094 -268.706054688 2523.02246094 -268.706054688 2581.61230469 -29.61328125 c 128,-1,14
 2640.20214844 209.481445312 2640.20214844 209.481445312 2539.25683594 433.998046875 c 0,15,16
 2460.25878906 609.69921875 2460.25878906 609.69921875 2304.44628906 718.534179688 c 128,-1,17
 2148.6328125 827.370117188 2148.6328125 827.370117188 1953.06054688 834.500976562 c 128,-1,18
 1757.48730469 841.631835938 1757.48730469 841.631835938 1585.9609375 728.111328125 c 128,-1,19
 1414.43457031 614.590820312 1414.43457031 614.590820312 1334.19238281 422.779296875 c 0,20,21
 1274.23730469 279.462890625 1274.23730469 279.462890625 1281.21972656 124.017578125 c 1,22,-1
 1893.12402344 119.255859375 l 1,23,-1
 1897.25292969 621.037109375 l 2,24,25
 1897.25195312 650.237304688 1897.25195312 650.237304688 1917.62304688 670.749023438 c 128,-1,26
 1937.99511719 691.259765625 1937.99511719 691.259765625 1967.11816406 691.359375 c 128,-1,27
 1996.2421875 691.458984375 1996.2421875 691.458984375 2016.75390625 670.947265625 c 128,-1,28
 2037.26660156 650.434570312 2037.26660156 650.434570312 2037.26660156 635.548828125 c 128,-1,29
 2037.26660156 620.663085938 2037.26660156 620.663085938 2037.24902344 619.884765625 c 2,30,-1
 2032.54394531 48.13671875 l 2,31,32
 2032.51171875 46.857421875 2032.51171875 46.857421875 2034.59179688 0.82421875 c 128,-1,33
 2036.67089844 -45.208984375 2036.67089844 -45.208984375 2021.26855469 -158.630859375 c 0,34,35
 1990.22851562 -387.198242188 1990.22851562 -387.198242188 1831.80371094 -490.354492188 c 128,-1,36
 1673.37792969 -593.51171875 1673.37792969 -593.51171875 1489.27050781 -499.142578125 c 0,37,38
 1389.22167969 -447.861328125 1389.22167969 -447.861328125 1292.83496094 -320.91796875 c 128,-1,39
 1196.44824219 -193.974609375 1196.44824219 -193.974609375 1158.35058594 -15.029296875 c 1,40,-1
 588.782226562 -10.595703125 l 2,41,42
 560.036132812 -10.3603515625 560.036132812 -10.3603515625 539.69140625 10.150390625 c 128,-1,43
 519.34765625 30.662109375 519.34765625 30.662109375 519.34765625 54.0263671875 c 0,44,45
 519.34765625 102.842773438 519.34765625 102.842773438 558.262695312 122.1328125 c 0,46,47
 619.668945312 152.541992188 619.668945312 152.541992188 653.463867188 212.15234375 c 128,-1,48
 687.258789062 271.765625 687.258789062 271.765625 681.815429688 340.072265625 c 128,-1,49
 676.37109375 408.37890625 676.37109375 408.37890625 633.561523438 461.88671875 c 128,-1,50
 590.75390625 515.391601562 590.75390625 515.391601562 528.82421875 534.599609375 c 128,-1,51
 466.89453125 553.806640625 466.89453125 553.806640625 407.688476562 539.57421875 c 128,-1,52
 348.387695312 525.3203125 348.387695312 525.3203125 306.215820312 483.779296875 c 128,-1,53
 264.043945312 442.23828125 264.043945312 442.23828125 248.385742188 386.75 c 128,-1,54
 232.7265625 331.26171875 232.7265625 331.26171875 246.590820312 275.294921875 c 128,-1,55
 260.454101562 219.331054688 260.454101562 219.331054688 300.204101562 177.568359375 c 128,-1,56
 339.956054688 135.803710938 339.956054688 135.803710938 378.083984375 124.502929688 c 0,57,58
 446.002929688 104.374023438 446.002929688 104.374023438 446.002929688 51.8642578125 c 0,59,60
 446.002929688 22.8818359375 446.002929688 22.8818359375 425.490234375 2.369140625 c 128,-1,61
 404.978515625 -18.142578125 404.978515625 -18.142578125 385.071289062 -18.142578125 c 128,-1,62
 365.165039062 -18.142578125 365.165039062 -18.142578125 354.838867188 -14.869140625 c 0,63,64
 264.114257812 12.421875 264.114257812 12.421875 198.795898438 81.046875 c 128,-1,65
 133.478515625 149.670898438 133.478515625 149.670898438 110.698242188 241.6328125 c 128,-1,66
 87.9169921875 333.59375 87.9169921875 333.59375 113.647460938 424.771484375 c 128,-1,67
 139.376953125 515.94921875 139.376953125 515.94921875 208.61328125 584.150390625 c 128,-1,68
 277.849609375 652.3515625 277.849609375 652.3515625 374.725585938 675.638671875 c 128,-1,69
 471.6015625 698.92578125 471.6015625 698.92578125 572.421875 667.657226562 c 128,-1,70
 673.241210938 636.387695312 673.241210938 636.387695312 742.879882812 549.349609375 c 128,-1,71
 812.515625 462.310546875 812.515625 462.310546875 821.756835938 346.366210938 c 128,-1,72
 830.997070312 230.420898438 830.997070312 230.420898438 766.151367188 128.02734375 c 1,73,-1
 1141.02636719 125.109375 l 1,74,75
 1129.57128906 439.7265625 1129.57128906 439.7265625 1329.28808594 683.02734375 c 0,76,77
 1406.73925781 777.37890625 1406.73925781 777.37890625 1507.29589844 843.9296875 c 0,0,1
1302.50878906 -16.15234375 m 1,78,79
 1336.91992188 -147.470703125 1336.91992188 -147.470703125 1409.18164062 -242.640625 c 0,80,81
 1558.47558594 -439.262695312 1558.47558594 -439.262695312 1709.22753906 -394.662109375 c 0,82,83
 1885.84667969 -342.40625 1885.84667969 -342.40625 1893.27246094 -20.75 c 1,84,-1
 1302.50878906 -16.15234375 l 1,78,79
EndSplineSet
EndChar

StartChar: ml_ee
Encoding: 50 3343 50
Width: 2878
GlyphClass: 2
Flags: MW
LayerCount: 2
Back
Fore
SplineSet
1288.17578125 602.583007812 m 0,0,1
 1519.22167969 907.909179688 1519.22167969 907.909179688 1975.23046875 963.9375 c 0,2,3
 2240.6015625 996.54296875 2240.6015625 996.54296875 2435.39550781 883.53125 c 0,4,5
 2555.44433594 813.8828125 2555.44433594 813.8828125 2623.43652344 695.110351562 c 128,-1,6
 2691.4296875 576.338867188 2691.4296875 576.338867188 2673.36621094 447.55078125 c 128,-1,7
 2655.30175781 318.762695312 2655.30175781 318.762695312 2569.53222656 229.857421875 c 1,8,9
 2627.90332031 201.98828125 2627.90332031 201.98828125 2684.53320312 144.682617188 c 128,-1,10
 2741.16210938 87.3759765625 2741.16210938 87.3759765625 2766.19824219 -6.951171875 c 128,-1,11
 2791.23242188 -101.276367188 2791.23242188 -101.276367188 2766.859375 -192.669921875 c 128,-1,12
 2742.48632812 -284.064453125 2742.48632812 -284.064453125 2679.07421875 -351.717773438 c 128,-1,13
 2615.66210938 -419.37109375 2615.66210938 -419.37109375 2528.88574219 -448.642578125 c 128,-1,14
 2442.10839844 -477.9140625 2442.10839844 -477.9140625 2350.67480469 -462.491210938 c 128,-1,15
 2259.24121094 -447.068359375 2259.24121094 -447.068359375 2186.86621094 -390.953125 c 0,16,17
 2158.96972656 -369.94921875 2158.96972656 -369.94921875 2158.96972656 -337.997070312 c 128,-1,18
 2158.96972656 -306.044921875 2158.96972656 -306.044921875 2179.48144531 -285.532226562 c 128,-1,19
 2199.99316406 -265.020507812 2199.99316406 -265.020507812 2226.7421875 -265.020507812 c 128,-1,20
 2253.49121094 -265.020507812 2253.49121094 -265.020507812 2284.640625 -289.391601562 c 128,-1,21
 2315.79101562 -313.76171875 2315.79101562 -313.76171875 2374.10351562 -323.59765625 c 128,-1,22
 2432.41503906 -333.43359375 2432.41503906 -333.43359375 2484.13964844 -315.986328125 c 128,-1,23
 2535.86328125 -298.5390625 2535.86328125 -298.5390625 2576.30566406 -255.392578125 c 128,-1,24
 2616.74707031 -212.24609375 2616.74707031 -212.24609375 2631.55566406 -156.717773438 c 128,-1,25
 2646.36328125 -101.190429688 2646.36328125 -101.190429688 2630.88378906 -42.86328125 c 128,-1,26
 2615.40332031 15.4638671875 2615.40332031 15.4638671875 2572.98535156 58.388671875 c 0,27,28
 2494.56542969 137.745117188 2494.56542969 137.745117188 2383.10839844 123.8828125 c 0,29,30
 2352.43066406 116.66015625 2352.43066406 116.66015625 2331.06347656 116.66015625 c 128,-1,31
 2309.69628906 116.66015625 2309.69628906 116.66015625 2289.18457031 137.172851562 c 128,-1,32
 2268.67285156 157.684570312 2268.67285156 157.684570312 2268.67285156 183.426757812 c 128,-1,33
 2268.67285156 209.169921875 2268.67285156 209.169921875 2284.10058594 229.041992188 c 128,-1,34
 2299.52929688 248.9140625 2299.52929688 248.9140625 2317.49902344 253.498046875 c 128,-1,35
 2335.46777344 258.08203125 2335.46777344 258.08203125 2377.36914062 267.793945312 c 128,-1,36
 2419.27050781 277.505859375 2419.27050781 277.505859375 2470.9375 329.043945312 c 128,-1,37
 2522.60546875 380.581054688 2522.60546875 380.581054688 2534.37109375 464.46484375 c 128,-1,38
 2546.13574219 548.348632812 2546.13574219 548.348632812 2499.38867188 630.009765625 c 128,-1,39
 2452.640625 711.670898438 2452.640625 711.670898438 2365.14160156 762.435546875 c 0,40,41
 2211.00683594 851.858398438 2211.00683594 851.858398438 1984.32519531 824.005859375 c 0,42,43
 1637.74707031 781.420898438 1637.74707031 781.420898438 1450.32910156 577.663085938 c 128,-1,44
 1262.91113281 373.905273438 1262.91113281 373.905273438 1275.64550781 111.87890625 c 1,45,-1
 1893.12402344 107.072265625 l 1,46,-1
 1897.25292969 608.853515625 l 2,47,48
 1897.25195312 638.053710938 1897.25195312 638.053710938 1917.62304688 658.565429688 c 128,-1,49
 1937.99511719 679.076171875 1937.99511719 679.076171875 1966.78027344 679.2734375 c 2,50,-1
 1967.25976562 679.275390625 l 2,51,52
 1996.2421875 679.275390625 1996.2421875 679.275390625 2016.75390625 658.763671875 c 128,-1,53
 2037.26660156 638.250976562 2037.26660156 638.250976562 2037.26660156 623.365234375 c 128,-1,54
 2037.26660156 608.479492188 2037.26660156 608.479492188 2037.24902344 607.701171875 c 2,55,-1
 2032.54394531 35.953125 l 2,56,57
 2032.51171875 34.619140625 2032.51171875 34.619140625 2034.55957031 -11.4091796875 c 128,-1,58
 2036.60742188 -57.4375 2036.60742188 -57.4375 2021.27148438 -170.907226562 c 128,-1,59
 2005.93457031 -284.375976562 2005.93457031 -284.375976562 1960.98242188 -359.866210938 c 0,60,61
 1875.06542969 -504.149414062 1875.06542969 -504.149414062 1748.15234375 -541.325195312 c 128,-1,62
 1621.24023438 -578.5 1621.24023438 -578.5 1505.91796875 -519.173828125 c 128,-1,63
 1390.59570312 -459.846679688 1390.59570312 -459.846679688 1292 -332.340820312 c 128,-1,64
 1193.40332031 -204.834960938 1193.40332031 -204.834960938 1153.71386719 -27.177734375 c 1,65,-1
 588.782226562 -22.779296875 l 2,66,67
 560.036132812 -22.5439453125 560.036132812 -22.5439453125 539.69140625 -2.033203125 c 128,-1,68
 519.34765625 18.478515625 519.34765625 18.478515625 519.34765625 41.8427734375 c 0,69,70
 519.34765625 90.6591796875 519.34765625 90.6591796875 558.262695312 109.94921875 c 0,71,72
 619.668945312 140.358398438 619.668945312 140.358398438 653.463867188 199.96875 c 128,-1,73
 687.258789062 259.58203125 687.258789062 259.58203125 681.815429688 327.888671875 c 128,-1,74
 676.37109375 396.1953125 676.37109375 396.1953125 633.561523438 449.703125 c 128,-1,75
 590.75390625 503.208007812 590.75390625 503.208007812 528.82421875 522.416015625 c 128,-1,76
 466.89453125 541.623046875 466.89453125 541.623046875 407.688476562 527.390625 c 128,-1,77
 348.387695312 513.13671875 348.387695312 513.13671875 306.215820312 471.595703125 c 128,-1,78
 264.043945312 430.0546875 264.043945312 430.0546875 248.385742188 374.56640625 c 128,-1,79
 232.7265625 319.078125 232.7265625 319.078125 246.590820312 263.111328125 c 128,-1,80
 260.454101562 207.147460938 260.454101562 207.147460938 300.204101562 165.384765625 c 128,-1,81
 339.956054688 123.620117188 339.956054688 123.620117188 378.083984375 112.319335938 c 0,82,83
 446.002929688 92.1904296875 446.002929688 92.1904296875 446.002929688 39.6806640625 c 0,84,85
 446.002929688 10.6982421875 446.002929688 10.6982421875 425.490234375 -9.814453125 c 128,-1,86
 404.978515625 -30.326171875 404.978515625 -30.326171875 385.071289062 -30.326171875 c 128,-1,87
 365.165039062 -30.326171875 365.165039062 -30.326171875 354.838867188 -27.052734375 c 0,88,89
 264.114257812 0.23828125 264.114257812 0.23828125 198.795898438 68.86328125 c 128,-1,90
 133.478515625 137.487304688 133.478515625 137.487304688 110.698242188 229.44921875 c 128,-1,91
 87.9169921875 321.41015625 87.9169921875 321.41015625 113.647460938 412.587890625 c 128,-1,92
 139.376953125 503.765625 139.376953125 503.765625 208.61328125 571.966796875 c 128,-1,93
 277.849609375 640.16796875 277.849609375 640.16796875 374.725585938 663.455078125 c 128,-1,94
 471.6015625 686.7421875 471.6015625 686.7421875 572.421875 655.473632812 c 128,-1,95
 673.241210938 624.204101562 673.241210938 624.204101562 742.879882812 537.166015625 c 128,-1,96
 812.515625 450.126953125 812.515625 450.126953125 821.756835938 334.182617188 c 128,-1,97
 830.997070312 218.237304688 830.997070312 218.237304688 766.151367188 115.84375 c 1,98,-1
 1135.41894531 112.96875 l 1,99,100
 1124.71484375 386.5703125 1124.71484375 386.5703125 1288.17578125 602.583007812 c 0,0,1
1298.30371094 -28.302734375 m 1,101,102
 1334.1953125 -158.043945312 1334.1953125 -158.043945312 1408.25195312 -253.815429688 c 0,103,104
 1560.31347656 -450.46484375 1560.31347656 -450.46484375 1709.40917969 -406.791015625 c 0,105,106
 1885.7890625 -355.124023438 1885.7890625 -355.124023438 1893.24316406 -32.93359375 c 1,107,-1
 1298.30371094 -28.302734375 l 1,101,102
EndSplineSet
EndChar

StartChar: ml_n
Encoding: 52 3346 52
Width: 1429
GlyphClass: 2
Flags: MW
LayerCount: 2
Back
Fore
SplineSet
452.256835938 926.361328125 m 0,0,1
 609.732421875 1017.84472656 609.732421875 1017.84472656 790.814453125 1013.375 c 128,-1,2
 971.896484375 1008.90625 971.896484375 1008.90625 1107.1796875 912.436523438 c 128,-1,3
 1242.46191406 815.966796875 1242.46191406 815.966796875 1273.94726562 686.967773438 c 128,-1,4
 1305.43164062 557.96875 1305.43164062 557.96875 1213.61425781 448.322265625 c 1,5,6
 1297.43554688 388.37890625 1297.43554688 388.37890625 1319.30664062 299.586914062 c 128,-1,7
 1341.17871094 210.794921875 1341.17871094 210.794921875 1316.68164062 136.399414062 c 128,-1,8
 1292.18554688 62.0048828125 1292.18554688 62.0048828125 1234.35253906 11.7265625 c 128,-1,9
 1176.51953125 -38.552734375 1176.51953125 -38.552734375 1101.10839844 -52.162109375 c 128,-1,10
 1025.69628906 -65.7724609375 1025.69628906 -65.7724609375 953.936523438 -38.884765625 c 128,-1,11
 882.177734375 -11.9970703125 882.177734375 -11.9970703125 834.278320312 47.818359375 c 0,12,13
 818.286132812 67.2138671875 818.286132812 67.2138671875 818.286132812 89.287109375 c 128,-1,14
 818.286132812 111.360351562 818.286132812 111.360351562 827.658203125 127.48828125 c 0,15,16
 847.923828125 162.361328125 847.923828125 162.361328125 885.23046875 162.361328125 c 128,-1,17
 922.536132812 162.361328125 922.536132812 162.361328125 944.956054688 133.973632812 c 128,-1,18
 967.375 105.5859375 967.375 105.5859375 1003.05957031 92.21484375 c 128,-1,19
 1038.74707031 78.8427734375 1038.74707031 78.8427734375 1076.24316406 85.611328125 c 128,-1,20
 1113.73925781 92.37890625 1113.73925781 92.37890625 1142.49902344 117.380859375 c 128,-1,21
 1171.25683594 142.381835938 1171.25683594 142.381835938 1183.43847656 179.375976562 c 128,-1,22
 1195.62011719 216.37109375 1195.62011719 216.37109375 1186.10253906 255.005859375 c 128,-1,23
 1176.58496094 293.640625 1176.58496094 293.640625 1146.94628906 322.362304688 c 128,-1,24
 1117.30664062 351.083007812 1117.30664062 351.083007812 1075.20800781 358.24609375 c 1,25,26
 968.891601562 327.536132812 968.891601562 327.536132812 929.166992188 370.529296875 c 0,27,28
 910.272460938 390.977539062 910.272460938 390.977539062 910.272460938 414.50390625 c 128,-1,29
 910.272460938 438.030273438 910.272460938 438.030273438 923.750976562 457.298828125 c 0,30,31
 954.512695312 501.276367188 954.512695312 501.276367188 1054.49121094 500.259765625 c 1,32,33
 1118.78808594 528.646484375 1118.78808594 528.646484375 1135.00292969 597.08203125 c 0,34,35
 1160.04882812 702.787109375 1160.04882812 702.787109375 1042.79980469 786.396484375 c 128,-1,36
 925.551757812 870.006835938 925.551757812 870.006835938 785.694335938 873.456054688 c 0,37,38
 584.974609375 878.407226562 584.974609375 878.407226562 431.72265625 738.286132812 c 0,39,40
 347.194335938 661 347.194335938 661 295.249023438 554.3984375 c 1,41,42
 384.76953125 595.857421875 384.76953125 595.857421875 477.4375 579.645507812 c 128,-1,43
 570.10546875 563.43359375 570.10546875 563.43359375 644.0859375 497.208984375 c 128,-1,44
 718.06640625 430.984375 718.06640625 430.984375 736.861328125 323.942382812 c 128,-1,45
 755.657226562 216.901367188 755.657226562 216.901367188 703.393554688 121.228515625 c 128,-1,46
 651.12890625 25.556640625 651.12890625 25.556640625 549.974609375 -16.02734375 c 128,-1,47
 448.8203125 -57.611328125 448.8203125 -57.611328125 351.267578125 -27.677734375 c 128,-1,48
 253.71484375 2.2548828125 253.71484375 2.2548828125 193.251953125 74.6767578125 c 128,-1,49
 132.790039062 147.09765625 132.790039062 147.09765625 111.499023438 239.744140625 c 0,50,51
 76.146484375 393.592773438 76.146484375 393.592773438 149.481445312 571.640625 c 0,52,53
 246.3046875 806.715820312 246.3046875 806.715820312 452.256835938 926.361328125 c 0,0,1
457.391601562 441.025390625 m 128,-1,55
 408.228515625 449.624023438 408.228515625 449.624023438 361.952148438 430.939453125 c 128,-1,56
 315.673828125 412.252929688 315.673828125 412.252929688 286.266601562 371.9296875 c 128,-1,57
 256.859375 331.60546875 256.859375 331.60546875 254.758789062 302.154296875 c 128,-1,58
 252.657226562 272.704101562 252.657226562 272.704101562 249.772460938 264.021484375 c 1,59,60
 281.7734375 140.087890625 281.7734375 140.087890625 388.247070312 107.416015625 c 0,61,62
 441.95703125 90.9345703125 441.95703125 90.9345703125 497.030273438 113.57421875 c 128,-1,63
 552.03515625 136.186523438 552.03515625 136.186523438 580.678710938 188.62109375 c 128,-1,64
 609.286132812 240.987304688 609.286132812 240.987304688 598.916992188 300.0390625 c 128,-1,65
 588.5625 359.013671875 588.5625 359.013671875 547.557617188 395.719726562 c 128,-1,54
 506.552734375 432.42578125 506.552734375 432.42578125 457.391601562 441.025390625 c 128,-1,55
EndSplineSet
EndChar

StartChar: k1
Encoding: 55 3349 55
Width: 2054
GlyphClass: 2
Flags: MW
LayerCount: 2
Back
Fore
SplineSet
564.30078125 648.828125 m 1,0,1
 603.954101562 791.568359375 603.954101562 791.568359375 710.078125 888.001953125 c 128,-1,2
 816.201171875 984.434570312 816.201171875 984.434570312 952.723632812 1010.29882812 c 128,-1,3
 1089.24511719 1036.16210938 1089.24511719 1036.16210938 1197.50195312 987.75390625 c 0,4,5
 1418.33007812 889.006835938 1418.33007812 889.006835938 1478.48828125 658.02734375 c 1,6,7
 1698.79589844 642.928710938 1698.79589844 642.928710938 1824.21289062 539.9453125 c 0,8,9
 1912.50585938 467.444335938 1912.50585938 467.444335938 1940.88769531 370.279296875 c 128,-1,10
 1969.26953125 273.115234375 1969.26953125 273.115234375 1938.71875 180.3828125 c 128,-1,11
 1908.16601562 87.6474609375 1908.16601562 87.6474609375 1830.4453125 28.552734375 c 128,-1,12
 1752.72265625 -30.54296875 1752.72265625 -30.54296875 1655.19726562 -35.19140625 c 128,-1,13
 1557.67285156 -39.83984375 1557.67285156 -39.83984375 1474.6796875 11.595703125 c 0,14,15
 1449.56347656 26.6689453125 1449.56347656 26.6689453125 1442.66503906 55.13671875 c 128,-1,16
 1435.76757812 83.6044921875 1435.76757812 83.6044921875 1451.19921875 108.501953125 c 128,-1,17
 1466.62988281 133.400390625 1466.62988281 133.400390625 1495.19335938 139.889648438 c 128,-1,18
 1523.75683594 146.379882812 1523.75683594 146.379882812 1559.10351562 124.2265625 c 128,-1,19
 1594.45117188 102.073242188 1594.45117188 102.073242188 1648.53125 104.650390625 c 128,-1,20
 1702.61035156 107.227539062 1702.61035156 107.227539062 1745.70898438 139.998046875 c 128,-1,21
 1788.80957031 172.770507812 1788.80957031 172.770507812 1805.75 224.189453125 c 128,-1,22
 1822.69140625 275.61328125 1822.69140625 275.61328125 1806.46875 331.149414062 c 128,-1,23
 1790.24707031 386.684570312 1790.24707031 386.684570312 1737.51953125 429.981445312 c 0,24,25
 1651.45019531 500.657226562 1651.45019531 500.657226562 1496.5625 515.73046875 c 1,26,27
 1497.12109375 286.540039062 1497.12109375 286.540039062 1356.06445312 113.086914062 c 0,28,29
 1282.15820312 22.2060546875 1282.15820312 22.2060546875 1185.58789062 -16.3271484375 c 0,30,31
 994.383789062 -92.6201171875 994.383789062 -92.6201171875 823.138671875 -2.80078125 c 0,32,33
 747.901367188 36.662109375 747.901367188 36.662109375 693.1171875 103.82421875 c 1,34,35
 630.12109375 8.3125 630.12109375 8.3125 521.004882812 -26.4912109375 c 0,36,37
 372.434570312 -73.8798828125 372.434570312 -73.8798828125 242.7421875 12.5029296875 c 0,38,39
 178.708984375 55.1533203125 178.708984375 55.1533203125 141.0625 121.780273438 c 128,-1,40
 103.415039062 188.407226562 103.415039062 188.407226562 100.2578125 265.509765625 c 128,-1,41
 97.1005859375 342.61328125 97.1005859375 342.61328125 132.608398438 418.854492188 c 128,-1,42
 168.116210938 495.095703125 168.116210938 495.095703125 242.625 547.349609375 c 0,43,44
 366.610351562 634.302734375 366.610351562 634.302734375 564.30078125 648.828125 c 1,0,1
1331.02539062 660.8515625 m 1,45,46
 1279.47949219 797.735351562 1279.47949219 797.735351562 1144.19726562 858.228515625 c 0,47,48
 1072.16796875 890.436523438 1072.16796875 890.436523438 976.6328125 872.337890625 c 128,-1,49
 881.09765625 854.23828125 881.09765625 854.23828125 813.752929688 793.04296875 c 128,-1,50
 746.407226562 731.846679688 746.407226562 731.846679688 713.9375 653.5859375 c 1,51,52
 715.578125 653.604492188 715.578125 653.604492188 718.80859375 653.654296875 c 128,-1,53
 722.0390625 653.705078125 722.0390625 653.705078125 723.5390625 653.72265625 c 2,54,-1
 1289.1953125 660.486328125 l 2,55,56
 1296.33105469 660.572265625 1296.33105469 660.572265625 1310.84375 660.681640625 c 128,-1,57
 1325.35644531 660.790039062 1325.35644531 660.790039062 1331.02539062 660.8515625 c 1,45,46
1356.38476562 520.900390625 m 1,58,59
 1319.83203125 520.844726562 1319.83203125 520.844726562 1290.87109375 520.498046875 c 2,60,-1
 725.212890625 513.732421875 l 2,61,62
 716.403320312 513.626953125 716.403320312 513.626953125 703.612304688 513.395507812 c 128,-1,63
 690.822265625 513.1640625 690.822265625 513.1640625 685.994140625 513.087890625 c 1,64,65
 687.5390625 106.630859375 687.5390625 106.630859375 1003.84570312 90.2626953125 c 0,66,67
 1150.86914062 82.654296875 1150.86914062 82.654296875 1252.4375 207.552734375 c 0,68,69
 1304.43359375 271.491210938 1304.43359375 271.491210938 1330.97851562 356.069335938 c 128,-1,70
 1357.52246094 440.6484375 1357.52246094 440.6484375 1356.38476562 520.900390625 c 1,58,59
545.962890625 506.451171875 m 1,71,72
 408.1171875 492.415039062 408.1171875 492.415039062 343.63671875 447.1953125 c 128,-1,73
 279.15625 401.974609375 279.15625 401.974609375 259.106445312 358.987304688 c 128,-1,74
 239.056640625 316 239.056640625 316 240.896484375 271.212890625 c 128,-1,75
 242.737304688 226.42578125 242.737304688 226.42578125 263.046875 190.482421875 c 128,-1,76
 283.388671875 154.482421875 283.388671875 154.482421875 320.885742188 129.513671875 c 128,-1,77
 358.381835938 104.545898438 358.381835938 104.545898438 398.400390625 99.607421875 c 0,78,79
 484.157226562 89.0244140625 484.157226562 89.0244140625 542.663085938 142.477539062 c 128,-1,80
 601.168945312 195.930664062 601.168945312 195.930664062 606.61328125 271.291015625 c 1,81,82
 547.694335938 381.094726562 547.694335938 381.094726562 545.962890625 506.451171875 c 1,71,72
EndSplineSet
EndChar

StartChar: k2
Encoding: 56 3350 56
Width: 1816
GlyphClass: 2
Flags: MW
AnchorPoint: "dotreph" 1053.4 1195.02 basechar 0
LayerCount: 2
Back
Fore
SplineSet
1596.92382812 1030.82128906 m 132,-1,1
 1617.37792969 1051.33398438 1617.37792969 1051.33398438 1646.41796875 1051.37402344 c 132,-1,2
 1675.45800781 1051.41503906 1675.45800781 1051.41503906 1695.96972656 1030.90332031 c 132,-1,3
 1716.48242188 1010.390625 1716.48242188 1010.390625 1716.48242188 995.430664062 c 132,-1,4
 1716.48242188 980.469726562 1716.48242188 980.469726562 1716.45800781 979.559570312 c 6,5,-1
 1704.98730469 44.4267578125 l 6,6,7
 1704.6328125 15.8017578125 1704.6328125 15.8017578125 1684.12207031 -4.4560546875 c 132,-1,8
 1663.61132812 -24.71484375 1663.61132812 -24.71484375 1634.98535156 -24.71484375 c 4,9,-1
 899.524414062 -22.5068359375 l 6,10,11
 870.650390625 -22.3974609375 870.650390625 -22.3974609375 850.216796875 -1.8857421875 c 132,-1,12
 829.782226562 18.6259765625 829.782226562 18.6259765625 829.782226562 43.8896484375 c 132,-1,13
 829.782226562 69.1533203125 829.782226562 69.1533203125 844.478515625 88.8232421875 c 132,-1,14
 859.174804688 108.494140625 859.174804688 108.494140625 899.81640625 120.485351562 c 132,-1,15
 940.458984375 132.4765625 940.458984375 132.4765625 992.852539062 171.533203125 c 132,-1,16
 1045.24609375 210.590820312 1045.24609375 210.590820312 1079.63183594 263.493164062 c 4,17,18
 1181.1640625 419.704101562 1181.1640625 419.704101562 1115.45605469 583.583984375 c 132,-1,19
 1049.74707031 747.46484375 1049.74707031 747.46484375 891.077148438 811.216796875 c 4,20,21
 825.53515625 837.55078125 825.53515625 837.55078125 756.176757812 841.717773438 c 4,22,23
 614.642578125 850.220703125 614.642578125 850.220703125 501.232421875 782.490234375 c 132,-1,24
 387.821289062 714.759765625 387.821289062 714.759765625 320.178710938 612.575195312 c 5,25,26
 325.38671875 615.568359375 325.38671875 615.568359375 331.024414062 617.627929688 c 4,27,28
 406.236328125 645.819335938 406.236328125 645.819335938 486.581054688 635.28125 c 132,-1,29
 566.924804688 624.743164062 566.924804688 624.743164062 632.323242188 578.108398438 c 132,-1,30
 697.719726562 531.47265625 697.719726562 531.47265625 733.860351562 458.946289062 c 132,-1,31
 770.000976562 386.418945312 770.000976562 386.418945312 767.852539062 306.125976562 c 132,-1,32
 765.703125 225.83203125 765.703125 225.83203125 725.736328125 155.342773438 c 132,-1,33
 685.76953125 84.8525390625 685.76953125 84.8525390625 617.971679688 41.7822265625 c 132,-1,34
 550.172851562 -1.2890625 550.172851562 -1.2890625 469.379882812 -7.515625 c 132,-1,35
 388.5859375 -13.7431640625 388.5859375 -13.7431640625 308.536132812 21.2509765625 c 132,-1,36
 228.487304688 56.24609375 228.487304688 56.24609375 174.311523438 133.431640625 c 132,-1,37
 120.135742188 210.6171875 120.135742188 210.6171875 105.553710938 304.467773438 c 4,38,39
 80.21875 467.5078125 80.21875 467.5078125 170.462890625 634.708984375 c 132,-1,40
 260.70703125 801.91015625 260.70703125 801.91015625 420.3203125 897.234375 c 4,41,42
 641.677734375 1029.43359375 641.677734375 1029.43359375 885.020507812 961.22265625 c 4,43,44
 1006.71582031 927.109375 1006.71582031 927.109375 1088.64550781 855.357421875 c 4,45,46
 1302.11230469 668.407226562 1302.11230469 668.407226562 1274.83007812 407.122070312 c 4,47,48
 1257.29785156 239.213867188 1257.29785156 239.213867188 1141.49902344 116.766601562 c 5,49,-1
 1565.84863281 115.493164062 l 5,50,-1
 1576.46972656 981.276367188 l 6,51,0
 1576.46972656 1010.30957031 1576.46972656 1010.30957031 1596.92382812 1030.82128906 c 132,-1,1
284.756835938 550.555664062 m 5,52,53
 227.396484375 432.12109375 227.396484375 432.12109375 243.893554688 325.965820312 c 4,54,55
 253.467773438 264.34765625 253.467773438 264.34765625 286.999023438 216.575195312 c 132,-1,56
 320.529296875 168.803710938 320.529296875 168.803710938 365.780273438 149.021484375 c 4,57,58
 460.5078125 107.610351562 460.5078125 107.610351562 542.899414062 159.952148438 c 132,-1,59
 625.291992188 212.294921875 625.291992188 212.294921875 628.1015625 317.291992188 c 4,60,61
 629.0703125 353.46875 629.0703125 353.46875 607.809570312 396.133789062 c 132,-1,62
 586.549804688 438.799804688 586.549804688 438.799804688 551.040039062 464.122070312 c 132,-1,63
 515.529296875 489.444335938 515.529296875 489.444335938 468.265625 495.643554688 c 132,-1,64
 421.001953125 501.84375 421.001953125 501.84375 394.455078125 491.802734375 c 132,-1,65
 367.907226562 481.76171875 367.907226562 481.76171875 347.087890625 481.76171875 c 132,-1,66
 326.267578125 481.76171875 326.267578125 481.76171875 305.758789062 501.91796875 c 132,-1,67
 285.25 522.075195312 285.25 522.075195312 284.756835938 550.555664062 c 5,52,53
EndSplineSet
EndChar

StartChar: k3
Encoding: 57 3351 57
Width: 2171
GlyphClass: 2
Flags: MW
AnchorPoint: "dotreph" 1111.53 1179.02 basechar 0
LayerCount: 2
Back
Fore
SplineSet
1538.58105469 1000.45703125 m 128,-1,1
 1683.13769531 1004.38574219 1683.13769531 1004.38574219 1808.87207031 933.06640625 c 128,-1,2
 1934.63476562 861.731445312 1934.63476562 861.731445312 2005.41503906 735.658203125 c 128,-1,3
 2076.19824219 609.583984375 2076.19824219 609.583984375 2071.61816406 465.07421875 c 128,-1,4
 2067.04003906 320.561523438 2067.04003906 320.561523438 1988.41894531 199.22265625 c 128,-1,5
 1909.79980469 77.8828125 1909.79980469 77.8828125 1779.77441406 14.65234375 c 128,-1,6
 1649.74902344 -48.5791015625 1649.74902344 -48.5791015625 1505.76074219 -35.494140625 c 0,7,8
 1478.99707031 -33.439453125 1478.99707031 -33.439453125 1460.0546875 -12.9873046875 c 128,-1,9
 1441.11328125 7.4638671875 1441.11328125 7.4638671875 1441.11328125 30.3896484375 c 128,-1,10
 1441.11328125 53.314453125 1441.11328125 53.314453125 1450.48535156 69.4423828125 c 0,11,12
 1470.75 104.314453125 1470.75 104.314453125 1511.12011719 104.314453125 c 0,13,14
 1514.78027344 104.314453125 1514.78027344 104.314453125 1518.43066406 103.931640625 c 0,15,16
 1623.58984375 94.3759765625 1623.58984375 94.3759765625 1718.54785156 140.5546875 c 128,-1,17
 1813.51074219 186.735351562 1813.51074219 186.735351562 1870.92675781 275.349609375 c 128,-1,18
 1928.34570312 363.96875 1928.34570312 363.96875 1931.68847656 469.505859375 c 128,-1,19
 1935.03320312 575.046875 1935.03320312 575.046875 1883.33886719 667.12109375 c 128,-1,20
 1831.64648438 759.194335938 1831.64648438 759.194335938 1739.79980469 811.291015625 c 128,-1,21
 1647.95410156 863.387695312 1647.95410156 863.387695312 1542.39941406 860.5078125 c 128,-1,22
 1436.84667969 857.627929688 1436.84667969 857.627929688 1347.97753906 800.599609375 c 0,23,24
 1216.81152344 716.426757812 1216.81152344 716.426757812 1171.27636719 519.486328125 c 128,-1,25
 1125.74121094 322.544921875 1125.74121094 322.544921875 1088.02636719 245.56640625 c 0,26,27
 1026.50097656 119.983398438 1026.50097656 119.983398438 910.321289062 42.142578125 c 128,-1,28
 794.143554688 -35.697265625 794.143554688 -35.697265625 654.598632812 -44.8359375 c 128,-1,29
 515.053710938 -53.974609375 515.053710938 -53.974609375 389.715820312 8.05078125 c 128,-1,30
 264.37890625 70.0751953125 264.37890625 70.0751953125 186.999023438 186.5625 c 128,-1,31
 109.622070312 303.046875 109.622070312 303.046875 101.036132812 442.62890625 c 128,-1,32
 92.4521484375 582.208007812 92.4521484375 582.208007812 154.973632812 707.298828125 c 128,-1,33
 217.495117188 832.388671875 217.495117188 832.388671875 340.51953125 913.409179688 c 128,-1,34
 463.54296875 994.4296875 463.54296875 994.4296875 595.681640625 994.4296875 c 0,35,36
 624.6640625 994.4296875 624.6640625 994.4296875 645.176757812 973.91796875 c 128,-1,37
 665.688476562 953.405273438 665.688476562 953.405273438 665.688476562 925.041015625 c 128,-1,38
 665.688476562 896.676757812 665.688476562 896.676757812 646.0703125 876.18359375 c 128,-1,39
 626.452148438 855.690429688 626.452148438 855.690429688 598.731445312 854.482421875 c 0,40,41
 496.669921875 848.612304688 496.669921875 848.612304688 411.288085938 792.3828125 c 128,-1,42
 325.909179688 736.154296875 325.909179688 736.154296875 280.202148438 644.70703125 c 128,-1,43
 234.497070312 553.259765625 234.497070312 553.259765625 240.772460938 451.22265625 c 128,-1,44
 247.049804688 349.184570312 247.049804688 349.184570312 303.616210938 264.02734375 c 128,-1,45
 360.185546875 178.868164062 360.185546875 178.868164062 451.809570312 133.52734375 c 128,-1,46
 543.435546875 88.1845703125 543.435546875 88.1845703125 645.450195312 94.865234375 c 128,-1,47
 747.463867188 101.545898438 747.463867188 101.545898438 832.395507812 158.451171875 c 0,48,49
 946.587890625 234.959960938 946.587890625 234.959960938 988.186523438 375.399414062 c 0,50,51
 999.733398438 414.385742188 999.733398438 414.385742188 1008.45214844 454.15625 c 128,-1,52
 1017.16992188 493.92578125 1017.16992188 493.92578125 1033.48242188 564.548828125 c 0,53,54
 1087.87402344 800.034179688 1087.87402344 800.034179688 1272.36621094 918.42578125 c 0,55,0
 1394.05273438 996.513671875 1394.05273438 996.513671875 1538.58105469 1000.45703125 c 128,-1,1
EndSplineSet
EndChar

StartChar: k4
Encoding: 58 3352 58
Width: 2570
GlyphClass: 2
Flags: MW
AnchorPoint: "dotreph" 1463.7 1195.02 basechar 0
LayerCount: 2
Back
Fore
SplineSet
2330.45117188 938.068359375 m 6,0,1
 2330.4453125 938.578125 2330.4453125 938.578125 2330.4453125 953.073242188 c 132,-1,2
 2330.4453125 967.568359375 2330.4453125 967.568359375 2350.87011719 988.282226562 c 132,-1,3
 2371.29492188 1008.99707031 2371.29492188 1008.99707031 2400.45214844 1008.99707031 c 132,-1,4
 2429.43457031 1008.99707031 2429.43457031 1008.99707031 2449.94628906 988.485351562 c 132,-1,5
 2470.45898438 967.97265625 2470.45898438 967.97265625 2470.45898438 953.185546875 c 132,-1,6
 2470.45898438 938.3984375 2470.45898438 938.3984375 2470.45117188 937.931640625 c 6,7,-1
 2469.56640625 35.771484375 l 6,8,9
 2469.53417969 6.822265625 2469.53417969 6.822265625 2449.02441406 -13.6669921875 c 132,-1,10
 2428.51464844 -34.1572265625 2428.51464844 -34.1572265625 2399.56640625 -34.16015625 c 6,11,-1
 1196.09570312 -34.16015625 l 6,12,13
 1167.11523438 -34.1572265625 1167.11523438 -34.1572265625 1146.60644531 -13.6455078125 c 132,-1,14
 1126.09667969 6.8671875 1126.09667969 6.8671875 1126.09667969 21.662109375 c 132,-1,15
 1126.09667969 36.45703125 1126.09667969 36.45703125 1126.10742188 37.083984375 c 6,16,-1
 1128.61523438 178.2265625 l 5,17,-1
 589.10546875 179.919921875 l 6,18,19
 560.2265625 180.024414062 560.2265625 180.024414062 539.788085938 200.536132812 c 132,-1,20
 519.350585938 221.047851562 519.350585938 221.047851562 519.350585938 244.477539062 c 4,21,22
 519.350585938 293.358398438 519.350585938 293.358398438 558.26171875 312.6484375 c 4,23,24
 619.669921875 343.057617188 619.669921875 343.057617188 653.46484375 402.669921875 c 132,-1,25
 687.258789062 462.280273438 687.258789062 462.280273438 681.814453125 530.587890625 c 132,-1,26
 676.370117188 598.897460938 676.370117188 598.897460938 633.5625 652.40234375 c 132,-1,27
 590.755859375 705.90625 590.755859375 705.90625 528.82421875 725.114257812 c 132,-1,28
 466.893554688 744.322265625 466.893554688 744.322265625 407.689453125 730.08984375 c 132,-1,29
 348.38671875 715.834960938 348.38671875 715.834960938 306.215820312 674.295898438 c 132,-1,30
 264.045898438 632.756835938 264.045898438 632.756835938 248.38671875 577.265625 c 132,-1,31
 232.7265625 521.774414062 232.7265625 521.774414062 246.58984375 465.8125 c 132,-1,32
 260.453125 409.848632812 260.453125 409.848632812 300.205078125 368.083984375 c 132,-1,33
 339.955078125 326.321289062 339.955078125 326.321289062 378.0703125 315.013671875 c 4,34,35
 445.9375 294.879882812 445.9375 294.879882812 445.9375 242.400390625 c 4,36,37
 445.9375 213.41796875 445.9375 213.41796875 425.424804688 192.905273438 c 132,-1,38
 404.913085938 172.393554688 404.913085938 172.393554688 385.021484375 172.393554688 c 132,-1,39
 365.130859375 172.393554688 365.130859375 172.393554688 354.837890625 175.646484375 c 4,40,41
 264.11328125 202.9375 264.11328125 202.9375 198.794921875 271.5625 c 132,-1,42
 133.477539062 340.186523438 133.477539062 340.186523438 110.697265625 432.1484375 c 132,-1,43
 87.9169921875 524.107421875 87.9169921875 524.107421875 113.6484375 615.2890625 c 132,-1,44
 139.377929688 706.466796875 139.377929688 706.466796875 208.61328125 774.666992188 c 132,-1,45
 277.848632812 842.866210938 277.848632812 842.866210938 374.725585938 866.154296875 c 132,-1,46
 471.603515625 889.44140625 471.603515625 889.44140625 572.421875 858.172851562 c 132,-1,47
 673.239257812 826.904296875 673.239257812 826.904296875 742.87890625 739.865234375 c 132,-1,48
 812.517578125 652.826171875 812.517578125 652.826171875 821.736328125 537.150390625 c 132,-1,49
 830.955078125 421.474609375 830.955078125 421.474609375 766.677734375 319.361328125 c 5,50,-1
 1131.10351562 318.216796875 l 5,51,-1
 1133.26953125 440.111328125 l 6,52,53
 1135.0390625 539.701171875 1135.0390625 539.701171875 1147.38671875 611.442382812 c 132,-1,54
 1159.734375 683.184570312 1159.734375 683.184570312 1200.6875 756.181640625 c 4,55,56
 1286.03125 908.305664062 1286.03125 908.305664062 1461.6171875 962.673828125 c 4,57,58
 1568.65039062 995.27734375 1568.65039062 995.27734375 1679.68261719 980.087890625 c 132,-1,59
 1790.71484375 964.8984375 1790.71484375 964.8984375 1879.95800781 909.056640625 c 4,60,61
 2060.65917969 795.989257812 2060.65917969 795.989257812 2114.46875 595.94921875 c 132,-1,62
 2168.27929688 395.907226562 2168.27929688 395.907226562 2071.49609375 212.755859375 c 4,63,64
 2063.33496094 197.315429688 2063.33496094 197.315429688 2045.20019531 186.388671875 c 132,-1,65
 2027.06542969 175.4609375 2027.06542969 175.4609375 2009.6015625 175.4609375 c 6,66,-1
 1268.63085938 177.787109375 l 5,67,-1
 1267.3515625 105.83984375 l 5,68,-1
 2329.63476562 105.83984375 l 5,69,-1
 2330.45117188 938.068359375 l 6,0,1
1282.57421875 571.525390625 m 4,70,71
 1274.828125 526.5234375 1274.828125 526.5234375 1273.24804688 437.623046875 c 6,72,-1
 1271.11914062 317.77734375 l 5,73,-1
 1964.78710938 315.599609375 l 5,74,75
 2012.36523438 436.563476562 2012.36523438 436.563476562 1976.06054688 571.528320312 c 132,-1,76
 1939.75683594 706.4921875 1939.75683594 706.4921875 1810.79101562 787.189453125 c 4,77,78
 1715.78125 846.638671875 1715.78125 846.638671875 1600.42480469 844.3671875 c 132,-1,79
 1485.06933594 842.095703125 1485.06933594 842.095703125 1394.90625 771.21875 c 132,-1,80
 1304.74414062 700.342773438 1304.74414062 700.342773438 1282.57421875 571.525390625 c 4,70,71
EndSplineSet
EndChar

StartChar: ng
Encoding: 59 3353 59
Width: 1734
GlyphClass: 2
Flags: MW
AnchorPoint: "dotreph" 833.882 1195.02 basechar 0
LayerCount: 2
Back
Fore
SplineSet
248 640 m 1,0,1
 323 665 323 665 383 638 c 0,2,3
 571 558 571 558 564 290 c 0,4,5
 564 287 564 287 564 284 c 0,6,7
 543 101 543 101 452 22 c 0,8,9
 407 -17 407 -17 352 -19.5 c 128,-1,10
 297 -22 297 -22 245 18 c 0,11,12
 103 126 103 126 100 512 c 0,13,14
 100 520 100 520 105 560 c 0,15,16
 144 888 144 888 288 1001 c 0,17,18
 351 1051 351 1051 427.5 1053 c 128,-1,19
 504 1055 504 1055 575 1011 c 1,20,21
 737 914 737 914 833 655 c 1,22,23
 932 894 932 894 1108 991 c 0,24,25
 1252 1070 1252 1070 1379 1011 c 0,26,27
 1521 944 1521 944 1528 723 c 0,28,29
 1530 668 1530 668 1500.5 610.5 c 128,-1,30
 1471 553 1471 553 1430 517 c 1,31,32
 1506 489 1506 489 1555 440 c 0,33,34
 1654 342 1654 342 1630 222 c 128,-1,35
 1606 102 1606 102 1495 40 c 0,36,37
 1339 -47 1339 -47 1117 29 c 0,38,39
 1092 38 1092 38 1080 62 c 128,-1,40
 1068 86 1068 86 1076.5 111 c 128,-1,41
 1085 136 1085 136 1109.5 148 c 128,-1,42
 1134 160 1134 160 1149 155 c 0,43,44
 1326 95 1326 95 1432 154 c 0,45,46
 1491 187 1491 187 1502 243 c 128,-1,47
 1513 299 1513 299 1467 345 c 0,48,49
 1383 428 1383 428 1182 419 c 0,50,51
 1158 418 1158 418 1137.5 435.5 c 128,-1,52
 1117 453 1117 453 1115 479 c 128,-1,53
 1113 505 1113 505 1130.5 526 c 128,-1,54
 1148 547 1148 547 1176 549 c 0,55,56
 1281 558 1281 558 1336.5 607.5 c 128,-1,57
 1392 657 1392 657 1398 722 c 1,58,59
 1393 860 1393 860 1318 896 c 0,60,61
 1257 925 1257 925 1171 877 c 0,62,63
 1059 816 1059 816 988 679 c 128,-1,64
 917 542 917 542 896 388 c 1,65,66
 914 230 914 230 896 63 c 0,67,68
 893 37 893 37 871.5 20 c 128,-1,69
 850 3 850 3 825.5 6 c 128,-1,70
 801 9 801 9 785 26.5 c 128,-1,71
 769 44 769 44 766 63 c 0,72,73
 746 237 746 237 765 388 c 1,74,75
 744 545 744 545 675.5 692.5 c 128,-1,76
 607 840 607 840 508 900 c 1,77,78
 462 926 462 926 431.5 925.5 c 128,-1,79
 401 925 401 925 369 899 c 0,80,81
 286 835 286 835 248 640 c 1,0,1
231 483 m 1,82,83
 236 297 236 297 269 217.5 c 128,-1,84
 302 138 302 138 322 122.5 c 128,-1,85
 342 107 342 107 347 107 c 128,-1,86
 352 107 352 107 367 120 c 0,87,88
 419 165 419 165 435 296 c 1,89,90
 438 474 438 474 341 515 c 0,91,92
 299 533 299 533 255 496 c 0,93,94
 245 487 245 487 231 483 c 1,82,83
EndSplineSet
EndChar

StartChar: ch1
Encoding: 60 3354 60
Width: 1853
GlyphClass: 2
Flags: MW
AnchorPoint: "dotreph" 821.353 1210.02 basechar 0
LayerCount: 2
Back
Fore
SplineSet
1613.33886719 955.916015625 m 2,0,1
 1613.33203125 956.387695312 1613.33203125 956.387695312 1613.33203125 970.91796875 c 128,-1,2
 1613.33203125 985.448242188 1613.33203125 985.448242188 1633.75195312 1006.17382812 c 128,-1,3
 1654.171875 1026.90039062 1654.171875 1026.90039062 1683.33886719 1026.90039062 c 128,-1,4
 1712.32128906 1026.90039062 1712.32128906 1026.90039062 1732.83398438 1006.38867188 c 128,-1,5
 1753.34570312 985.875976562 1753.34570312 985.875976562 1753.34570312 971.125 c 128,-1,6
 1753.34570312 956.374023438 1753.34570312 956.374023438 1753.33886719 955.890625 c 2,7,-1
 1753.17871094 53.9609375 l 2,8,9
 1753.17089844 25.064453125 1753.17089844 25.064453125 1732.71484375 4.5576171875 c 128,-1,10
 1712.25878906 -15.94921875 1712.25878906 -15.94921875 1683.36230469 -16.02734375 c 2,11,-1
 578.026367188 -18.92578125 l 1,12,13
 526.077148438 -25.138671875 526.077148438 -25.138671875 474.534179688 -19.197265625 c 1,14,-1
 171.163085938 -19.9921875 l 2,15,16
 170.524414062 -20.001953125 170.524414062 -20.001953125 155.774414062 -20.001953125 c 128,-1,17
 141.024414062 -20.001953125 141.024414062 -20.001953125 120.51171875 0.509765625 c 128,-1,18
 100 21.0224609375 100 21.0224609375 100 50.0048828125 c 128,-1,19
 100 78.98828125 100 78.98828125 120.51171875 99.5 c 128,-1,20
 141.024414062 120.012695312 141.024414062 120.012695312 170.006835938 120.012695312 c 0,21,-1
 462.606445312 120.7734375 l 2,22,23
 467.760742188 121.544921875 467.760742188 121.544921875 472.97265625 121.544921875 c 128,-1,24
 477.998046875 121.544921875 477.998046875 121.544921875 482.979492188 120.826171875 c 2,25,-1
 566.280273438 121.044921875 l 1,26,27
 719.985351562 142.5390625 719.985351562 142.5390625 793.599609375 277.375 c 0,28,29
 824.224609375 333.469726562 824.224609375 333.469726562 831.017578125 403.53125 c 128,-1,30
 837.810546875 473.592773438 837.810546875 473.592773438 804.794921875 542.15625 c 128,-1,31
 771.779296875 610.719726562 771.779296875 610.719726562 707.734375 645.115234375 c 128,-1,32
 643.690429688 679.510742188 643.690429688 679.510742188 572.250976562 667.5625 c 128,-1,33
 500.814453125 655.614257812 500.814453125 655.614257812 451.625976562 602.443359375 c 128,-1,34
 402.439453125 549.2734375 402.439453125 549.2734375 396.079101562 477.123046875 c 128,-1,35
 389.71875 404.973632812 389.71875 404.973632812 428.844726562 344.017578125 c 0,36,37
 440.456054688 326.456054688 440.456054688 326.456054688 440.456054688 301.439453125 c 128,-1,38
 440.456054688 276.422851562 440.456054688 276.422851562 419.944335938 255.91015625 c 128,-1,39
 399.431640625 235.3984375 399.431640625 235.3984375 365.504882812 235.3984375 c 128,-1,40
 331.578125 235.3984375 331.578125 235.3984375 311.026367188 268.392578125 c 0,41,42
 246.057617188 369.610351562 246.057617188 369.610351562 256.620117188 489.41796875 c 128,-1,43
 267.182617188 609.225585938 267.182617188 609.225585938 348.856445312 697.513671875 c 0,44,45
 453.311523438 810.427734375 453.311523438 810.427734375 606.979492188 810.443359375 c 0,46,47
 695.770507812 810.454101562 695.770507812 810.454101562 773.741210938 768.580078125 c 0,48,49
 878.15234375 712.505859375 878.15234375 712.505859375 929.543945312 605.784179688 c 128,-1,50
 980.935546875 499.061523438 980.935546875 499.061523438 968.004882812 365.696289062 c 128,-1,51
 955.07421875 232.331054688 955.07421875 232.331054688 853.702148438 121.798828125 c 1,52,-1
 1613.19238281 123.7890625 l 1,53,-1
 1613.33886719 955.916015625 l 2,0,1
EndSplineSet
EndChar

StartChar: ch2
Encoding: 61 3355 61
Width: 2361
GlyphClass: 2
Flags: MW
AnchorPoint: "dotreph" 998.882 1195.02 basechar 0
LayerCount: 2
Back
Fore
SplineSet
2093.06 626.562 m 1,0,1
 2084.99 631.364 2084.99 631.364 2078.94 637.612 c 0,2,3
 2041.26 676.581 2041.26 676.581 1990.25 685.886 c 0,4,5
 1886.94 704.729 1886.94 704.729 1802.11 615.853 c 0,6,7
 1761.64 573.451 1761.64 573.451 1747.12 522.674 c 0,8,9
 1684.28 302.952 1684.28 302.952 1779.84 181.908 c 0,10,11
 1832.62 115.053 1832.62 115.053 1943.11 111.759 c 0,12,13
 2018.81 109.51 2018.81 109.51 2077.09 202.183 c 128,-1,14
 2135.37 294.856 2135.37 294.856 2132.36 419.506 c 128,-1,15
 2129.34 544.155 2129.34 544.155 2093.06 626.562 c 1,0,1
1912.32 816.118 m 1,16,17
 1810.06 863.977 1810.06 863.977 1664.5 854.154 c 1,18,19
 1523.81 836.553 1523.81 836.553 1416.41 745.189 c 128,-1,20
 1309 653.825 1309 653.825 1275.54 534.321 c 128,-1,21
 1242.07 414.818 1242.07 414.818 1307.34 303.626 c 0,22,23
 1338.75 250.11 1338.75 250.11 1409.04 198.035 c 128,-1,24
 1479.33 145.96 1479.33 145.96 1583.87 108.538 c 0,25,26
 1626.97 93.1123 1626.97 93.1123 1626.97 56.9502 c 128,-1,27
 1626.97 20.7871 1626.97 20.7871 1607.74 1.56445 c 128,-1,28
 1588.52 -17.6592 1588.52 -17.6592 1561.97 -17.6592 c 2,29,-1
 165.356 -17.6592 l 2,30,31
 143.778 -17.6592 143.778 -17.6592 125.859 -3.96094 c 128,-1,32
 107.941 9.73633 107.941 9.73633 101.86 33.2578 c 128,-1,33
 95.7793 56.7793 95.7793 56.7793 109.579 80.2021 c 128,-1,34
 123.379 103.626 123.379 103.626 150.397 110.61 c 128,-1,35
 177.416 117.596 177.416 117.596 316.389 148.164 c 128,-1,36
 455.362 178.733 455.362 178.733 556.153 219.662 c 128,-1,37
 656.944 260.592 656.944 260.592 695.957 296.674 c 128,-1,38
 734.97 332.755 734.97 332.755 751.025 361.483 c 1,39,40
 790.123 457.735 790.123 457.735 776.309 506.61 c 128,-1,41
 762.494 555.485 762.494 555.485 726.089 583.466 c 0,42,43
 664.088 631.115 664.088 631.115 563.988 623.555 c 128,-1,44
 463.889 615.994 463.889 615.994 404.59 557.198 c 128,-1,45
 345.292 498.401 345.292 498.401 376.266 415.45 c 128,-1,46
 407.24 332.499 407.24 332.499 347.235 309.058 c 0,47,48
 322.5 299.395 322.5 299.395 297.602 310.302 c 128,-1,49
 272.704 321.209 272.704 321.209 263.039 345.949 c 0,50,51
 228.894 429.632 228.894 429.632 242.027 510.869 c 128,-1,52
 255.161 592.105 255.161 592.105 316.132 652.561 c 0,53,54
 406.355 742.02 406.355 742.02 555.117 753.256 c 128,-1,55
 703.879 764.491 703.879 764.491 805.309 686.54 c 0,56,57
 873.358 634.237 873.358 634.237 900.016 539.854 c 128,-1,58
 926.672 445.471 926.672 445.471 869.834 308.587 c 0,59,60
 824.01 198.218 824.01 198.218 634.908 112.341 c 1,61,-1
 1307.33 112.341 l 1,62,63
 1162.62 229.54 1162.62 229.54 1139.27 393.527 c 128,-1,64
 1115.91 557.515 1115.91 557.515 1213.44 708.362 c 128,-1,65
 1310.97 859.21 1310.97 859.21 1477 934.568 c 0,66,67
 1572.78 978.041 1572.78 978.041 1653.74 983.721 c 0,68,69
 1967.24 1005.7 1967.24 1005.7 2134.85 803.621 c 0,70,71
 2256.66 656.748 2256.66 656.748 2261.47 457.77 c 128,-1,72
 2266.28 258.792 2266.28 258.792 2182.57 125.711 c 0,73,74
 2084.48 -30.2334 2084.48 -30.2334 1925.95 -17.4482 c 0,75,76
 1696.67 1.05859 1696.67 1.05859 1619.5 204.877 c 0,77,78
 1561.86 357.094 1561.86 357.094 1621.39 552.725 c 1,79,80
 1645.17 639.708 1645.17 639.708 1707.71 705.232 c 0,81,82
 1798.21 800.053 1798.21 800.053 1912.32 816.118 c 1,16,17
EndSplineSet
EndChar

StartChar: ch3
Encoding: 62 3356 62
Width: 1620
GlyphClass: 2
Flags: MW
AnchorPoint: "dotreph" 848.738 1196.02 basechar 0
LayerCount: 2
Back
Fore
SplineSet
278.708984375 940.568359375 m 4,0,1
 425.767578125 1031.80859375 425.767578125 1031.80859375 641.685546875 1009.1171875 c 4,2,3
 812.813476562 991.135742188 812.813476562 991.135742188 887.080078125 885.068359375 c 5,4,5
 963.409179688 971.815429688 963.409179688 971.815429688 1076.34179688 997.891601562 c 4,6,7
 1149.06542969 1014.68359375 1149.06542969 1014.68359375 1221.94140625 1001.44140625 c 4,8,9
 1342.45019531 979.54296875 1342.45019531 979.54296875 1424.33496094 888.438476562 c 132,-1,10
 1506.21972656 797.333984375 1506.21972656 797.333984375 1512.31347656 690.530273438 c 4,11,12
 1522.94921875 504.119140625 1522.94921875 504.119140625 1389.1640625 373.837890625 c 5,13,14
 1449.54492188 343.189453125 1449.54492188 343.189453125 1490.72460938 278.736328125 c 132,-1,15
 1531.90527344 214.284179688 1531.90527344 214.284179688 1516.11132812 127.2109375 c 132,-1,16
 1500.31738281 40.1376953125 1500.31738281 40.1376953125 1431.57519531 -13.861328125 c 132,-1,17
 1362.83300781 -67.8603515625 1362.83300781 -67.8603515625 1276.53710938 -64.6513671875 c 132,-1,18
 1190.24121094 -61.4423828125 1190.24121094 -61.4423828125 1129.40332031 -8.328125 c 4,19,20
 1035.39941406 73.7392578125 1035.39941406 73.7392578125 1041.7890625 193.138671875 c 5,21,22
 1008.15722656 175.740234375 1008.15722656 175.740234375 913.655273438 123.715820312 c 132,-1,23
 819.15234375 71.69140625 819.15234375 71.69140625 708.891601562 21.9169921875 c 132,-1,24
 598.629882812 -27.8564453125 598.629882812 -27.8564453125 472.170898438 -44.814453125 c 132,-1,25
 345.7109375 -61.7724609375 345.7109375 -61.7724609375 271.475585938 -26.0390625 c 4,26,27
 115.470703125 49.0556640625 115.470703125 49.0556640625 125.154296875 190.65625 c 4,28,29
 129.595703125 255.60546875 129.595703125 255.60546875 171.197265625 305.33984375 c 132,-1,30
 212.797851562 355.073242188 212.797851562 355.073242188 275.07421875 380.130859375 c 5,31,32
 198.06640625 409.697265625 198.06640625 409.697265625 157.450195312 470.016601562 c 4,33,34
 51.423828125 627.477539062 51.423828125 627.477539062 141.072265625 796.072265625 c 4,35,36
 187.973632812 884.2734375 187.973632812 884.2734375 278.708984375 940.568359375 c 4,0,1
799.041015625 680.572265625 m 6,37,38
 799.013671875 681.573242188 799.013671875 681.573242188 799.013671875 684.15234375 c 4,39,40
 799.013671875 779.275390625 799.013671875 779.275390625 755.240234375 825.331054688 c 132,-1,41
 711.466796875 871.385742188 711.466796875 871.385742188 571.2734375 873.603515625 c 4,42,43
 497.166992188 874.77734375 497.166992188 874.77734375 435.177734375 857.427734375 c 5,44,45
 435.743164062 857.206054688 435.743164062 857.206054688 437.01953125 856.759765625 c 4,46,47
 512.889648438 830.267578125 512.889648438 830.267578125 560.056640625 756.037109375 c 132,-1,48
 607.224609375 681.806640625 607.224609375 681.806640625 603.6875 608.973632812 c 4,49,50
 596.948242188 470.161132812 596.948242188 470.161132812 494.71484375 402.47265625 c 5,51,52
 583.1640625 396.59375 583.1640625 396.59375 678.310546875 383.407226562 c 132,-1,53
 773.45703125 370.221679688 773.45703125 370.221679688 835.84765625 364.26953125 c 4,54,55
 999.180664062 348.689453125 999.180664062 348.689453125 1110.43164062 377.5 c 4,56,57
 1134.69433594 386.151367188 1134.69433594 386.151367188 1153.48925781 391.840820312 c 132,-1,58
 1172.28417969 397.530273438 1172.28417969 397.530273438 1179.85253906 400.934570312 c 132,-1,59
 1187.421875 404.337890625 1187.421875 404.337890625 1187.92480469 404.583007812 c 132,-1,60
 1188.42773438 404.827148438 1188.42773438 404.827148438 1214.5078125 416.676757812 c 132,-1,61
 1240.58789062 428.52734375 1240.58789062 428.52734375 1283.62207031 466.170898438 c 132,-1,62
 1326.65722656 503.814453125 1326.65722656 503.814453125 1351.79101562 557.427734375 c 132,-1,63
 1376.92578125 611.041015625 1376.92578125 611.041015625 1373.23535156 675.731445312 c 132,-1,64
 1369.54492188 740.421875 1369.54492188 740.421875 1320.01269531 795.529296875 c 132,-1,65
 1270.48144531 850.637695312 1270.48144531 850.637695312 1211.97949219 861.268554688 c 4,66,67
 1068.09570312 887.413085938 1068.09570312 887.413085938 986.702148438 786.243164062 c 4,68,69
 950.037109375 740.669921875 950.037109375 740.669921875 939.91015625 685.138671875 c 5,70,-1
 943.966796875 494.13671875 l 6,71,72
 943.969726562 493.864257812 943.969726562 493.864257812 943.969726562 493.479492188 c 4,73,74
 943.969726562 464.559570312 943.969726562 464.559570312 923.502929688 444.092773438 c 132,-1,75
 903.03515625 423.625 903.03515625 423.625 874.676757812 423.625 c 132,-1,76
 846.318359375 423.625 846.318359375 423.625 825.8671875 443.282226562 c 132,-1,77
 805.415039062 462.938476562 805.415039062 462.938476562 804.314453125 490.712890625 c 6,78,-1
 799.041015625 680.572265625 l 6,37,38
385.833984375 726.841796875 m 4,79,80
 311.688476562 757.333984375 311.688476562 757.333984375 252.23046875 702.3828125 c 5,81,82
 224.541015625 621.771484375 224.541015625 621.771484375 264.1875 562.694335938 c 132,-1,83
 303.834960938 503.6171875 303.834960938 503.6171875 362.163085938 503.112304688 c 132,-1,84
 420.4921875 502.607421875 420.4921875 502.607421875 452.358398438 558.752929688 c 132,-1,85
 484.224609375 614.897460938 484.224609375 614.897460938 444.140625 677.982421875 c 4,86,87
 422.73828125 711.665039062 422.73828125 711.665039062 385.833984375 726.841796875 c 4,79,80
642.052734375 245.576171875 m 132,-1,89
 522.751953125 261.567382812 522.751953125 261.567382812 446.387695312 265.322265625 c 4,90,91
 324.8515625 271.297851562 324.8515625 271.297851562 280.865234375 218.716796875 c 4,92,93
 249.0859375 180.72265625 249.0859375 180.72265625 276.85546875 140.39453125 c 4,94,95
 321.26953125 75.8955078125 321.26953125 75.8955078125 455.45703125 93.890625 c 132,-1,96
 589.63671875 111.883789062 589.63671875 111.883789062 804.44921875 225.39453125 c 5,97,88
 761.353515625 229.584960938 761.353515625 229.584960938 642.052734375 245.576171875 c 132,-1,89
1378.5078125 151.3125 m 132,-1,99
 1384.66699219 185.26953125 1384.66699219 185.26953125 1367.44042969 212.232421875 c 4,100,101
 1325.27246094 278.231445312 1325.27246094 278.231445312 1220.19726562 262.013671875 c 5,102,103
 1167.28320312 218.778320312 1167.28320312 218.778320312 1184.51757812 153.185546875 c 4,104,105
 1192.76464844 121.799804688 1192.76464844 121.799804688 1218.8125 99.0595703125 c 132,-1,106
 1244.86035156 76.3193359375 1244.86035156 76.3193359375 1280.88085938 74.98046875 c 132,-1,107
 1316.82617188 73.6435546875 1316.82617188 73.6435546875 1344.61523438 95.47265625 c 132,-1,98
 1372.32714844 117.240234375 1372.32714844 117.240234375 1378.5078125 151.3125 c 132,-1,99
EndSplineSet
EndChar

StartChar: ch4
Encoding: 63 3357 63
Width: 3078
GlyphClass: 2
Flags: MW
AnchorPoint: "dotreph" 1414.88 1195.02 basechar 0
LayerCount: 2
Back
Fore
SplineSet
2103 932 m 1,0,1
 2102 756 2102 756 2116 457 c 1,2,3
 2133 411 2133 411 2156 369 c 1,4,5
 2281 165 2281 165 2442 143 c 0,6,7
 2565 126 2565 126 2675 214.5 c 128,-1,8
 2785 303 2785 303 2831.5 450.5 c 128,-1,9
 2878 598 2878 598 2807 737 c 0,10,11
 2753 843 2753 843 2633 918 c 0,12,13
 2610 932 2610 932 2604.5 958.5 c 128,-1,14
 2599 985 2599 985 2613 1007.5 c 128,-1,15
 2627 1030 2627 1030 2653.5 1036 c 128,-1,16
 2680 1042 2680 1042 2702 1028 c 0,17,18
 2852 934 2852 934 2923 796 c 0,19,20
 3018 609 3018 609 2952 399 c 0,21,22
 2898 226 2898 226 2750.5 107.5 c 128,-1,23
 2603 -11 2603 -11 2424 14 c 0,24,25
 2202 45 2202 45 2044 303 c 0,26,27
 2042 306 2042 306 2041 309 c 1,28,29
 1963 145 1963 145 1817.5 64.5 c 128,-1,30
 1672 -16 1672 -16 1534 16.5 c 128,-1,31
 1396 49 1396 49 1346 176 c 0,32,33
 1278 348 1278 348 1421 602 c 1,34,35
 1457 700 1457 700 1445.5 754.5 c 128,-1,36
 1434 809 1434 809 1396 842 c 0,37,38
 1325 902 1325 902 1188.5 891 c 128,-1,39
 1052 880 1052 880 928 801 c 1,40,41
 1027 654 1027 654 1035 446 c 0,42,43
 1046 151 1046 151 927 48 c 0,44,45
 881 8 881 8 822 3.5 c 128,-1,46
 763 -1 763 -1 709 29 c 1,47,48
 612 80 612 80 559.5 205 c 128,-1,49
 507 330 507 330 542 473 c 0,50,51
 592 676 592 676 740 818 c 1,52,53
 677 869 677 869 596 888 c 0,54,55
 474 917 474 917 371 859 c 128,-1,56
 268 801 268 801 239 671 c 0,57,58
 191 449 191 449 383 120 c 0,59,60
 396 97 396 97 389.5 71 c 128,-1,61
 383 45 383 45 360 31.5 c 128,-1,62
 337 18 337 18 310.5 25 c 128,-1,63
 284 32 284 32 271 55 c 0,64,65
 54 427 54 427 112 698 c 0,66,67
 153 886 153 886 303.5 970.5 c 128,-1,68
 454 1055 454 1055 626 1014 c 0,69,70
 751 985 751 985 843 900 c 1,71,72
 1000 1006 1000 1006 1184.5 1021.5 c 128,-1,73
 1369 1037 1369 1037 1480 941 c 0,74,75
 1549 881 1549 881 1570.5 783 c 128,-1,76
 1592 685 1592 685 1541 552 c 0,77,78
 1539 547 1539 547 1537 543 c 0,79,80
 1422 340 1422 340 1467 224 c 0,81,82
 1492 160 1492 160 1572.5 141 c 128,-1,83
 1653 122 1653 122 1752 177 c 0,84,85
 1896 257 1896 257 1952 439 c 1,86,87
 1972 768 1972 768 1973 935 c 1,88,89
 1975 961 1975 961 1994 979 c 128,-1,90
 2013 997 2013 997 2044 997 c 128,-1,91
 2075 997 2075 997 2093 966 c 1,92,-1
 2103 932 l 1,0,1
826 720 m 1,93,94
 709 606 709 606 668 442 c 0,95,96
 643 341 643 341 679 257 c 128,-1,97
 715 173 715 173 770 143 c 1,98,99
 798 129 798 129 811.5 130.5 c 128,-1,100
 825 132 825 132 849 152.5 c 128,-1,101
 873 173 873 173 891.5 246.5 c 128,-1,102
 910 320 910 320 904.5 463 c 128,-1,103
 899 606 899 606 826 720 c 1,93,94
EndSplineSet
EndChar

StartChar: nj
Encoding: 64 3358 64
Width: 2702
GlyphClass: 2
Flags: MW
AnchorPoint: "dotreph" 1374.77 1183.02 basechar 0
LayerCount: 2
Back
Fore
SplineSet
398.209960938 938.971679688 m 0,0,1
 572.801757812 1038.92578125 572.801757812 1038.92578125 759.430664062 996.161132812 c 0,2,3
 862.771484375 972.483398438 862.771484375 972.483398438 950.075195312 902.3359375 c 128,-1,4
 1037.37890625 832.189453125 1037.37890625 832.189453125 1081.90625 736.90234375 c 0,5,6
 1083.38183594 733.744140625 1083.38183594 733.744140625 1083.84082031 732.793945312 c 1,7,8
 1144.04199219 851.547851562 1144.04199219 851.547851562 1247.09863281 919.07421875 c 128,-1,9
 1350.15527344 986.599609375 1350.15527344 986.599609375 1461.23535156 1000.86425781 c 0,10,11
 1620.67578125 1021.33984375 1620.67578125 1021.33984375 1770.35058594 945.319335938 c 1,12,13
 1978.71191406 1026.37988281 1978.71191406 1026.37988281 2179.83886719 973.889648438 c 0,14,15
 2333.78613281 933.713867188 2333.78613281 933.713867188 2445.85253906 822.545898438 c 128,-1,16
 2557.91894531 711.37890625 2557.91894531 711.37890625 2592.60742188 542.346679688 c 128,-1,17
 2627.296875 373.315429688 2627.296875 373.315429688 2535.47363281 209.290039062 c 128,-1,18
 2443.65332031 45.267578125 2443.65332031 45.267578125 2266.92480469 -18.7861328125 c 0,19,20
 2255.53710938 -23.0927734375 2255.53710938 -23.0927734375 2235.66601562 -23.0927734375 c 128,-1,21
 2215.79492188 -23.0927734375 2215.79492188 -23.0927734375 2196.28222656 -3.5810546875 c 128,-1,22
 2176.76953125 15.931640625 2176.76953125 15.931640625 2176.76953125 39.5263671875 c 128,-1,23
 2176.76953125 63.12109375 2176.76953125 63.12109375 2189.88964844 81.5556640625 c 128,-1,24
 2203.00878906 99.9912109375 2203.00878906 99.9912109375 2243.19433594 114.41015625 c 128,-1,25
 2283.37890625 128.830078125 2283.37890625 128.830078125 2335.26074219 172.892578125 c 128,-1,26
 2387.14355469 216.955078125 2387.14355469 216.955078125 2419.26855469 274.342773438 c 0,27,28
 2486.87402344 395.107421875 2486.87402344 395.107421875 2461.21386719 520.142578125 c 128,-1,29
 2435.55371094 645.178710938 2435.55371094 645.178710938 2350.50585938 729.543945312 c 128,-1,30
 2265.45800781 813.91015625 2265.45800781 813.91015625 2149.20214844 844.25 c 128,-1,31
 2032.94628906 874.590820312 2032.94628906 874.590820312 1907.79394531 847.592773438 c 1,32,33
 1990.91308594 768.4296875 1990.91308594 768.4296875 2041.03515625 664.971679688 c 0,34,35
 2148.91113281 442.3046875 2148.91113281 442.3046875 2072.79980469 241.383789062 c 0,36,37
 2030.640625 130.090820312 2030.640625 130.090820312 1937.16601562 57.6357421875 c 128,-1,38
 1843.69238281 -14.8203125 1843.69238281 -14.8203125 1745.53613281 -16.2919921875 c 0,39,40
 1564.046875 -19.0126953125 1564.046875 -19.0126953125 1456.37304688 99.9560546875 c 128,-1,41
 1348.69824219 218.923828125 1348.69824219 218.923828125 1344.35742188 371.340820312 c 128,-1,42
 1340.01660156 523.7578125 1340.01660156 523.7578125 1414.08105469 648.545898438 c 128,-1,43
 1488.14453125 773.333984375 1488.14453125 773.333984375 1610.65332031 859.704101562 c 0,44,45
 1611.10839844 860.025390625 1611.10839844 860.025390625 1612.01464844 860.615234375 c 128,-1,46
 1612.91992188 861.206054688 1612.91992188 861.206054688 1613.34472656 861.502929688 c 1,47,48
 1457.59277344 897.109375 1457.59277344 897.109375 1324.55566406 809.928710938 c 128,-1,49
 1191.51855469 722.747070312 1191.51855469 722.747070312 1159.75488281 540.129882812 c 0,50,51
 1149.1328125 479.0546875 1149.1328125 479.0546875 1147.72363281 359.155273438 c 2,52,-1
 1143.99707031 42.2158203125 l 1,53,-1
 1143.99316406 41.8134765625 l 2,54,55
 1143.34960938 14.9033203125 1143.34960938 14.9033203125 1123.84277344 -4.1416015625 c 128,-1,56
 1104.33691406 -23.1865234375 1104.33691406 -23.1865234375 1077.15917969 -23.1865234375 c 128,-1,57
 1049.98144531 -23.1865234375 1049.98144531 -23.1865234375 1030.46972656 -3.7685546875 c 128,-1,58
 1010.95800781 15.6494140625 1010.95800781 15.6494140625 1010.82519531 43.0869140625 c 2,59,-1
 1013.13964844 356.821289062 l 2,60,61
 1013.98144531 470.918945312 1013.98144531 470.918945312 1004.24511719 542.978515625 c 128,-1,62
 994.509765625 615.0390625 994.509765625 615.0390625 960.258789062 682.580078125 c 128,-1,63
 926.008789062 750.12109375 926.008789062 750.12109375 864.063476562 799.9375 c 128,-1,64
 802.119140625 849.754882812 802.119140625 849.754882812 732.859375 865.397460938 c 0,65,66
 542.333007812 908.428710938 542.333007812 908.428710938 389.3046875 768.327148438 c 0,67,68
 299.994140625 686.561523438 299.994140625 686.561523438 258.719726562 569.055664062 c 1,69,70
 374.251953125 681.858398438 374.251953125 681.858398438 535.25390625 662.479492188 c 0,71,72
 611.943359375 653.249023438 611.943359375 653.249023438 678.166992188 609.895507812 c 128,-1,73
 744.390625 566.541992188 744.390625 566.541992188 784.106445312 498.959960938 c 128,-1,74
 823.823242188 431.37890625 823.823242188 431.37890625 829.473632812 352.428710938 c 128,-1,75
 835.125 273.478515625 835.125 273.478515625 805.438476562 200.928710938 c 128,-1,76
 775.752929688 128.379882812 775.752929688 128.379882812 716.377929688 76.03515625 c 128,-1,77
 657.002929688 23.69140625 657.002929688 23.69140625 581.303710938 3.3349609375 c 0,78,79
 452.772460938 -31.2275390625 452.772460938 -31.2275390625 334.078125 28.3115234375 c 128,-1,80
 215.3828125 87.8505859375 215.3828125 87.8505859375 155.963867188 200.68359375 c 128,-1,81
 96.544921875 313.516601562 96.544921875 313.516601562 100.212890625 436.0078125 c 0,82,83
 105.747070312 620.7890625 105.747070312 620.7890625 218.337890625 776.115234375 c 0,84,85
 292.533203125 878.47265625 292.533203125 878.47265625 398.209960938 938.971679688 c 0,0,1
1761.76269531 795.495117188 m 1,86,87
 1610.57324219 718.6796875 1610.57324219 718.6796875 1533.50292969 588.829101562 c 0,88,89
 1474.23730469 488.973632812 1474.23730469 488.973632812 1477.328125 380.411132812 c 128,-1,90
 1480.41894531 271.848632812 1480.41894531 271.848632812 1551.37597656 193.44921875 c 128,-1,91
 1622.33300781 115.049804688 1622.33300781 115.049804688 1709.78613281 116.360351562 c 128,-1,92
 1797.23925781 117.671875 1797.23925781 117.671875 1858.31835938 165.015625 c 128,-1,93
 1919.39746094 212.359375 1919.39746094 212.359375 1947.64257812 286.922851562 c 0,94,95
 2004.05761719 435.850585938 2004.05761719 435.850585938 1922.32324219 604.557617188 c 0,96,97
 1864.66699219 723.568359375 1864.66699219 723.568359375 1761.76269531 795.495117188 c 1,86,87
415.127929688 515.137695312 m 0,98,99
 375.743164062 498.766601562 375.743164062 498.766601562 351.803710938 474.034179688 c 128,-1,100
 327.865234375 449.302734375 327.865234375 449.302734375 304.665039062 449.302734375 c 0,101,102
 255.866210938 449.302734375 255.866210938 449.302734375 238.465820312 489.375976562 c 1,103,104
 219.051757812 366.69921875 219.051757812 366.69921875 266.176757812 277.2109375 c 128,-1,105
 313.301757812 187.72265625 313.301757812 187.72265625 390.23046875 149.134765625 c 128,-1,106
 467.158203125 110.546875 467.158203125 110.546875 546.721679688 131.942382812 c 0,107,108
 590.938476562 143.833007812 590.938476562 143.833007812 627.890625 176.409179688 c 0,109,110
 703.170898438 242.775390625 703.170898438 242.775390625 696.005859375 342.875 c 128,-1,111
 688.840820312 442.974609375 688.840820312 442.974609375 601.982421875 499.838867188 c 128,-1,112
 515.124023438 556.702148438 515.124023438 556.702148438 415.127929688 515.137695312 c 0,98,99
EndSplineSet
EndChar

StartChar: t1
Encoding: 65 3359 65
Width: 1235
GlyphClass: 2
Flags: MW
AnchorPoint: "dotreph" 515.838 1228.02 basechar 0
LayerCount: 2
Back
Fore
SplineSet
586.4921875 1014.890625 m 0,0,1
 793.953125 989.336914062 793.953125 989.336914062 980.826171875 864.3359375 c 0,2,3
 1012.77734375 843.641601562 1012.77734375 843.641601562 1012.77734375 810.118164062 c 128,-1,4
 1012.77734375 776.59375 1012.77734375 776.59375 992.265625 756.081054688 c 128,-1,5
 971.752929688 735.569335938 971.752929688 735.569335938 946.349609375 735.569335938 c 128,-1,6
 920.946289062 735.569335938 920.946289062 735.569335938 902.98828125 747.970703125 c 0,7,8
 743.790039062 854.458984375 743.790039062 854.458984375 576.396484375 875.075195312 c 0,9,10
 321.359375 906.486328125 321.359375 906.486328125 255.6953125 775.263671875 c 0,11,12
 233.71875 731.344726562 233.71875 731.344726562 244.965820312 691.947265625 c 0,13,14
 282.073242188 561.959960938 282.073242188 561.959960938 516.05859375 584.659179688 c 0,15,16
 545.053710938 587.47265625 545.053710938 587.47265625 599.05078125 594.150390625 c 128,-1,17
 653.131835938 600.838867188 653.131835938 600.838867188 687.403320312 603.720703125 c 0,18,19
 886.3671875 620.455078125 886.3671875 620.455078125 1008.73242188 533.56640625 c 0,20,21
 1079.08886719 483.608398438 1079.08886719 483.608398438 1116.12207031 397.083007812 c 128,-1,22
 1153.15625 310.557617188 1153.15625 310.557617188 1119.23730469 209.678710938 c 128,-1,23
 1085.31933594 108.80078125 1085.31933594 108.80078125 1007.59960938 47.29296875 c 0,24,25
 869.342773438 -62.1240234375 869.342773438 -62.1240234375 653.900390625 -55.86328125 c 0,26,27
 366.590820312 -47.5146484375 366.590820312 -47.5146484375 139.51953125 128.697265625 c 0,28,29
 111.720703125 149.706054688 111.720703125 149.706054688 111.720703125 181.619140625 c 128,-1,30
 111.720703125 213.532226562 111.720703125 213.532226562 132.232421875 234.044921875 c 128,-1,31
 152.745117188 254.556640625 152.745117188 254.556640625 179.474609375 254.556640625 c 128,-1,32
 206.205078125 254.556640625 206.205078125 254.556640625 225.3515625 239.302734375 c 0,33,34
 416.330078125 91.0986328125 416.330078125 91.0986328125 657.966796875 84.078125 c 0,35,36
 822.4453125 79.2998046875 822.4453125 79.2998046875 914.822265625 152.40625 c 0,37,38
 965.859375 192.796875 965.859375 192.796875 984.6484375 248.678710938 c 128,-1,39
 1003.4375 304.560546875 1003.4375 304.560546875 984.6640625 348.421875 c 0,40,41
 922.466796875 493.736328125 922.466796875 493.736328125 648.102539062 459.225585938 c 0,42,43
 532.306640625 444.661132812 532.306640625 444.661132812 518.828125 443.879882812 c 128,-1,44
 505.348632812 443.099609375 505.348632812 443.099609375 487.493164062 441.931640625 c 128,-1,45
 469.637695312 440.764648438 469.637695312 440.764648438 459.237304688 440.973632812 c 128,-1,46
 448.837890625 441.182617188 448.837890625 441.182617188 432.31640625 441.415039062 c 0,47,48
 297.975585938 443.299804688 297.975585938 443.299804688 216.09375 506.604492188 c 128,-1,49
 134.211914062 569.908203125 134.211914062 569.908203125 109.1796875 657.598632812 c 128,-1,50
 84.1474609375 745.288085938 84.1474609375 745.288085938 127.375976562 831.677734375 c 0,51,52
 240.387695312 1057.52050781 240.387695312 1057.52050781 586.4921875 1014.890625 c 0,0,1
EndSplineSet
EndChar

StartChar: t2
Encoding: 66 3360 66
Width: 1246
GlyphClass: 2
Flags: MW
AnchorPoint: "dotreph" 584.385 1170.02 basechar 0
LayerCount: 2
Back
Fore
SplineSet
646.084960938 1043.65332031 m 128,-1,1
 721.427734375 1043.84082031 721.427734375 1043.84082031 815.229492188 1006.35546875 c 128,-1,2
 909.03125 968.870117188 909.03125 968.870117188 982.603515625 899.731445312 c 128,-1,3
 1056.17480469 830.59375 1056.17480469 830.59375 1097.04003906 740.536132812 c 0,4,5
 1168.28808594 592.99609375 1168.28808594 592.99609375 1136.23632812 423.388671875 c 128,-1,6
 1104.18457031 253.780273438 1104.18457031 253.780273438 984.337890625 142.12109375 c 0,7,8
 874.163085938 35.1669921875 874.163085938 35.1669921875 716.63671875 6.2431640625 c 128,-1,9
 559.109375 -22.6806640625 559.109375 -22.6806640625 423.015625 35.4248046875 c 128,-1,10
 286.921875 93.5302734375 286.921875 93.5302734375 200.081054688 213.619140625 c 128,-1,11
 113.240234375 333.708007812 113.240234375 333.708007812 102.595703125 475.75390625 c 1,12,13
 87.986328125 557.245117188 87.986328125 557.245117188 155.618164062 752.8359375 c 0,14,15
 196.439453125 870.893554688 196.439453125 870.893554688 329.782226562 956.069335938 c 0,16,17
 418.051757812 1012.45214844 418.051757812 1012.45214844 494.397460938 1027.95898438 c 128,-1,0
 570.743164062 1043.46679688 570.743164062 1043.46679688 646.084960938 1043.65332031 c 128,-1,1
834.53125 838.559570312 m 128,-1,19
 733.83984375 905.138671875 733.83984375 905.138671875 630.790039062 903.63671875 c 128,-1,20
 527.739257812 902.134765625 527.739257812 902.134765625 444.873046875 858.616210938 c 128,-1,21
 362.0078125 815.09765625 362.0078125 815.09765625 310.569335938 740.780273438 c 0,22,23
 254.291015625 664.783203125 254.291015625 664.783203125 243.412109375 566.80859375 c 128,-1,24
 232.533203125 468.833984375 232.533203125 468.833984375 268.404296875 377.002929688 c 128,-1,25
 304.276367188 285.171875 304.276367188 285.171875 378.419921875 226.43359375 c 0,26,27
 464.697265625 153.572265625 464.697265625 153.572265625 580.819335938 140.283203125 c 128,-1,28
 696.940429688 126.993164062 696.940429688 126.993164062 796.859375 180.010742188 c 0,29,30
 860.80078125 210.201171875 860.80078125 210.201171875 908.920898438 265.799804688 c 128,-1,31
 957.041015625 321.3984375 957.041015625 321.3984375 981.26171875 387.129882812 c 0,32,33
 1034.68359375 532.109375 1034.68359375 532.109375 977.260742188 664.671875 c 1,34,18
 935.221679688 771.98046875 935.221679688 771.98046875 834.53125 838.559570312 c 128,-1,19
EndSplineSet
EndChar

StartChar: t4
Encoding: 68 3362 68
Width: 2362
GlyphClass: 2
Flags: MW
AnchorPoint: "dotreph" 1272.88 1195.02 basechar 0
LayerCount: 2
Back
Fore
SplineSet
1348.81 600.014 m 1,0,1
 1369.92 507.204 1369.92 507.204 1415.18 419.867 c 0,2,3
 1500.14 255.9 1500.14 255.9 1636.3 171.389 c 128,-1,4
 1772.46 86.876 1772.46 86.876 1893.65 115.638 c 128,-1,5
 2014.83 144.399 2014.83 144.399 2080.09 297.675 c 0,6,7
 2118.97 389.002 2118.97 389.002 2132.11 517.664 c 0,8,9
 2133.06 535.676 2133.06 535.676 2132.57 552.709 c 1,10,11
 2075.39 506.477 2075.39 506.477 1995.15 489.329 c 0,12,13
 1870.18 462.621 1870.18 462.621 1762.01 533.989 c 128,-1,14
 1653.83 605.357 1653.83 605.357 1647.85 782.8 c 0,15,16
 1644.9 870.348 1644.9 870.348 1694.05 928.763 c 0,17,18
 1767.96 1016.61 1767.96 1016.61 1902.07 992.949 c 128,-1,19
 2036.18 969.284 2036.18 969.284 2127.81 871.906 c 128,-1,20
 2219.43 774.529 2219.43 774.529 2242.92 682.308 c 128,-1,21
 2266.41 590.086 2266.41 590.086 2261.75 507.548 c 1,22,23
 2246.68 357.065 2246.68 357.065 2199.7 246.75 c 0,24,25
 2108.7 33.0654 2108.7 33.0654 1929.27 -9.51758 c 128,-1,26
 1749.85 -52.1006 1749.85 -52.1006 1585.02 50.2129 c 128,-1,27
 1420.18 152.527 1420.18 152.527 1322.82 318.234 c 1,28,29
 1316.4 283.591 1316.4 283.591 1288.63 201.556 c 128,-1,30
 1260.85 119.521 1260.85 119.521 1227.84 83.7822 c 128,-1,31
 1194.82 48.043 1194.82 48.043 1157.51 19.1182 c 0,32,33
 1070.53 -48.3145 1070.53 -48.3145 911.85 -21.0137 c 128,-1,34
 753.167 6.28711 753.167 6.28711 700.767 118.938 c 128,-1,35
 648.367 231.591 648.367 231.591 683.314 420.462 c 0,36,37
 687.48 442.975 687.48 442.975 695.601 483.615 c 128,-1,38
 703.721 524.255 703.721 524.255 707.118 542.438 c 0,39,40
 750.323 781.831 750.323 781.831 623.725 842.326 c 0,41,42
 590.932 857.996 590.932 857.996 543.949 855.99 c 0,43,44
 443.037 851.681 443.037 851.681 346.565 768.281 c 128,-1,45
 250.093 684.881 250.093 684.881 233.099 545.909 c 0,46,47
 206.396 327.545 206.396 327.545 413.907 79.7275 c 0,48,49
 430.96 59.3594 430.96 59.3594 428.562 32.2852 c 128,-1,50
 426.163 5.21094 426.163 5.21094 405.803 -11.8379 c 128,-1,51
 385.446 -28.8877 385.446 -28.8877 358.368 -26.4932 c 128,-1,52
 331.29 -24.0986 331.29 -24.0986 314.237 -3.7334 c 0,53,54
 70.5098 287.334 70.5098 287.334 104.06 561.689 c 0,55,56
 127.14 750.43 127.14 750.43 259.7 865.03 c 128,-1,57
 392.261 979.631 392.261 979.631 544.561 986.135 c 128,-1,58
 696.86 992.639 696.86 992.639 786.351 868.996 c 128,-1,59
 875.84 745.354 875.84 745.354 834.979 518.949 c 0,60,61
 831.359 499.581 831.359 499.581 823.251 458.994 c 0,62,63
 782.001 252.533 782.001 252.533 812.203 187.604 c 128,-1,64
 842.406 122.673 842.406 122.673 939.193 106.032 c 128,-1,65
 1035.98 89.3916 1035.98 89.3916 1071.31 116.784 c 128,-1,66
 1106.65 144.177 1106.65 144.177 1128.46 167.789 c 128,-1,67
 1150.28 191.402 1150.28 191.402 1180.86 289.735 c 128,-1,68
 1211.44 388.068 1211.44 388.068 1218.38 588.088 c 1,69,70
 1184.19 753.971 1184.19 753.971 1214.62 933.782 c 0,71,72
 1218.39 956.055 1218.39 956.055 1236.15 971.684 c 128,-1,73
 1253.91 987.312 1253.91 987.312 1278.73 987.962 c 128,-1,74
 1303.55 988.612 1303.55 988.612 1323.27 969.899 c 128,-1,75
 1342.99 951.187 1342.99 951.187 1343.57 929.143 c 128,-1,76
 1344.15 907.098 1344.15 907.098 1347.49 790.57 c 128,-1,77
 1350.84 674.043 1350.84 674.043 1348.81 600.014 c 1,0,1
2095.37 699.521 m 1,78,79
 2074.37 738.988 2074.37 738.988 2041.97 773.424 c 0,80,81
 1971.1 848.761 1971.1 848.761 1895.14 862.164 c 128,-1,82
 1819.18 875.567 1819.18 875.567 1797.85 850.206 c 128,-1,83
 1776.51 824.845 1776.51 824.845 1778.15 776.197 c 128,-1,84
 1779.79 727.551 1779.79 727.551 1797.82 690.879 c 128,-1,85
 1815.86 654.207 1815.86 654.207 1838.94 638.979 c 0,86,87
 1896.29 601.138 1896.29 601.138 1969.01 616.678 c 128,-1,88
 2041.72 632.217 2041.72 632.217 2078.07 682.954 c 0,89,90
 2085.01 692.636 2085.01 692.636 2095.37 699.521 c 1,78,79
EndSplineSet
EndChar

StartChar: nh
Encoding: 69 3363 69
Width: 3055
GlyphClass: 2
Flags: MW
AnchorPoint: "dotreph" 1455.39 1195.02 basechar 0
LayerCount: 2
Back
Fore
SplineSet
1988.67773438 793.580078125 m 1,0,1
 2056.97167969 902.514648438 2056.97167969 902.514648438 2209.62402344 987.104492188 c 128,-1,2
 2362.27539062 1071.6953125 2362.27539062 1071.6953125 2566.75488281 1015.62597656 c 0,3,4
 2689.29492188 984.993164062 2689.29492188 984.993164062 2784.67773438 895.40234375 c 0,5,6
 2991.96875 700.69921875 2991.96875 700.69921875 2948.25683594 434.9765625 c 1,7,8
 2924.52929688 241.7421875 2924.52929688 241.7421875 2765.46679688 107.663085938 c 128,-1,9
 2606.40527344 -26.4169921875 2606.40527344 -26.4169921875 2412.25488281 -12.6826171875 c 1,10,11
 2347.56933594 0.0673828125 2347.56933594 0.0673828125 2360.23144531 59.0869140625 c 128,-1,12
 2372.89453125 118.106445312 2372.89453125 118.106445312 2416.60058594 123.86328125 c 1,13,14
 2543.41796875 120.881835938 2543.41796875 120.881835938 2651.73730469 197.143554688 c 0,15,16
 2818.15234375 314.306640625 2818.15234375 314.306640625 2814.11132812 522.01171875 c 0,17,18
 2811.70507812 645.709960938 2811.70507812 645.709960938 2721.51171875 757.581054688 c 0,19,20
 2574.82714844 939.520507812 2574.82714844 939.520507812 2346.65234375 884.56640625 c 0,21,22
 2185.2578125 845.696289062 2185.2578125 845.696289062 2098.43945312 704.842773438 c 0,23,24
 2055.4453125 635.088867188 2055.4453125 635.088867188 2049.53613281 566.767578125 c 128,-1,25
 2043.62695312 498.447265625 2043.62695312 498.447265625 2047.85449219 302.765625 c 128,-1,26
 2052.08203125 107.084960938 2052.08203125 107.084960938 2051.08398438 60.9619140625 c 128,-1,27
 2050.08496094 14.83984375 2050.08496094 14.83984375 2020.40625 -2.0966796875 c 128,-1,28
 1990.72753906 -19.033203125 1990.72753906 -19.033203125 1958.05273438 -9.0302734375 c 128,-1,29
 1925.37890625 0.97265625 1925.37890625 0.97265625 1917.91992188 46.2841796875 c 128,-1,30
 1910.46191406 91.5947265625 1910.46191406 91.5947265625 1909.23925781 199.256835938 c 128,-1,31
 1908.01757812 306.919921875 1908.01757812 306.919921875 1906.55273438 337.006835938 c 128,-1,32
 1905.08886719 367.09375 1905.08886719 367.09375 1905.15820312 430.838867188 c 0,33,34
 1905.45898438 707.920898438 1905.45898438 707.920898438 1835.73828125 783.052734375 c 0,35,36
 1720.36621094 907.376953125 1720.36621094 907.376953125 1583.15234375 888.143554688 c 128,-1,37
 1445.93847656 868.909179688 1445.93847656 868.909179688 1381.35644531 758.200195312 c 1,38,39
 1303.95800781 645.061523438 1303.95800781 645.061523438 1324.03125 426.65234375 c 0,40,41
 1325.21289062 391.856445312 1325.21289062 391.856445312 1330.24023438 259.57421875 c 128,-1,42
 1335.26660156 127.291992188 1335.26660156 127.291992188 1335.75097656 74.2763671875 c 128,-1,43
 1336.23535156 21.2607421875 1336.23535156 21.2607421875 1306.97460938 3.6123046875 c 128,-1,44
 1277.71386719 -14.037109375 1277.71386719 -14.037109375 1244.80664062 -4.8271484375 c 128,-1,45
 1211.90039062 4.3828125 1211.90039062 4.3828125 1201.81933594 37.23828125 c 1,46,47
 1183.09277344 202.576171875 1183.09277344 202.576171875 1184.86914062 327.369140625 c 128,-1,48
 1186.64453125 452.162109375 1186.64453125 452.162109375 1164.36914062 558.845703125 c 128,-1,49
 1142.09277344 665.530273438 1142.09277344 665.530273438 1052.42480469 751.952148438 c 128,-1,50
 962.756835938 838.375 962.756835938 838.375 853.918945312 870.703125 c 0,51,52
 578.748046875 952.436523438 578.748046875 952.436523438 378.528320312 753.588867188 c 0,53,54
 294.309570312 669.947265625 294.309570312 669.947265625 311.311523438 660.659179688 c 1,55,56
 441.243164062 765.020507812 441.243164062 765.020507812 616.788085938 728.057617188 c 128,-1,57
 792.405273438 691.080078125 792.405273438 691.080078125 868.904296875 542.84375 c 1,58,59
 970.431640625 372.66015625 970.431640625 372.66015625 869.918945312 179.142578125 c 128,-1,60
 769.40625 -14.3759765625 769.40625 -14.3759765625 546.849609375 -20.2421875 c 0,61,62
 413.874023438 -23.748046875 413.874023438 -23.748046875 292.404296875 59.9853515625 c 128,-1,63
 170.934570312 143.717773438 170.934570312 143.717773438 130.830078125 262.427734375 c 0,64,65
 57.69140625 478.916992188 57.69140625 478.916992188 158.060546875 683.946289062 c 128,-1,66
 258.428710938 888.975585938 258.428710938 888.975585938 458.912109375 975.224609375 c 1,67,68
 656.951171875 1071.98242188 656.951171875 1071.98242188 881.609375 1007.95800781 c 128,-1,69
 1106.23144531 943.944335938 1106.23144531 943.944335938 1223.48828125 757.494140625 c 1,70,71
 1294.44238281 932.171875 1294.44238281 932.171875 1462.02246094 1000.03222656 c 1,72,73
 1637.72460938 1078.19921875 1637.72460938 1078.19921875 1822.67285156 975.797851562 c 0,74,75
 1937.76757812 912.073242188 1937.76757812 912.073242188 1988.67773438 793.580078125 c 1,0,1
631.477539062 578.655273438 m 0,76,77
 495.780273438 638.37890625 495.780273438 638.37890625 378.989257812 535.174804688 c 1,78,79
 357.533203125 499.673828125 357.533203125 499.673828125 315.329101562 494.3046875 c 128,-1,80
 273.124023438 488.936523438 273.124023438 488.936523438 249.224609375 524.76953125 c 1,81,82
 224.409179688 417.655273438 224.409179688 417.655273438 266.5078125 311.575195312 c 0,83,84
 330.532226562 150.244140625 330.532226562 150.244140625 481.514648438 124.595703125 c 128,-1,85
 632.497070312 98.947265625 632.497070312 98.947265625 726.986328125 212.599609375 c 128,-1,86
 821.475585938 326.251953125 821.475585938 326.251953125 765.575195312 435.245117188 c 128,-1,87
 709.67578125 544.237304688 709.67578125 544.237304688 631.477539062 578.655273438 c 0,76,77
EndSplineSet
EndChar

StartChar: th1
Encoding: 70 3364 70
Width: 1924
GlyphClass: 2
Flags: MW
AnchorPoint: "dotreph" 853.973 1151.02 basechar 0
LayerCount: 2
Back
Fore
SplineSet
946.813476562 944.576171875 m 5,0,1
 1237.81091859 1057.40920243 1237.81091859 1057.40920243 1496.80371094 942.041015625 c 4,2,3
 1612.13671875 890.665039062 1612.13671875 890.665039062 1695.39697266 797.502929688 c 132,-1,4
 1778.65722656 704.340820312 1778.65722656 704.340820312 1806.30908203 596.664550781 c 4,5,6
 1860.74658674 384.685017017 1860.74658674 384.685017017 1755.11816406 208.013671875 c 132,-1,7
 1649.48969392 31.3456728057 1649.48969392 31.3456728057 1449.63378906 -17.919921875 c 4,8,9
 1441.36523438 -20.078125 1441.36523438 -20.078125 1423.30615234 -20.078125 c 132,-1,10
 1405.24707031 -20.078125 1405.24707031 -20.078125 1385.73535156 -0.56640625 c 132,-1,11
 1366.22363281 18.9453125 1366.22363281 18.9453125 1366.22363281 43.6821289062 c 4,12,13
 1366.22363281 99.4209102378 1366.22363281 99.4209102378 1426.24316406 113.845709025 c 4,14,15
 1563.35575366 146.798674084 1563.35575366 146.798674084 1640.65052479 276.076393931 c 132,-1,16
 1717.94529593 405.354113779 1717.94529593 405.354113779 1687.84276515 522.571588139 c 4,17,18
 1633.15665145 735.516080359 1633.15665145 735.516080359 1461.85713432 811.820051898 c 132,-1,19
 1290.55761719 888.124023438 1290.55761719 888.124023438 1106.71191406 852.54296875 c 5,20,21
 1306.22180291 695.190533103 1306.22180291 695.190533103 1328.74876725 469.623220403 c 132,-1,22
 1351.27573159 244.055907704 1351.27573159 244.055907704 1200.27297087 94.5540800774 c 132,-1,23
 1049.27021015 -54.9477475488 1049.27021015 -54.9477475488 844.636198439 8.9501260896 c 132,-1,24
 640.002186724 72.847999728 640.002186724 72.847999728 576.609244571 268.714035257 c 132,-1,25
 513.216302417 464.580070786 513.216302417 464.580070786 589.99573759 616.432199819 c 132,-1,26
 666.775172763 768.284328852 666.775172763 768.284328852 780.116210938 853.0078125 c 5,27,28
 504.496434006 896.968458978 504.496434006 896.968458978 354.341375321 733.312234242 c 132,-1,29
 204.186316635 569.656009505 204.186316635 569.656009505 238.085017776 401.919662167 c 132,-1,30
 271.983718917 234.18331483 271.983718917 234.18331483 405.795898438 152.709960938 c 4,31,32
 471.306640625 112.822265625 471.306640625 112.822265625 519.732421875 106.432128906 c 4,33,34
 602.481445312 95.5127888469 602.481445312 95.5127888469 602.481445312 36.875 c 4,35,36
 602.481445312 9.3046875 602.481445312 9.3046875 582.969726562 -10.20703125 c 132,-1,37
 563.458007812 -29.71875 563.458007812 -29.71875 547.194824219 -29.71875 c 132,-1,38
 530.931640625 -29.71875 530.931640625 -29.71875 477.858398438 -22.4921875 c 132,-1,39
 424.78515625 -15.265625 424.78515625 -15.265625 336.317382812 38.599609375 c 132,-1,40
 247.849609375 92.4658203125 247.849609375 92.4658203125 189.184570312 176.109375 c 4,41,42
 65.6055536615 352.306108228 65.6055536615 352.306108228 110.641886677 560.720989216 c 132,-1,43
 155.678219692 769.135870205 155.678219692 769.135870205 332.474852034 885.84039604 c 132,-1,44
 509.271484375 1002.54492188 509.271484375 1002.54492188 674.768554688 994.810546875 c 132,-1,45
 840.265625 987.076171875 840.265625 987.076171875 946.813476562 944.576171875 c 5,0,1
945.801757812 798.724609375 m 5,46,47
 708.252310365 681.436405815 708.252310365 681.436405815 685.620117188 455.845703125 c 4,48,49
 670.648554586 306.628773998 670.648554586 306.628773998 770.029089868 203.80060021 c 132,-1,50
 869.40962515 100.972426423 869.40962515 100.972426423 1003.14902206 133.824958931 c 132,-1,51
 1136.88841896 166.677491438 1136.88841896 166.677491438 1181.02260142 305.661586001 c 132,-1,52
 1225.15678388 444.645680564 1225.15678388 444.645680564 1157.52620026 584.137802768 c 132,-1,53
 1089.89561664 723.629924971 1089.89561664 723.629924971 945.801757812 798.724609375 c 5,46,47
EndSplineSet
EndChar

StartChar: th2
Encoding: 71 3365 71
Width: 1611
GlyphClass: 2
Flags: MW
AnchorPoint: "dotreph" 732.987 1219.02 basechar 0
LayerCount: 2
Back
Fore
SplineSet
568.8125 518.3984375 m 2,0,1
 567.974609375 648.538085938 567.974609375 648.538085938 588.02734375 742.293945312 c 128,-1,2
 608.080078125 836.049804688 608.080078125 836.049804688 677.762695312 922.387695312 c 128,-1,3
 747.4453125 1008.72558594 747.4453125 1008.72558594 850.39453125 1050.26757812 c 128,-1,4
 953.344726562 1091.81054688 953.344726562 1091.81054688 1063.87792969 1087.63085938 c 0,5,6
 1297.78808594 1078.78613281 1297.78808594 1078.78613281 1421.03320312 915.8671875 c 0,7,8
 1481.328125 836.162109375 1481.328125 836.162109375 1497.75878906 749.680664062 c 128,-1,9
 1514.18945312 663.200195312 1514.18945312 663.200195312 1510.94921875 544.3515625 c 2,10,-1
 1497.76171875 60.673828125 l 2,11,12
 1496.99023438 32.4833984375 1496.99023438 32.4833984375 1476.48632812 12.533203125 c 128,-1,13
 1455.98144531 -7.41796875 1455.98144531 -7.41796875 1427.78125 -7.41796875 c 2,14,-1
 175.205078125 -6.5078125 l 2,15,16
 146.409179688 -6.484375 146.409179688 -6.484375 125.9140625 13.912109375 c 128,-1,17
 105.41796875 34.3076171875 105.41796875 34.3076171875 105.255859375 63.103515625 c 2,18,-1
 100.013671875 1007.58007812 l 2,19,20
 100 1008.24316406 100 1008.24316406 100 1023.08886719 c 128,-1,21
 100 1037.93359375 100 1037.93359375 120.51171875 1058.44628906 c 128,-1,22
 141.024414062 1078.95800781 141.024414062 1078.95800781 170.006835938 1078.95800781 c 128,-1,23
 198.990234375 1078.95800781 198.990234375 1078.95800781 219.501953125 1058.44628906 c 128,-1,24
 240.014648438 1037.93359375 240.014648438 1037.93359375 240.014648438 1008.95117188 c 0,25,26
 240.014648438 1008.84960938 240.014648438 1008.84960938 240.01171875 1008.35742188 c 2,27,-1
 244.8671875 133.44140625 l 1,28,-1
 571.294921875 133.205078125 l 1,29,-1
 568.8125 518.3984375 l 2,0,1
1309.38085938 831.40625 m 0,30,31
 1226.17871094 941.393554688 1226.17871094 941.393554688 1054.82421875 947.87109375 c 128,-1,32
 883.470703125 954.349609375 883.470703125 954.349609375 785.142578125 832.51953125 c 0,33,34
 738 774.110351562 738 774.110351562 723.03515625 704.143554688 c 128,-1,35
 708.0703125 634.177734375 708.0703125 634.177734375 708.810546875 519.30078125 c 2,36,-1
 711.298828125 133.103515625 l 1,37,-1
 1359.66992188 132.6328125 l 1,38,-1
 1371 548.16796875 l 2,39,40
 1373.82910156 651.9140625 1373.82910156 651.9140625 1361.86816406 714.875 c 128,-1,41
 1349.90722656 777.8359375 1349.90722656 777.8359375 1309.38085938 831.40625 c 0,30,31
EndSplineSet
EndChar

StartChar: th3
Encoding: 72 3366 72
Width: 1291
GlyphClass: 2
Flags: MW
AnchorPoint: "dotreph" 609.285 1220.02 basechar 0
LayerCount: 2
Back
Fore
SplineSet
250.010742188 835.502929688 m 128,-1,1
 348.89453125 953.31640625 348.89453125 953.31640625 500.3984375 1018.16308594 c 128,-1,2
 651.903320312 1083.01074219 651.903320312 1083.01074219 804.036132812 1045.921875 c 0,3,4
 890.274414062 1024.8984375 890.274414062 1024.8984375 959.129882812 969.547851562 c 128,-1,5
 1027.984375 914.198242188 1027.984375 914.198242188 1057.68066406 839.46875 c 0,6,7
 1124.19921875 672.079101562 1124.19921875 672.079101562 1027.18261719 530.015625 c 1,8,9
 1073.01953125 507.034179688 1073.01953125 507.034179688 1107.75683594 471.05078125 c 0,10,11
 1172.24609375 404.247070312 1172.24609375 404.247070312 1187.13964844 312.603515625 c 128,-1,12
 1202.03417969 220.956054688 1202.03417969 220.956054688 1165.87792969 145.24609375 c 128,-1,13
 1129.72070312 69.5361328125 1129.72070312 69.5361328125 1068.87695312 25.2421875 c 128,-1,14
 1008.03417969 -19.0517578125 1008.03417969 -19.0517578125 933.747070312 -29.01171875 c 128,-1,15
 859.4609375 -38.9716796875 859.4609375 -38.9716796875 789.098632812 -12.2685546875 c 128,-1,16
 718.736328125 14.4345703125 718.736328125 14.4345703125 669.760742188 71.171875 c 0,17,18
 650.790039062 92.529296875 650.790039062 92.529296875 650.790039062 122.373046875 c 128,-1,19
 650.790039062 152.217773438 650.790039062 152.217773438 672.81640625 174.244140625 c 128,-1,20
 694.842773438 196.270507812 694.842773438 196.270507812 727.936523438 196.270507812 c 128,-1,21
 761.030273438 196.270507812 761.030273438 196.270507812 783.700195312 169.625976562 c 128,-1,22
 806.370117188 142.982421875 806.370117188 142.982421875 854.997070312 124.52734375 c 128,-1,23
 903.624023438 106.073242188 903.624023438 106.073242188 954.65625 132.370117188 c 128,-1,24
 1005.6875 158.666015625 1005.6875 158.666015625 1025.89257812 200.974609375 c 128,-1,25
 1046.09863281 243.283203125 1046.09863281 243.283203125 1038.75097656 288.486328125 c 128,-1,26
 1031.40429688 333.6875 1031.40429688 333.6875 999.596679688 366.63671875 c 0,27,28
 948.33984375 419.733398438 948.33984375 419.733398438 874.543945312 409.7421875 c 1,29,30
 830.399414062 392.961914062 830.399414062 392.961914062 802.658203125 392.961914062 c 128,-1,31
 774.916992188 392.961914062 774.916992188 392.961914062 752.890625 414.98828125 c 128,-1,32
 730.864257812 437.013671875 730.864257812 437.013671875 730.864257812 462.766601562 c 0,33,34
 730.864257812 517.370117188 730.864257812 517.370117188 775.995117188 537.046875 c 0,35,36
 801.271484375 548.041992188 801.271484375 548.041992188 830.342773438 554.466796875 c 1,37,38
 925.772460938 598.618164062 925.772460938 598.618164062 931.857421875 696.155273438 c 128,-1,39
 937.942382812 793.692382812 937.942382812 793.692382812 862.094726562 854.6640625 c 0,40,41
 822.163085938 886.763671875 822.163085938 886.763671875 768.430664062 899.86328125 c 0,42,43
 664.987304688 925.08203125 664.987304688 925.08203125 553.772460938 877.479492188 c 128,-1,44
 442.557617188 829.877929688 442.557617188 829.877929688 365.747070312 738.361328125 c 128,-1,45
 288.936523438 646.845703125 288.936523438 646.845703125 263.110351562 536.6171875 c 128,-1,46
 237.284179688 426.389648438 237.284179688 426.389648438 265.450195312 310.279296875 c 128,-1,47
 293.615234375 194.16796875 293.615234375 194.16796875 367.075195312 108.0234375 c 0,48,49
 385.750976562 86.7470703125 385.750976562 86.7470703125 385.750976562 57.029296875 c 128,-1,50
 385.750976562 27.310546875 385.750976562 27.310546875 363.724609375 5.2841796875 c 128,-1,51
 341.69921875 -16.7421875 341.69921875 -16.7421875 308.465820312 -16.7421875 c 128,-1,52
 275.232421875 -16.7421875 275.232421875 -16.7421875 252.684570312 10.4765625 c 0,53,54
 154.8671875 125.18359375 154.8671875 125.18359375 118.609375 274.659179688 c 128,-1,55
 82.3505859375 424.135742188 82.3505859375 424.135742188 116.739257812 570.912109375 c 128,-1,0
 151.127929688 717.688476562 151.127929688 717.688476562 250.010742188 835.502929688 c 128,-1,1
EndSplineSet
EndChar

StartChar: n1
Encoding: 74 3368 74
Width: 2038
GlyphClass: 2
Flags: MW
AnchorPoint: "dotreph" 987.311 1189.02 basechar 0
LayerCount: 2
Back
Fore
SplineSet
813.100585938 950.352539062 m 128,-1,1
 915.255859375 899.200195312 915.255859375 899.200195312 949.383789062 843.961914062 c 128,-1,2
 983.51171875 788.723632812 983.51171875 788.723632812 993.982421875 776.107421875 c 128,-1,3
 1004.45214844 763.490234375 1004.45214844 763.490234375 1051.39355469 828.645507812 c 0,4,5
 1135.18359375 944.948242188 1135.18359375 944.948242188 1314.19921875 985.041015625 c 128,-1,6
 1493.21386719 1025.1328125 1493.21386719 1025.1328125 1619.96289062 963.375 c 128,-1,7
 1746.71191406 901.618164062 1746.71191406 901.618164062 1818.29199219 812.588867188 c 0,8,9
 1971.58398438 621.930664062 1971.58398438 621.930664062 1928.76171875 408.87109375 c 128,-1,10
 1885.93945312 195.8125 1885.93945312 195.8125 1706.46386719 72.70703125 c 0,11,12
 1592.90917969 -5.181640625 1592.90917969 -5.181640625 1458.14355469 -11.3203125 c 0,13,14
 1449.50585938 -11.20703125 1449.50585938 -11.20703125 1419.50683594 -11.6630859375 c 128,-1,15
 1389.5078125 -12.1201171875 1389.5078125 -12.1201171875 1335.90820312 -6.1513671875 c 128,-1,16
 1282.30761719 -0.181640625 1282.30761719 -0.181640625 1275.05566406 49.859375 c 128,-1,17
 1267.80371094 99.900390625 1267.80371094 99.900390625 1297.81054688 119.453125 c 128,-1,18
 1327.81640625 139.005859375 1327.81640625 139.005859375 1381.70800781 127.470703125 c 128,-1,19
 1435.59863281 115.935546875 1435.59863281 115.935546875 1522.26367188 140.28515625 c 0,20,21
 1710.60351562 193.202148438 1710.60351562 193.202148438 1769.95117188 368.368164062 c 1,22,23
 1822.98046875 495.6484375 1822.98046875 495.6484375 1758.47363281 643.733398438 c 0,24,25
 1669.91308594 847.038085938 1669.91308594 847.038085938 1467.21191406 857.379882812 c 128,-1,26
 1264.51074219 867.720703125 1264.51074219 867.720703125 1161.4609375 745.342773438 c 128,-1,27
 1058.41015625 622.963867188 1058.41015625 622.963867188 1064.69140625 441.21875 c 0,28,29
 1065.74316406 410.765625 1065.74316406 410.765625 1065.38378906 389.68359375 c 128,-1,30
 1065.02441406 368.6015625 1065.02441406 368.6015625 1063.51757812 235.397460938 c 128,-1,31
 1062.00976562 102.193359375 1062.00976562 102.193359375 1057.12011719 51.005859375 c 0,32,33
 1047.96582031 -44.8154296875 1047.96582031 -44.8154296875 965.58203125 -17.044921875 c 0,34,35
 922.15234375 -2.4052734375 922.15234375 -2.4052734375 921.213867188 49.623046875 c 128,-1,36
 920.274414062 101.65234375 920.274414062 101.65234375 921.442382812 134.111328125 c 128,-1,37
 922.609375 166.5703125 922.609375 166.5703125 921.913085938 196.282226562 c 128,-1,38
 921.217773438 225.994140625 921.217773438 225.994140625 922.05859375 287.078125 c 128,-1,39
 922.8984375 348.163085938 922.8984375 348.163085938 923.963867188 426.565429688 c 128,-1,40
 925.028320312 504.967773438 925.028320312 504.967773438 912.465820312 599.456054688 c 128,-1,41
 899.90234375 693.9453125 899.90234375 693.9453125 826.952148438 768.743164062 c 0,42,43
 686.49609375 912.756835938 686.49609375 912.756835938 490.592773438 841.852539062 c 128,-1,44
 294.690429688 770.948242188 294.690429688 770.948242188 254.479492188 587.505859375 c 1,45,46
 228.08203125 494.774414062 228.08203125 494.774414062 258.040039062 398.641601562 c 128,-1,47
 287.997070312 302.509765625 287.997070312 302.509765625 362.03125 234.25 c 128,-1,48
 436.065429688 165.991210938 436.065429688 165.991210938 490.1484375 156.439453125 c 128,-1,49
 544.231445312 146.887695312 544.231445312 146.887695312 557.725585938 145.036132812 c 128,-1,50
 571.21875 143.185546875 571.21875 143.185546875 585.557617188 143.047851562 c 128,-1,51
 599.895507812 142.91015625 599.895507812 142.91015625 611.780273438 143.287109375 c 128,-1,52
 623.6640625 143.665039062 623.6640625 143.665039062 639.629882812 145.529296875 c 128,-1,53
 655.595703125 147.393554688 655.595703125 147.393554688 665.767578125 148.780273438 c 128,-1,54
 675.939453125 150.166015625 675.939453125 150.166015625 693.428710938 152.8125 c 128,-1,55
 710.918945312 155.458984375 710.918945312 155.458984375 730.826171875 155.455078125 c 128,-1,56
 750.733398438 155.451171875 750.733398438 155.451171875 768.700195312 129.641601562 c 128,-1,57
 786.666992188 103.83203125 786.666992188 103.83203125 781.685546875 72.7822265625 c 128,-1,58
 776.704101562 41.7314453125 776.704101562 41.7314453125 749.26953125 27.1455078125 c 1,59,60
 593.634765625 -26.0673828125 593.634765625 -26.0673828125 454.204101562 23.78125 c 128,-1,61
 314.7734375 73.62890625 314.7734375 73.62890625 232.91015625 165.181640625 c 0,62,63
 55.107421875 364.026367188 55.107421875 364.026367188 115.163085938 608.83203125 c 1,64,65
 148.779296875 775.90625 148.779296875 775.90625 287.888671875 887.908203125 c 128,-1,66
 426.998046875 999.91015625 426.998046875 999.91015625 568.971679688 1000.70703125 c 128,-1,0
 710.9453125 1001.50390625 710.9453125 1001.50390625 813.100585938 950.352539062 c 128,-1,1
EndSplineSet
EndChar

StartChar: p1
Encoding: 75 3370 75
Width: 1978
GlyphClass: 2
Flags: MW
AnchorPoint: "dotreph" 1019.66 1063.02 basechar 0
LayerCount: 2
Back
Fore
SplineSet
1737.02148438 919.603515625 m 2,0,1
 1737.00101908 931.295847711 1737.00101908 931.295847711 1737.00050954 940.147923856 c 128,-1,2
 1737 949 1737 949 1757.41992188 969.96875 c 128,-1,3
 1778 991 1778 991 1807 991 c 128,-1,4
 1836 991 1836 991 1856.5 970.5 c 128,-1,5
 1877 950 1877 950 1877.00064504 940.131407975 c 128,-1,6
 1877.00129008 930.262815949 1877.00129008 930.262815949 1877.01953125 919.849609375 c 2,7,-1
 1878.54492188 49.060546875 l 2,8,9
 1879 20 1879 20 1857 -2 c 128,-1,10
 1835 -24 1835 -24 1808.53808594 -21.060546875 c 0,11,12
 1808 -21 1808 -21 1807.96289062 -21.05859375 c 2,13,-1
 588.7421875 -10.37109375 l 2,14,15
 560 -10 560 -10 539.5 10.5 c 128,-1,16
 519 31 519 31 519.345703125 54.2587890625 c 0,17,18
 519 103 519 103 558.26171875 122.357421875 c 0,19,20
 620 153 620 153 653.5 212.5 c 128,-1,21
 687 272 687 272 681.5 340.5 c 128,-1,22
 676 409 676 409 633.5 462.5 c 128,-1,23
 591 516 591 516 529 535 c 128,-1,24
 467 554 467 554 407.5 540 c 128,-1,25
 348 526 348 526 306 484 c 128,-1,26
 264 442 264 442 248.5 386.5 c 128,-1,27
 233 331 233 331 246.58984375 275.51953125 c 128,-1,28
 260 220 260 220 300 178 c 128,-1,29
 340 136 340 136 384.314453125 122.953125 c 0,30,31
 446 105 446 105 446 42.9716796875 c 0,32,33
 446 23 446 23 425.487304688 2.5947265625 c 128,-1,34
 405 -18 405 -18 385.068359375 -17.9169921875 c 128,-1,35
 365 -18 365 -18 354.837890625 -14.64453125 c 0,36,37
 264 13 264 13 198.5 81.5 c 128,-1,38
 133 150 133 150 110.5 242 c 128,-1,39
 88 334 88 334 113.5 425 c 128,-1,40
 139 516 139 516 208.5 584.5 c 128,-1,41
 278 653 278 653 375 676 c 128,-1,42
 472 699 472 699 572.5 668 c 128,-1,43
 673 637 673 637 743 550 c 128,-1,44
 813 463 813 463 822 347 c 128,-1,45
 831 231 831 231 766.08984375 128.158203125 c 1,46,-1
 1738.421875 119.525390625 l 1,47,-1
 1737.02148438 919.603515625 l 2,0,1
EndSplineSet
EndChar

StartChar: p2
Encoding: 76 3371 76
Width: 2113
GlyphClass: 2
Flags: MW
AnchorPoint: "dotreph" 1145.88 1196.02 basechar 0
LayerCount: 2
Back
Fore
SplineSet
1214 112 m 1,0,1
 1067 261 1067 261 1060 519 c 0,2,3
 1055 698 1055 698 1156.5 832 c 128,-1,4
 1258 966 1258 966 1411.5 1011 c 128,-1,5
 1565 1056 1565 1056 1717.5 977 c 128,-1,6
 1870 898 1870 898 1952 684 c 0,7,8
 2074 366 2074 366 1956 173 c 128,-1,9
 1838 -20 1838 -20 1539 -20 c 1,10,-1
 637 -14 l 2,11,12
 618 -14 618 -14 598.5 -1 c 128,-1,13
 579 12 579 12 573.5 38.5 c 128,-1,14
 568 65 568 65 576.5 77.5 c 128,-1,15
 585 90 585 90 608 124 c 0,16,17
 675 225 675 225 697 318 c 0,18,19
 730 450 730 450 653 494 c 0,20,21
 625 510 625 510 572 514 c 0,22,23
 466 523 466 523 365 469.5 c 128,-1,24
 264 416 264 416 238 340 c 0,25,26
 201 230 201 230 345 99 c 0,27,28
 365 81 365 81 366 54 c 128,-1,29
 367 27 367 27 349 7.5 c 128,-1,30
 331 -12 331 -12 304 -13.5 c 128,-1,31
 277 -15 277 -15 257 3 c 0,32,33
 51 192 51 192 115 382 c 0,34,35
 157 507 157 507 298.5 581.5 c 128,-1,36
 440 656 440 656 595 643 c 128,-1,37
 750 630 750 630 812 506 c 0,38,39
 886 357 886 357 752 115 c 1,40,-1
 1214 112 l 1,0,1
1357 111 m 1,41,-1
 1539 110 l 1,42,43
 1694 110 1694 110 1793 183 c 0,44,45
 1958 306 1958 306 1830 637 c 0,46,47
 1739 875 1739 875 1550 895 c 0,48,49
 1445 906 1445 906 1346 837 c 128,-1,50
 1247 768 1247 768 1211 659.5 c 128,-1,51
 1175 551 1175 551 1200.5 417 c 128,-1,52
 1226 283 1226 283 1308 201 c 0,53,54
 1318 191 1318 191 1333 181 c 128,-1,55
 1348 171 1348 171 1355 151 c 128,-1,56
 1362 131 1362 131 1357 111 c 1,41,-1
EndSplineSet
EndChar

StartChar: p3
Encoding: 77 3372 77
Width: 2514
GlyphClass: 2
Flags: MW
AnchorPoint: "dotreph" 1071.9 1167.02 basechar 0
LayerCount: 2
Back
Fore
SplineSet
1119.63085938 516.134765625 m 1,0,-1
 1123.55273438 438.624023438 l 2,1,2
 1123.56082514 438.612735237 1123.56082514 438.612735237 1123.54492188 437.55859375 c 2,3,-1
 1118.46679688 100.95703125 l 1,4,-1
 1118.20117188 55.51953125 l 2,5,6
 1118 55 1118 55 1118.203125 54.95703125 c 0,7,8
 1118 26 1118 26 1097.69042969 5.4619140625 c 0,9,10
 1077 -15 1077 -15 1048.19628906 -15.0498046875 c 0,11,12
 1008 -15 1008 -15 998.701171875 5.4619140625 c 0,13,14
 985 35 985 35 978.189453125 40.82421875 c 0,15,16
 978.112476974 40.8956399207 978.112476974 40.8956399207 978.203125 56.341796875 c 2,17,-1
 978.3359375 78.97265625 l 2,18,19
 978 81 978 81 978.193359375 82.5234375 c 0,20,21
 978 84 978 84 978.47265625 102.421875 c 2,22,-1
 980.453125 439.810546875 l 2,23,24
 980 443 980 443 979.518554688 467.463867188 c 128,-1,25
 979 492 979 492 978.038085938 528.766601562 c 0,26,27
 976 649 976 649 926.776367188 721.618164062 c 0,28,29
 834 857 834 857 681.79296875 865.43359375 c 0,30,31
 529 874 529 874 409.720703125 779.17578125 c 0,32,33
 331 717 331 717 285.5390625 620.359375 c 1,34,35
 408 707 408 707 554.18359375 674.77734375 c 0,36,37
 640 656 640 656 705.357421875 598.478515625 c 0,38,39
 771 541 771 541 800.951171875 458.703125 c 0,40,41
 831 377 831 377 817.234375 290.15234375 c 0,42,43
 804 204 804 204 750.166015625 134.662109375 c 0,44,45
 697 66 697 66 616.392578125 30.8359375 c 0,46,47
 536 -4 536 -4 443.916992188 4.94140625 c 128,-1,48
 352 14 352 14 273.041015625 72.0595703125 c 128,-1,49
 194 130 194 130 152.159179688 214.713867188 c 0,50,51
 68 383 68 383 119.801757812 576.064453125 c 0,52,53
 172 769 172 769 327.944335938 893.005859375 c 128,-1,54
 484 1017 484 1017 683.810546875 1005.54296875 c 0,55,56
 790 999 790 999 893.026367188 944.331054688 c 0,57,58
 996 889 996 889 1058.27539062 772.537109375 c 1,59,60
 1125 878 1125 878 1224.72363281 933.708007812 c 0,61,62
 1324 990 1324 990 1425.11523438 1001.26953125 c 0,63,64
 1593 1020 1593 1020 1738.56054688 934.423828125 c 128,-1,65
 1884 849 1884 849 1950.66015625 693.087890625 c 0,66,67
 1998 582 1998 582 1991.07617188 459.926757812 c 0,68,69
 1979 256 1979 256 1832.93359375 115.84765625 c 1,70,-1
 2274.9765625 117.66796875 l 5,71,-1
 2274.9765625 955.8828125 l 6,72,73
 2275 971 2275 971 2274.96972656 970.891601562 c 4,74,75
 2275 985 2275 985 2295.38867188 1006.15039062 c 4,76,77
 2316 1027 2316 1027 2339.89550781 1026.87988281 c 4,78,79
 2364 1027 2364 1027 2380.11035156 1017.5078125 c 4,80,81
 2415 997 2415 997 2414.98339844 956.872070312 c 4,82,83
 2415 956 2415 956 2414.9765625 955.8828125 c 6,84,-1
 2414.9765625 47.8828125 l 6,85,86
 2415 19 2415 19 2394.52636719 -1.515625 c 132,-1,87
 2373.98756787 -22.0124066942 2373.98756787 -22.0124066942 2345.19140625 -22.1171875 c 6,88,-1
 1533.06835938 -25.072265625 l 2,89,90
 1504 -25 1504 -25 1483.46972656 -4.5595703125 c 128,-1,91
 1463 16 1463 16 1462.95800781 43.126953125 c 0,92,93
 1463 70 1463 70 1480.75195312 90.6318359375 c 0,94,95
 1499 111 1499 111 1523.6875 114.32421875 c 0,96,97
 1609 126 1609 126 1684.64550781 176.447265625 c 0,98,99
 1760 227 1760 227 1802.84375 302.12890625 c 0,100,101
 1845 377 1845 377 1850.63085938 467.909179688 c 0,102,103
 1856 559 1856 559 1827.24707031 625.620117188 c 0,104,105
 1773 751 1773 751 1667.83984375 813.59765625 c 0,106,107
 1562 876 1562 876 1440.84960938 862.15625 c 0,108,109
 1369 854 1369 854 1303.68261719 817.05078125 c 0,110,111
 1238 780 1238 780 1194.16796875 722.9453125 c 0,112,113
 1125 633 1125 633 1119.63085938 516.134765625 c 1,0,-1
524.228515625 538.021484375 m 0,114,115
 416.66796875 561.5859375 416.66796875 561.5859375 339.27734375 483.251953125 c 0,116,117
 318.618164062 461.774414062 318.618164062 461.774414062 291.3203125 461.774414062 c 128,-1,118
 264.022460938 461.774414062 264.022460938 461.774414062 244.75390625 477.3828125 c 1,119,120
 232.609375 366.7265625 232.609375 366.7265625 268.614257812 294.826171875 c 0,121,122
 338.295898438 155.672851562 338.295898438 155.672851562 455.174804688 144.50390625 c 128,-1,123
 572.053710938 133.3359375 572.053710938 133.3359375 639.48046875 220.388671875 c 128,-1,124
 706.905273438 307.443359375 706.905273438 307.443359375 669.34765625 410.951171875 c 0,125,126
 651.810546875 459.282226562 651.810546875 459.282226562 613.130859375 493.150390625 c 128,-1,127
 574.448242188 527.021484375 574.448242188 527.021484375 524.228515625 538.021484375 c 0,114,115
EndSplineSet
EndChar

StartChar: p4
Encoding: 78 3373 78
Width: 1344
GlyphClass: 2
Flags: MW
AnchorPoint: "dotreph" 611.258 1195.02 basechar 0
LayerCount: 2
Back
Fore
SplineSet
409.907226562 948.7890625 m 0,0,1
 636.65625 1065.09667969 636.65625 1065.09667969 896.395507812 990.294921875 c 0,2,3
 1022.2890625 954.041992188 1022.2890625 954.041992188 1079.03417969 876.54296875 c 0,4,5
 1120.22753906 820.286132812 1120.22753906 820.286132812 1120.62988281 748.578125 c 0,6,7
 1121.45019531 602.29296875 1121.45019531 602.29296875 928.215820312 569.5546875 c 0,8,9
 893.920898438 563.745117188 893.920898438 563.745117188 867.620117188 555.021484375 c 128,-1,10
 841.319335938 546.297851562 841.319335938 546.297851562 836.723632812 516.26171875 c 0,11,12
 831.259765625 480.556640625 831.259765625 480.556640625 903.293945312 469.86328125 c 0,13,14
 915.568359375 468.041015625 915.568359375 468.041015625 945.544921875 466.666015625 c 0,15,16
 1164.9453125 456.603515625 1164.9453125 456.603515625 1226.95410156 291.99609375 c 0,17,18
 1270.7265625 175.799804688 1270.7265625 175.799804688 1208.03613281 68.619140625 c 128,-1,19
 1145.34667969 -38.5615234375 1145.34667969 -38.5615234375 1022.61230469 -57.3671875 c 128,-1,20
 899.875976562 -76.1728515625 899.875976562 -76.1728515625 807.969726562 7.318359375 c 0,21,22
 784.3203125 28.216796875 784.3203125 28.216796875 784.3203125 53.5 c 128,-1,23
 784.3203125 78.7841796875 784.3203125 78.7841796875 793.692382812 94.912109375 c 0,24,25
 813.958007812 129.784179688 813.958007812 129.784179688 847.946289062 129.784179688 c 128,-1,26
 881.93359375 129.784179688 881.93359375 129.784179688 901.58984375 111.670898438 c 0,27,28
 944.34375 72.2734375 944.34375 72.2734375 1001.26660156 80.99609375 c 128,-1,29
 1058.18847656 89.71875 1058.18847656 89.71875 1087.19042969 139.302734375 c 128,-1,30
 1116.19238281 188.887695312 1116.19238281 188.887695312 1095.94238281 242.642578125 c 128,-1,31
 1075.69140625 296.397460938 1075.69140625 296.397460938 1021.18261719 314.5234375 c 0,32,33
 1004.16503906 320.182617188 1004.16503906 320.182617188 955.40234375 324.0078125 c 128,-1,34
 906.640625 327.833007812 906.640625 327.833007812 866.4453125 333.798828125 c 128,-1,35
 826.250976562 339.764648438 826.250976562 339.764648438 776.84375 368.59375 c 128,-1,36
 727.436523438 397.422851562 727.436523438 397.422851562 709.634765625 446.190429688 c 0,37,38
 677.123046875 535.259765625 677.123046875 535.259765625 721.3984375 601.983398438 c 0,39,40
 779.045898438 688.857421875 779.045898438 688.857421875 905.935546875 708.1953125 c 0,41,42
 958.047851562 716.13671875 958.047851562 716.13671875 969.368164062 726.72265625 c 0,43,44
 996.583984375 752.172851562 996.583984375 752.172851562 967.0859375 792.458007812 c 128,-1,45
 937.587890625 832.743164062 937.587890625 832.743164062 850.426757812 858.243164062 c 128,-1,46
 763.265625 883.743164062 763.265625 883.743164062 661.08984375 875.810546875 c 128,-1,47
 558.915039062 867.877929688 558.915039062 867.877929688 473.217773438 823.920898438 c 128,-1,48
 387.520507812 779.962890625 387.520507812 779.962890625 326.112304688 701.083007812 c 128,-1,49
 264.703125 622.202148438 264.703125 622.202148438 249.723632812 543.26171875 c 0,50,51
 220.776367188 390.708984375 220.776367188 390.708984375 292.397460938 267.234375 c 128,-1,52
 364.018554688 143.760742188 364.018554688 143.760742188 498.967773438 97.232421875 c 0,53,54
 518.866210938 90.6640625 518.866210938 90.6640625 532.94921875 71.185546875 c 128,-1,55
 547.03125 51.70703125 547.03125 51.70703125 547.03125 26.7392578125 c 128,-1,56
 547.03125 1.7705078125 547.03125 1.7705078125 526.51953125 -18.7421875 c 128,-1,57
 506.006835938 -39.25390625 506.006835938 -39.25390625 485.413085938 -39.25390625 c 128,-1,58
 464.818359375 -39.25390625 464.818359375 -39.25390625 453.333007812 -35.123046875 c 0,59,60
 269.083984375 28.4052734375 269.083984375 28.4052734375 171.295898438 196.990234375 c 128,-1,61
 73.5087890625 365.573242188 73.5087890625 365.573242188 109.842773438 557.05078125 c 0,62,63
 133.696289062 682.758789062 133.696289062 682.758789062 214.120117188 786.186523438 c 128,-1,64
 294.54296875 889.614257812 294.54296875 889.614257812 409.907226562 948.7890625 c 0,0,1
EndSplineSet
EndChar

StartChar: m1
Encoding: 79 3374 79
Width: 1418
GlyphClass: 2
Flags: MW
AnchorPoint: "dotreph" 689.125 1214.02 basechar 0
LayerCount: 2
Back
Fore
SplineSet
488.857421875 1054.60546875 m 128,-1,1
 659.958007812 1102 659.958007812 1102 856.7890625 1068.921875 c 128,-1,2
 1053.62011719 1035.84472656 1053.62011719 1035.84472656 1187.98339844 909.946289062 c 128,-1,3
 1322.34570312 784.048828125 1322.34570312 784.048828125 1313.1796875 606.525390625 c 1,4,5
 1317.43945312 595.327148438 1317.43945312 595.327148438 1317.43945312 583.34375 c 2,6,-1
 1318.03320312 42.578125 l 2,7,8
 1318.03320312 15.798828125 1318.03320312 15.798828125 1299.12792969 -3.306640625 c 128,-1,9
 1280.22265625 -22.412109375 1280.22265625 -22.412109375 1253.50976562 -22.693359375 c 2,10,-1
 181.37109375 -33.84375 l 2,11,12
 143.366210938 -33.845703125 143.366210938 -33.845703125 124.489257812 -1.3623046875 c 0,13,14
 115.758789062 13.66015625 115.758789062 13.66015625 115.758789062 35.2177734375 c 128,-1,15
 115.758789062 56.7763671875 115.758789062 56.7763671875 133.7109375 75.84765625 c 128,-1,16
 151.662109375 94.9189453125 151.662109375 94.9189453125 177.02734375 96.455078125 c 0,17,18
 601.251953125 120.350585938 601.251953125 120.350585938 963.96484375 341.662109375 c 0,19,20
 1055.02539062 397.223632812 1055.02539062 397.223632812 1109.70898438 454.336914062 c 0,21,22
 1220.25878906 569.799804688 1220.25878906 569.799804688 1167.21484375 710.197265625 c 0,23,24
 1143.52832031 772.890625 1143.52832031 772.890625 1089.7265625 823.302734375 c 0,25,26
 993.1796875 913.766601562 993.1796875 913.766601562 830.032226562 941.184570312 c 128,-1,27
 666.883789062 968.602539062 666.883789062 968.602539062 529.827148438 930.637695312 c 128,-1,28
 392.770507812 892.672851562 392.770507812 892.672851562 304.836914062 784.237304688 c 128,-1,29
 216.903320312 675.801757812 216.903320312 675.801757812 232.857421875 543.82421875 c 0,30,31
 240.776367188 478.3203125 240.776367188 478.3203125 276.366210938 425.115234375 c 128,-1,32
 311.956054688 371.911132812 311.956054688 371.911132812 360.829101562 347.30859375 c 0,33,34
 458.611328125 298.0859375 458.611328125 298.0859375 553.46875 335.38671875 c 0,35,36
 565.336914062 340.241210938 565.336914062 340.241210938 585.24609375 340.241210938 c 128,-1,37
 605.155273438 340.241210938 605.155273438 340.241210938 624.26171875 321.134765625 c 128,-1,38
 643.368164062 302.028320312 643.368164062 302.028320312 643.368164062 279.198242188 c 128,-1,39
 643.368164062 256.368164062 643.368164062 256.368164062 631.010742188 238.493164062 c 128,-1,40
 618.65234375 220.618164062 618.65234375 220.618164062 601.19140625 214.025390625 c 0,41,42
 452.065429688 155.385742188 452.065429688 155.385742188 308.93359375 227.435546875 c 0,43,44
 222.651367188 270.870117188 222.651367188 270.870117188 168.853515625 351.293945312 c 128,-1,45
 115.055664062 431.71875 115.055664062 431.71875 103.709960938 525.5703125 c 0,46,47
 80.8076171875 715.016601562 80.8076171875 715.016601562 199.282226562 861.11328125 c 128,-1,0
 317.756835938 1007.20996094 317.756835938 1007.20996094 488.857421875 1054.60546875 c 128,-1,1
1187.29101562 347.30078125 m 1,48,49
 1129.34375 289.803710938 1129.34375 289.803710938 1020.609375 223.458984375 c 128,-1,50
 911.874023438 157.114257812 911.874023438 157.114257812 780.7109375 102.802734375 c 1,51,-1
 1187.55664062 107.033203125 l 1,52,-1
 1187.29101562 347.30078125 l 1,48,49
EndSplineSet
EndChar

StartChar: y1
Encoding: 80 3375 80
Width: 2065
GlyphClass: 2
Flags: MW
AnchorPoint: "dotreph" 723.054 1201.02 basechar 0
LayerCount: 2
Back
Fore
SplineSet
730.03125 875.353515625 m 5,0,1
 809.185546875 963.744140625 809.185546875 963.744140625 918.598632812 987.37109375 c 132,-1,2
 1028.01074219 1010.99707031 1028.01074219 1010.99707031 1127.72460938 973.724609375 c 132,-1,3
 1227.37402344 936.475585938 1227.37402344 936.475585938 1305.20019531 832.697265625 c 132,-1,4
 1383.02539062 728.918945312 1383.02539062 728.918945312 1368.29882812 577.77734375 c 4,5,6
 1345.0390625 339.043945312 1345.0390625 339.043945312 1150.01953125 161.2734375 c 5,7,8
 1344.73242188 46.1845703125 1344.73242188 46.1845703125 1514.70410156 102.787109375 c 132,-1,9
 1684.67480469 159.389648438 1684.67480469 159.389648438 1766.99121094 290.323242188 c 132,-1,10
 1849.30664062 421.256835938 1849.30664062 421.256835938 1817.18945312 543.047851562 c 132,-1,11
 1785.07226562 664.837890625 1785.07226562 664.837890625 1730.359375 728.341796875 c 4,12,13
 1611.36328125 866.458007812 1611.36328125 866.458007812 1429.25585938 857.884765625 c 4,14,15
 1427.1171875 857.754882812 1427.1171875 857.754882812 1416.5546875 857.754882812 c 132,-1,16
 1405.9921875 857.754882812 1405.9921875 857.754882812 1380.4921875 872.573242188 c 132,-1,17
 1354.9921875 887.392578125 1354.9921875 887.392578125 1354.9921875 921.594726562 c 4,18,19
 1354.9921875 1039.640625 1354.9921875 1039.640625 1543.72753906 990.01171875 c 132,-1,20
 1732.46386719 940.383789062 1732.46386719 940.383789062 1822.80859375 835.5234375 c 4,21,22
 1999.9375 629.935546875 1999.9375 629.935546875 1956.45800781 410.368164062 c 132,-1,23
 1912.97851562 190.801757812 1912.97851562 190.801757812 1756.70507812 69.951171875 c 132,-1,24
 1600.43164062 -50.8994140625 1600.43164062 -50.8994140625 1401.2109375 -50.7216796875 c 132,-1,25
 1201.99023438 -50.5439453125 1201.99023438 -50.5439453125 1029.63085938 72.75390625 c 4,26,27
 1028.96582031 72.3671875 1028.96582031 72.3671875 1026.28027344 70.7783203125 c 4,28,29
 875.995117188 -18.107421875 875.995117188 -18.107421875 697.859375 -18.591796875 c 132,-1,30
 519.870117188 -19.0751953125 519.870117188 -19.0751953125 369.385742188 74.19921875 c 132,-1,31
 218.90234375 167.474609375 218.90234375 167.474609375 156.639648438 309.791015625 c 4,32,33
 31.4169921875 596.018554688 31.4169921875 596.018554688 183.046875 840.58203125 c 4,34,35
 262.045898438 967.626953125 262.045898438 967.626953125 431.615234375 998.040039062 c 132,-1,36
 601.18359375 1028.453125 601.18359375 1028.453125 730.03125 875.353515625 c 5,0,1
688.12890625 663.9453125 m 4,37,38
 607.68359375 887.385742188 607.68359375 887.385742188 434.013671875 856.234375 c 4,39,40
 348.291992188 840.859375 348.291992188 840.859375 299.674804688 761.934570312 c 132,-1,41
 251.057617188 683.009765625 251.057617188 683.009765625 244.06640625 579.122070312 c 4,42,43
 227.106445312 327.102539062 227.106445312 327.102539062 447.322265625 190.606445312 c 132,-1,44
 667.537109375 54.109375 667.537109375 54.109375 917.931640625 172.052734375 c 5,45,46
 810.115234375 290.14453125 810.115234375 290.14453125 774.990234375 389.162109375 c 132,-1,47
 739.866210938 488.1796875 739.866210938 488.1796875 719.630859375 560.415039062 c 132,-1,48
 699.395507812 632.651367188 699.395507812 632.651367188 688.12890625 663.9453125 c 4,37,38
1179.21875 767.341796875 m 4,49,50
 1093.32617188 881.874023438 1093.32617188 881.874023438 975.375 856.404296875 c 132,-1,51
 857.422851562 830.935546875 857.422851562 830.935546875 807.1015625 744.212890625 c 5,52,53
 828.182617188 693.190429688 828.182617188 693.190429688 851.637695312 609.459960938 c 132,-1,54
 875.09375 525.729492188 875.09375 525.729492188 906.015625 438.561523438 c 132,-1,55
 936.936523438 351.392578125 936.936523438 351.392578125 1037.85351562 249.15234375 c 5,56,57
 1253.51269531 430.294921875 1253.51269531 430.294921875 1226.53613281 644.719726562 c 4,58,59
 1217.53710938 716.245117188 1217.53710938 716.245117188 1179.21875 767.341796875 c 4,49,50
EndSplineSet
EndChar

StartChar: r3
Encoding: 81 3376 81
Width: 1502
GlyphClass: 2
Flags: MW
LayerCount: 2
Back
Fore
SplineSet
229.465820312 839.686523438 m 132,-1,1
 315.30078125 941.190429688 315.30078125 941.190429688 450.723096513 1003.21823507 c 132,-1,2
 586.145411777 1065.24604045 586.145411777 1065.24604045 751.985303545 1055.57614522 c 4,3,4
 1090.20110296 1035.85524871 1090.20110296 1035.85524871 1272.73535156 817.087890625 c 4,5,6
 1371.15332031 699.133789062 1371.15332031 699.133789062 1396.22412109 549.018554688 c 132,-1,7
 1421.29492188 398.903320312 1421.29492188 398.903320312 1355.99511719 262.05859375 c 4,8,9
 1313.84863281 173.735351562 1313.84863281 173.735351562 1238.515625 109.349609375 c 132,-1,10
 1163.18164062 44.9638671875 1163.18164062 44.9638671875 1069.37207031 17.080078125 c 132,-1,11
 975.564453125 -10.798828125 975.564453125 -10.798828125 877.3046875 1.97265625 c 132,-1,12
 779.044921875 14.744140625 779.044921875 14.744140625 695.481445312 65.669921875 c 132,-1,13
 611.927734375 116.58984375 611.927734375 116.58984375 555.533203125 198.055664062 c 132,-1,14
 499.138671875 279.521484375 499.138671875 279.521484375 485.360839844 351.502441406 c 4,15,16
 442.051623436 577.767273076 442.051623436 577.767273076 566.874023438 742.716796875 c 4,17,18
 661.442227744 867.6853045 661.442227744 867.6853045 812.372070312 909.79296875 c 5,19,20
 635.332203499 933.788760094 635.332203499 933.788760094 493.043945312 868.615234375 c 4,21,22
 403.522460938 827.611328125 403.522460938 827.611328125 337.7421875 749.90234375 c 132,-1,23
 271.961914062 672.192382812 271.961914062 672.192382812 253.198242188 592.088867188 c 4,24,25
 216.89666854 437.11473999 216.89666854 437.11473999 284.776367188 307.2109375 c 132,-1,26
 352.653666668 177.31172638 352.653666668 177.31172638 488.893554688 123.263671875 c 4,27,28
 533.985351562 106.091668183 533.985351562 106.091668183 533.985351562 49.8989257812 c 4,29,30
 533.985351562 28.857421875 533.985351562 28.857421875 513.473632812 8.345703125 c 132,-1,31
 492.9609375 -12.166015625 492.9609375 -12.166015625 471.529296875 -12.166015625 c 132,-1,32
 450.09765625 -12.166015625 450.09765625 -12.166015625 437.268554688 -6.87109375 c 4,33,34
 252.670240867 66.3598509975 252.670240867 66.3598509975 160.694335938 242.373046875 c 132,-1,35
 68.7192693775 418.384638375 68.7192693775 418.384638375 114.012695312 611.744140625 c 4,36,0
 143.629882812 738.182617188 143.629882812 738.182617188 229.465820312 839.686523438 c 132,-1,1
1018.64160156 776.720703125 m 132,-1,38
 923.467516157 801.285599017 923.467516157 801.285599017 830.645507812 768.951171875 c 132,-1,39
 737.8203125 736.615234375 737.8203125 736.615234375 687.944824219 670.705078125 c 132,-1,40
 638.069335938 604.794921875 638.069335938 604.794921875 621.999023438 536.19921875 c 4,41,42
 589.202801681 396.21140808 589.202801681 396.21140808 671.026367188 278.010742188 c 132,-1,43
 752.858033771 159.799259681 752.858033771 159.799259681 895.408203125 141.26953125 c 132,-1,44
 1037.97488189 122.737915879 1037.97488189 122.737915879 1156.05375509 223.656971857 c 132,-1,45
 1274.1326283 324.576027835 1274.1326283 324.576027835 1261.04980469 498.484375 c 4,46,47
 1259.63085938 503.380859375 1259.63085938 503.380859375 1258.93847656 508.419921875 c 4,48,49
 1244.97070312 605.713867188 1244.97070312 605.713867188 1179.39160156 678.935546875 c 132,-1,37
 1113.81542969 752.155273438 1113.81542969 752.155273438 1018.64160156 776.720703125 c 132,-1,38
EndSplineSet
EndChar

StartChar: rh
Encoding: 82 3377 82
Width: 1395
GlyphClass: 2
Flags: MW
LayerCount: 2
Back
Fore
SplineSet
837.60546875 1004.17578125 m 4,0,1
 996.91015625 972.53515625 996.91015625 972.53515625 1119.77148438 857.076171875 c 4,2,3
 1387.94238281 605.063476562 1387.94238281 605.063476562 1247.94335938 272.868164062 c 4,4,5
 1182.71972656 118.102539062 1182.71972656 118.102539062 1040.24414062 37.685546875 c 4,6,7
 1031.34277344 33.533203125 1031.34277344 33.533203125 1018.09277344 26.6533203125 c 4,8,9
 866.673828125 -51.9697265625 866.673828125 -51.9697265625 837.327148438 19.47265625 c 132,-1,10
 807.98046875 90.9150390625 807.98046875 90.9150390625 868.513671875 116.514648438 c 5,11,12
 1119.88671875 188.09375 1119.88671875 188.09375 1145.04785156 414.387695312 c 132,-1,13
 1170.20996094 640.681640625 1170.20996094 640.681640625 992.717773438 782.203125 c 132,-1,14
 815.225585938 923.724609375 815.225585938 923.724609375 550.413085938 861.212890625 c 4,15,16
 452.065429688 837.997070312 452.065429688 837.997070312 356.936523438 744.724609375 c 4,17,18
 194.173828125 585.13671875 194.173828125 585.13671875 247.51171875 400.741210938 c 132,-1,19
 300.848632812 216.346679688 300.848632812 216.346679688 445.739257812 150.88671875 c 4,20,21
 463.890625 138.774414062 463.890625 138.774414062 492.083984375 132.5 c 4,22,23
 635.985351562 100.47265625 635.985351562 100.47265625 605.811523438 23.9248046875 c 4,24,25
 588.178710938 -20.8076171875 588.178710938 -20.8076171875 544.247070312 -20.4921875 c 4,26,27
 392.8984375 -7.1416015625 392.8984375 -7.1416015625 269.984375 99.18359375 c 132,-1,28
 147.071289062 205.509765625 147.071289062 205.509765625 111.797851562 371.818359375 c 132,-1,29
 76.5244140625 538.126953125 76.5244140625 538.126953125 146.715820312 689.25390625 c 132,-1,30
 216.908203125 840.379882812 216.908203125 840.379882812 402.104492188 949.561523438 c 132,-1,31
 587.301757812 1058.74316406 587.301757812 1058.74316406 837.60546875 1004.17578125 c 4,0,1
EndSplineSet
EndChar

StartChar: l3
Encoding: 83 3378 83
Width: 1751
GlyphClass: 2
Flags: MW
AnchorPoint: "dotreph" 822.877 1216.02 basechar 0
LayerCount: 2
Back
Fore
SplineSet
1510.82324219 969.791992188 m 4,0,1
 1529.16610008 1013.06054688 1529.16610008 1013.06054688 1566.77592113 1013.06054688 c 132,-1,2
 1604.38574219 1013.06054688 1604.38574219 1013.06054688 1624.89746094 992.548828125 c 132,-1,3
 1645.41015625 972.037109375 1645.41015625 972.037109375 1645.41015625 943.053710938 c 6,4,-1
 1651.21289062 31.00390625 l 6,5,6
 1651.21386719 1.58203125 1651.21386719 1.58203125 1630.70214844 -18.9306640625 c 132,-1,7
 1610.18945312 -39.4423828125 1610.18945312 -39.4423828125 1581.20703125 -39.4423828125 c 4,8,9
 1580.76171875 -39.4423828125 1580.76171875 -39.4423828125 1580.38476562 -39.4375 c 6,10,-1
 171.701171875 -22.71484375 l 6,11,12
 143.26953125 -22.3740234375 143.26953125 -22.3740234375 123.00390625 -2.0107421875 c 132,-1,13
 102.73828125 18.353515625 102.73828125 18.353515625 102.53515625 46.78515625 c 6,14,-1
 100.0625 395.880859375 l 6,15,16
 99.2919921875 504.64453125 99.2919921875 504.64453125 110.624023438 582.869140625 c 132,-1,17
 121.956054688 661.09375 121.956054688 661.09375 164.374511719 741.458496094 c 132,-1,18
 206.79296875 821.823242188 206.79296875 821.823242188 280.708984375 881.741210938 c 132,-1,19
 354.625 941.659179688 354.625 941.659179688 463.716796875 974.228027344 c 132,-1,20
 572.80859375 1006.796875 572.80859375 1006.796875 702.611328125 976.123046875 c 132,-1,21
 832.4140625 945.44921875 832.4140625 945.44921875 929.619140625 854.126953125 c 132,-1,22
 1026.82421875 762.803710938 1026.82421875 762.803710938 1065.52929688 635.1640625 c 132,-1,23
 1104.23339844 507.52734375 1104.23339844 507.52734375 1074.11914062 377.595703125 c 4,24,25
 1068.91601562 355.158203125 1068.91601562 355.158203125 1048.93457031 339.279296875 c 132,-1,26
 1028.953125 323.400390625 1028.953125 323.400390625 1017.02685547 323.400390625 c 132,-1,27
 1005.10058594 323.400390625 1005.10058594 323.400390625 1004.27539062 323.419921875 c 6,28,-1
 240.451171875 341.44140625 l 5,29,-1
 242.044921875 116.4609375 l 5,30,-1
 1510.76171875 101.3984375 l 5,31,-1
 1505.41015625 941.619140625 l 6,32,33
 1505.39550781 942.360351562 1505.39550781 942.360351562 1505.39550781 949.673828125 c 132,-1,34
 1505.39550781 956.987304688 1505.39550781 956.987304688 1510.82324219 969.791992188 c 4,0,1
670.416015625 839.876953125 m 132,-1,36
 577.015853414 861.948061964 577.015853414 861.948061964 499.617789988 838.840730201 c 4,37,38
 253.316494022 765.307033003 253.316494022 765.307033003 241.14453125 481.462890625 c 5,39,-1
 945.8359375 464.837890625 l 5,40,41
 957.689138998 635.661981727 957.689138998 635.661981727 833.759765625 752.09375 c 4,42,35
 763.813476562 817.806640625 763.813476562 817.806640625 670.416015625 839.876953125 c 132,-1,36
EndSplineSet
EndChar

